<svg id="Layer_1" data-name="Layer 1" xmlns="http://www.w3.org/2000/svg" xmlns:xlink="http://www.w3.org/1999/xlink" viewBox="0 0 500 500"><defs><style>.cls-1{fill:url(#linear-gradient);}.cls-2{fill:url(#linear-gradient-2);}.cls-3{fill:#fff;}.cls-4{fill:url(#linear-gradient-4);}.cls-5{fill:url(#linear-gradient-5);}.cls-6{fill:url(#linear-gradient-6);}</style><linearGradient id="linear-gradient" x1="326.19" y1="183.19" x2="360.44" y2="183.19" gradientUnits="userSpaceOnUse"><stop offset="0" stop-color="#5882ca"/><stop offset="0.48" stop-color="#bf4da5"/><stop offset="1" stop-color="#e17032"/></linearGradient><linearGradient id="linear-gradient-2" x1="103.9" y1="252.52" x2="396.1" y2="252.52" xlink:href="#linear-gradient"/><linearGradient id="linear-gradient-4" x1="145.61" y1="181.53" x2="206.91" y2="181.53" xlink:href="#linear-gradient"/><linearGradient id="linear-gradient-5" x1="179.72" y1="205.87" x2="213.86" y2="205.87" xlink:href="#linear-gradient"/><linearGradient id="linear-gradient-6" x1="138.58" y1="156.7" x2="172.77" y2="156.7" xlink:href="#linear-gradient"/></defs><path class="cls-1" d="M343.37,166.15a17,17,0,1,0,17.07,17A17,17,0,0,0,343.37,166.15Zm-.07,24.53a7.49,7.49,0,1,1,0-15,7.66,7.66,0,0,1,7.54,7.64A7.45,7.45,0,0,1,343.3,190.68Z"/><path class="cls-2" d="M156,139.68c-9.69-.38-17.23,7.88-17.38,16.69A17.09,17.09,0,1,0,156,139.68Zm-.34,24.51a7.51,7.51,0,0,1-7.44-7.49,7.4,7.4,0,0,1,7.38-7.49,7.49,7.49,0,0,1,7.6,7.32A7.6,7.6,0,0,1,155.63,164.19Zm48.33-23a4.49,4.49,0,0,0-5.1,1,10.09,10.09,0,0,0-1.34,1.68l-50.37,70a14,14,0,0,0-.93,1.39,4.74,4.74,0,0,0,7.68,5.47,22.24,22.24,0,0,0,1.59-2.1q14.76-20.52,29.51-41l20.43-28.4a5.71,5.71,0,0,0,1.47-3.71A4.68,4.68,0,0,0,204,141.17Zm-6.88,47.65a17.05,17.05,0,1,0,16.78,17.36A17,17,0,0,0,197.08,188.82Zm-.61,24.54a7.58,7.58,0,0,1-7.21-7.74,7.55,7.55,0,0,1,15.09.42A7.58,7.58,0,0,1,196.47,213.36Zm.61-24.54a17.05,17.05,0,1,0,16.78,17.36A17,17,0,0,0,197.08,188.82Zm-.61,24.54a7.58,7.58,0,0,1-7.21-7.74,7.55,7.55,0,0,1,15.09.42A7.58,7.58,0,0,1,196.47,213.36ZM204,141.17a4.49,4.49,0,0,0-5.1,1,10.09,10.09,0,0,0-1.34,1.68l-50.37,70a14,14,0,0,0-.93,1.39,4.74,4.74,0,0,0,7.68,5.47,22.24,22.24,0,0,0,1.59-2.1q14.76-20.52,29.51-41l20.43-28.4a5.71,5.71,0,0,0,1.47-3.71A4.68,4.68,0,0,0,204,141.17Zm-48-1.49c-9.69-.38-17.23,7.88-17.38,16.69A17.09,17.09,0,1,0,156,139.68Zm-.34,24.51a7.51,7.51,0,0,1-7.44-7.49,7.4,7.4,0,0,1,7.38-7.49,7.49,7.49,0,0,1,7.6,7.32A7.6,7.6,0,0,1,155.63,164.19Zm.34-24.51c-9.69-.38-17.23,7.88-17.38,16.69A17.09,17.09,0,1,0,156,139.68Zm-.34,24.51a7.51,7.51,0,0,1-7.44-7.49,7.4,7.4,0,0,1,7.38-7.49,7.49,7.49,0,0,1,7.6,7.32A7.6,7.6,0,0,1,155.63,164.19Zm48.33-23a4.49,4.49,0,0,0-5.1,1,10.09,10.09,0,0,0-1.34,1.68l-50.37,70a14,14,0,0,0-.93,1.39,4.74,4.74,0,0,0,7.68,5.47,22.24,22.24,0,0,0,1.59-2.1q14.76-20.52,29.51-41l20.43-28.4a5.71,5.71,0,0,0,1.47-3.71A4.68,4.68,0,0,0,204,141.17Zm-6.88,47.65a17.05,17.05,0,1,0,16.78,17.36A17,17,0,0,0,197.08,188.82Zm-.61,24.54a7.58,7.58,0,0,1-7.21-7.74,7.55,7.55,0,0,1,15.09.42A7.58,7.58,0,0,1,196.47,213.36Zm.61-24.54a17.05,17.05,0,1,0,16.78,17.36A17,17,0,0,0,197.08,188.82Zm-.61,24.54a7.58,7.58,0,0,1-7.21-7.74,7.55,7.55,0,0,1,15.09.42A7.58,7.58,0,0,1,196.47,213.36ZM204,141.17a4.49,4.49,0,0,0-5.1,1,10.09,10.09,0,0,0-1.34,1.68l-50.37,70a14,14,0,0,0-.93,1.39,4.74,4.74,0,0,0,7.68,5.47,22.24,22.24,0,0,0,1.59-2.1q14.76-20.52,29.51-41l20.43-28.4a5.71,5.71,0,0,0,1.47-3.71A4.68,4.68,0,0,0,204,141.17Zm-48-1.49c-9.69-.38-17.23,7.88-17.38,16.69A17.09,17.09,0,1,0,156,139.68Zm-.34,24.51a7.51,7.51,0,0,1-7.44-7.49,7.4,7.4,0,0,1,7.38-7.49,7.49,7.49,0,0,1,7.6,7.32A7.6,7.6,0,0,1,155.63,164.19Zm.34-24.51c-9.69-.38-17.23,7.88-17.38,16.69A17.09,17.09,0,1,0,156,139.68Zm-.34,24.51a7.51,7.51,0,0,1-7.44-7.49,7.4,7.4,0,0,1,7.38-7.49,7.49,7.49,0,0,1,7.6,7.32A7.6,7.6,0,0,1,155.63,164.19Zm48.33-23a4.49,4.49,0,0,0-5.1,1,10.09,10.09,0,0,0-1.34,1.68l-50.37,70a14,14,0,0,0-.93,1.39,4.74,4.74,0,0,0,7.68,5.47,22.24,22.24,0,0,0,1.59-2.1q14.76-20.52,29.51-41l20.43-28.4a5.71,5.71,0,0,0,1.47-3.71A4.68,4.68,0,0,0,204,141.17Zm-6.88,47.65a17.05,17.05,0,1,0,16.78,17.36A17,17,0,0,0,197.08,188.82Zm-.61,24.54a7.58,7.58,0,0,1-7.21-7.74,7.55,7.55,0,0,1,15.09.42A7.58,7.58,0,0,1,196.47,213.36Zm.61-24.54a17.05,17.05,0,1,0,16.78,17.36A17,17,0,0,0,197.08,188.82Zm-.61,24.54a7.58,7.58,0,0,1-7.21-7.74,7.55,7.55,0,0,1,15.09.42A7.58,7.58,0,0,1,196.47,213.36Zm9-64.21a5.71,5.71,0,0,0,1.47-3.71,4.68,4.68,0,0,0-2.94-4.27,4.49,4.49,0,0,0-5.1,1,10.09,10.09,0,0,0-1.34,1.68l-50.37,70a14,14,0,0,0-.93,1.39,4.74,4.74,0,0,0,7.68,5.47,22.24,22.24,0,0,0,1.59-2.1q14.76-20.52,29.51-41Zm-32.66,7.59A17,17,0,0,0,156,139.68c-9.69-.38-17.23,7.88-17.38,16.69a17.09,17.09,0,1,0,34.18.37Zm-24.58,0a7.4,7.4,0,0,1,7.38-7.49,7.49,7.49,0,0,1,7.6,7.32,7.6,7.6,0,0,1-7.54,7.66A7.51,7.51,0,0,1,148.19,156.7Zm247.5,72.57c-2.54-13.24-4.91-26.52-7.38-39.78-1.55-8.31-3.06-16.64-4.79-24.92a31.88,31.88,0,0,0-7.95-15.85c-6.77-7.11-15.29-9.53-24.81-9.11a4.14,4.14,0,0,1-3.71-1.5c-7.71-8.67-15.57-17.18-23.21-25.91a19.94,19.94,0,0,0-16-7.16q-92.18.12-184.33,0c-1,0-1.92,0-2.88.07a17.13,17.13,0,0,0-11.15,4.93,18.2,18.2,0,0,0-5.59,13.79q0,57.42,0,114.85c0,.4,0,.8,0,1.2a17.67,17.67,0,0,0,5.76,12.74,18.38,18.38,0,0,0,13.15,4.83q32,0,64.09,0h3.15l-7.93,10.35q-12.19,15.89-24.4,31.75a18.23,18.23,0,0,0-4.1,10.53,18,18,0,0,0,7.55,15.74l62.25,47.69L252.76,396a17.92,17.92,0,0,0,17,3.08c4.22-1.29,7.22-4.18,9.86-7.63q33-43.12,66.13-86.16,23.08-30,46.17-60.07A18.93,18.93,0,0,0,395.69,229.27ZM123.46,248a17.77,17.77,0,0,1-3.1-.25,8.32,8.32,0,0,1-6.66-6.42,16.57,16.57,0,0,1-.27-3.58V124.85a16,16,0,0,1,.27-3.58,8.29,8.29,0,0,1,6.87-6.48,25.21,25.21,0,0,1,3.58-.21q91.42,0,182.84,0c4.13,0,7.3,1.17,10.05,4.4,5.71,6.69,11.72,13.12,17.59,19.66a5.4,5.4,0,0,1,1.48,2c-4.56.37-8.91.73-13.26,1.07-12.91,1-25.83,1.94-38.74,3A17.84,17.84,0,0,0,271,152.13q-24.33,31.78-48.74,63.5-11.77,15.3-23.49,30.62A4,4,0,0,1,195.2,248Q159.33,248,123.46,248Zm261-8.81q-7.83,10.15-15.64,20.33-48.48,63.14-96.95,126.27l-.88,1.14c-3.29,4.07-8.11,4.73-12.3,1.55-7.83-5.94-15.61-12-23.42-17.93L167.3,318.46l-.57-.43c-4.08-3.27-4.77-8.1-1.6-12.28,6.29-8.27,12.64-16.49,19-24.73l93.75-122.08c.44-.57.87-1.14,1.32-1.7a8,8,0,0,1,5.77-3q16-1.26,32.05-2.48l32.53-2.52a31.52,31.52,0,0,1,8.83.53c6.9,1.41,11.55,5.46,14.24,11.9a53,53,0,0,1,2.78,10.63q4.74,25.43,9.47,50.84c.64,3.45,1.24,6.91,1.86,10.36A9.17,9.17,0,0,1,384.44,239.18Zm-170.58-33a17.07,17.07,0,1,0-34.13-.57,17.07,17.07,0,0,0,34.13.57Zm-24.6-.56a7.55,7.55,0,0,1,15.09.42,7.55,7.55,0,0,1-15.09-.42Zm16.17-56.47a5.71,5.71,0,0,0,1.47-3.71,4.68,4.68,0,0,0-2.94-4.27,4.49,4.49,0,0,0-5.1,1,10.09,10.09,0,0,0-1.34,1.68l-50.37,70a14,14,0,0,0-.93,1.39,4.74,4.74,0,0,0,7.68,5.47,22.24,22.24,0,0,0,1.59-2.1q14.76-20.52,29.51-41Zm-32.66,7.59A17,17,0,0,0,156,139.68c-9.69-.38-17.23,7.88-17.38,16.69a17.09,17.09,0,1,0,34.18.37Zm-24.58,0a7.4,7.4,0,0,1,7.38-7.49,7.49,7.49,0,0,1,7.6,7.32,7.6,7.6,0,0,1-7.54,7.66A7.51,7.51,0,0,1,148.19,156.7Zm7.78-17c-9.69-.38-17.23,7.88-17.38,16.69A17.09,17.09,0,1,0,156,139.68Zm-.34,24.51a7.51,7.51,0,0,1-7.44-7.49,7.4,7.4,0,0,1,7.38-7.49,7.49,7.49,0,0,1,7.6,7.32A7.6,7.6,0,0,1,155.63,164.19Zm48.33-23a4.49,4.49,0,0,0-5.1,1,10.09,10.09,0,0,0-1.34,1.68l-50.37,70a14,14,0,0,0-.93,1.39,4.74,4.74,0,0,0,7.68,5.47,22.24,22.24,0,0,0,1.59-2.1q14.76-20.52,29.51-41l20.43-28.4a5.71,5.71,0,0,0,1.47-3.71A4.68,4.68,0,0,0,204,141.17Zm-6.88,47.65a17.05,17.05,0,1,0,16.78,17.36A17,17,0,0,0,197.08,188.82Zm-.61,24.54a7.58,7.58,0,0,1-7.21-7.74,7.55,7.55,0,0,1,15.09.42A7.58,7.58,0,0,1,196.47,213.36Zm.61-24.54a17.05,17.05,0,1,0,16.78,17.36A17,17,0,0,0,197.08,188.82Zm-.61,24.54a7.58,7.58,0,0,1-7.21-7.74,7.55,7.55,0,0,1,15.09.42A7.58,7.58,0,0,1,196.47,213.36ZM204,141.17a4.49,4.49,0,0,0-5.1,1,10.09,10.09,0,0,0-1.34,1.68l-50.37,70a14,14,0,0,0-.93,1.39,4.74,4.74,0,0,0,7.68,5.47,22.24,22.24,0,0,0,1.59-2.1q14.76-20.52,29.51-41l20.43-28.4a5.71,5.71,0,0,0,1.47-3.71A4.68,4.68,0,0,0,204,141.17Zm-48-1.49c-9.69-.38-17.23,7.88-17.38,16.69A17.09,17.09,0,1,0,156,139.68Zm-.34,24.51a7.51,7.51,0,0,1-7.44-7.49,7.4,7.4,0,0,1,7.38-7.49,7.49,7.49,0,0,1,7.6,7.32A7.6,7.6,0,0,1,155.63,164.19Zm.34-24.51c-9.69-.38-17.23,7.88-17.38,16.69A17.09,17.09,0,1,0,156,139.68Zm-.34,24.51a7.51,7.51,0,0,1-7.44-7.49,7.4,7.4,0,0,1,7.38-7.49,7.49,7.49,0,0,1,7.6,7.32A7.6,7.6,0,0,1,155.63,164.19Zm48.33-23a4.49,4.49,0,0,0-5.1,1,10.09,10.09,0,0,0-1.34,1.68l-50.37,70a14,14,0,0,0-.93,1.39,4.74,4.74,0,0,0,7.68,5.47,22.24,22.24,0,0,0,1.59-2.1q14.76-20.52,29.51-41l20.43-28.4a5.71,5.71,0,0,0,1.47-3.71A4.68,4.68,0,0,0,204,141.17Zm-6.88,47.65a17.05,17.05,0,1,0,16.78,17.36A17,17,0,0,0,197.08,188.82Zm-.61,24.54a7.58,7.58,0,0,1-7.21-7.74,7.55,7.55,0,0,1,15.09.42A7.58,7.58,0,0,1,196.47,213.36Zm.61-24.54a17.05,17.05,0,1,0,16.78,17.36A17,17,0,0,0,197.08,188.82Zm-.61,24.54a7.58,7.58,0,0,1-7.21-7.74,7.55,7.55,0,0,1,15.09.42A7.58,7.58,0,0,1,196.47,213.36ZM204,141.17a4.49,4.49,0,0,0-5.1,1,10.09,10.09,0,0,0-1.34,1.68l-50.37,70a14,14,0,0,0-.93,1.39,4.74,4.74,0,0,0,7.68,5.47,22.24,22.24,0,0,0,1.59-2.1q14.76-20.52,29.51-41l20.43-28.4a5.71,5.71,0,0,0,1.47-3.71A4.68,4.68,0,0,0,204,141.17Zm-48-1.49c-9.69-.38-17.23,7.88-17.38,16.69A17.09,17.09,0,1,0,156,139.68Zm-.34,24.51a7.51,7.51,0,0,1-7.44-7.49,7.4,7.4,0,0,1,7.38-7.49,7.49,7.49,0,0,1,7.6,7.32A7.6,7.6,0,0,1,155.63,164.19Z"/><path class="cls-3" d="M343.37,166.15a17,17,0,1,0,17.07,17A17,17,0,0,0,343.37,166.15Zm-.07,24.53a7.49,7.49,0,1,1,0-15,7.66,7.66,0,0,1,7.54,7.64A7.45,7.45,0,0,1,343.3,190.68Z"/><path class="cls-3" d="M156,139.68c-9.69-.38-17.23,7.88-17.38,16.69A17.09,17.09,0,1,0,156,139.68Zm-.34,24.51a7.51,7.51,0,0,1-7.44-7.49,7.4,7.4,0,0,1,7.38-7.49,7.49,7.49,0,0,1,7.6,7.32A7.6,7.6,0,0,1,155.63,164.19Z"/><path class="cls-3" d="M185,177.55q-14.77,20.53-29.51,41a22.24,22.24,0,0,1-1.59,2.1,4.74,4.74,0,0,1-7.68-5.47,14,14,0,0,1,.93-1.39l50.37-70a10.09,10.09,0,0,1,1.34-1.68,4.49,4.49,0,0,1,5.1-1,4.68,4.68,0,0,1,2.94,4.27,5.71,5.71,0,0,1-1.47,3.71Z"/><path class="cls-3" d="M197.08,188.82a17.05,17.05,0,1,0,16.78,17.36A17,17,0,0,0,197.08,188.82Zm-.61,24.54a7.58,7.58,0,0,1-7.21-7.74,7.55,7.55,0,0,1,15.09.42A7.58,7.58,0,0,1,196.47,213.36Z"/><path class="cls-1" d="M343.37,166.15a17,17,0,1,0,17.07,17A17,17,0,0,0,343.37,166.15Zm-.07,24.53a7.49,7.49,0,1,1,0-15,7.66,7.66,0,0,1,7.54,7.64A7.45,7.45,0,0,1,343.3,190.68Z"/><path class="cls-4" d="M206.9,145.44a5.71,5.71,0,0,1-1.47,3.71L185,177.55q-14.77,20.53-29.51,41a22.24,22.24,0,0,1-1.59,2.1,4.74,4.74,0,0,1-7.68-5.47,14,14,0,0,1,.93-1.39l50.37-70a10.09,10.09,0,0,1,1.34-1.68,4.49,4.49,0,0,1,5.1-1A4.68,4.68,0,0,1,206.9,145.44Z"/><path class="cls-5" d="M197.08,188.82a17.05,17.05,0,1,0,16.78,17.36A17,17,0,0,0,197.08,188.82Zm-.61,24.54a7.58,7.58,0,0,1-7.21-7.74,7.55,7.55,0,0,1,15.09.42A7.58,7.58,0,0,1,196.47,213.36Z"/><path class="cls-6" d="M156,139.68c-9.69-.38-17.23,7.88-17.38,16.69A17.09,17.09,0,1,0,156,139.68Zm-.34,24.51a7.51,7.51,0,0,1-7.44-7.49,7.4,7.4,0,0,1,7.38-7.49,7.49,7.49,0,0,1,7.6,7.32A7.6,7.6,0,0,1,155.63,164.19Z"/></svg>