<svg id="Layer_1" data-name="Layer 1" xmlns="http://www.w3.org/2000/svg" xmlns:xlink="http://www.w3.org/1999/xlink" viewBox="0 0 500 500"><defs><style>.cls-1{fill:url(#linear-gradient);}.cls-2{fill:url(#linear-gradient-2);}.cls-3{fill:url(#linear-gradient-3);}.cls-4{fill:url(#linear-gradient-4);}.cls-5{fill:url(#linear-gradient-5);}.cls-6{fill:url(#linear-gradient-6);}.cls-7{fill:url(#linear-gradient-7);}.cls-8{fill:url(#linear-gradient-8);}.cls-9{fill:url(#linear-gradient-9);}.cls-10{fill:url(#linear-gradient-10);}.cls-11{fill:url(#linear-gradient-11);}</style><linearGradient id="linear-gradient" x1="147.38" y1="229.71" x2="416.69" y2="229.71" gradientUnits="userSpaceOnUse"><stop offset="0" stop-color="#5882ca"/><stop offset="0.48" stop-color="#bf4da5"/><stop offset="1" stop-color="#e17032"/></linearGradient><linearGradient id="linear-gradient-2" x1="83.31" y1="270.32" x2="343.74" y2="270.32" xlink:href="#linear-gradient"/><linearGradient id="linear-gradient-3" x1="157.95" y1="189.39" x2="227.84" y2="310.44" xlink:href="#linear-gradient"/><linearGradient id="linear-gradient-4" x1="322.19" y1="251" x2="332.1" y2="251" xlink:href="#linear-gradient"/><linearGradient id="linear-gradient-5" x1="345.75" y1="250.96" x2="355.54" y2="250.96" xlink:href="#linear-gradient"/><linearGradient id="linear-gradient-6" x1="286.69" y1="293.95" x2="296.65" y2="293.95" xlink:href="#linear-gradient"/><linearGradient id="linear-gradient-7" x1="286.7" y1="323.31" x2="296.66" y2="323.31" xlink:href="#linear-gradient"/><linearGradient id="linear-gradient-8" x1="286.71" y1="176.59" x2="296.66" y2="176.59" xlink:href="#linear-gradient"/><linearGradient id="linear-gradient-9" x1="286.69" y1="205.88" x2="296.63" y2="205.88" xlink:href="#linear-gradient"/><linearGradient id="linear-gradient-10" x1="286.71" y1="235.29" x2="296.66" y2="235.29" xlink:href="#linear-gradient"/><linearGradient id="linear-gradient-11" x1="286.71" y1="264.6" x2="296.65" y2="264.6" xlink:href="#linear-gradient"/></defs><path class="cls-1" d="M272.34,154h113.9a1.81,1.81,0,0,0-.09-1.47c-2.55-8.43-5.13-16.85-7.64-25.29a5,5,0,0,0-4.3-4,5.85,5.85,0,0,0-2.65.39q-8.37,2.5-16.72,5.05l-18.3,5.54c-.47.14-.93.3-1.4.4a5,5,0,0,1-5.77-3.31,4.86,4.86,0,0,1,3-6.1c2.08-.75,4.23-1.31,6.36-1.95,10.08-3,20.2-6,30.24-9.14a14.93,14.93,0,0,1,19,10.2c2.71,9.32,5.56,18.6,8.39,27.88.62,2,.12,1.84,2.53,1.85a27.86,27.86,0,0,1,6.64.42,14.73,14.73,0,0,1,11.15,14.34c0,11.12,0,22.23,0,33.34,0,5.63,0,11.26,0,16.89,0,3.76-1.82,5.59-5.59,5.7a25.24,25.24,0,0,0-.14,50.46c3.9.1,5.72,1.92,5.73,5.79q0,24.9,0,49.81c0,8.7-6.39,15.1-15.14,15.14-8.47,0-16.95,0-25.42,0-5.63,0-11.26,0-16.89,0a6.07,6.07,0,0,1-3.75-1,4.9,4.9,0,0,1-1.88-5.15,5,5,0,0,1,4.28-3.73c.62-.06,1.25,0,1.87,0h40.85c.56,0,1.12,0,1.67,0a4.8,4.8,0,0,0,4.52-4.6c0-.49,0-1,0-1.46V286.67c0-1.9,0-1.88-1.79-2.25-11.41-2.42-19.82-8.84-24.88-19.31a35,35,0,0,1,25-49.55c1.62-.31,1.64-.31,1.64-2,0-14.8,0-29.59.05-44.39a5.14,5.14,0,0,0-5.36-5.31c-.62,0-1.25,0-1.87,0H154.08c-.62,0-1.25,0-1.87,0a4.9,4.9,0,0,1-.35-9.78,20.78,20.78,0,0,1,2.09,0q40.22,0,80.45,0a15.6,15.6,0,0,0,4.5-.65q36.81-11.14,73.62-22.25c.47-.14.93-.29,1.4-.41A4.89,4.89,0,0,1,320,134a4.81,4.81,0,0,1-3.23,6.12c-3.63,1.17-7.29,2.23-10.94,3.33q-16,4.83-32,9.66c-.51.15-1,.35-1.5.53Z"/><path class="cls-2" d="M339.18,336.11c-.69-.06-1.39,0-2.09,0q-118.57,0-237.17.06c-4.86,0-6.77-2.23-6.76-6.69q.14-79.4.06-158.8c0-.48,0-1,0-1.45.06-3.33,2-5.26,5.34-5.3,2.22,0,4.44,0,6.67,0,9,0,18.06,0,27.09,0,3.42,0,5.56-2.32,5.21-5.55-.27-2.57-2.27-4.25-5.26-4.25q-17.19,0-34.39,0a14.1,14.1,0,0,0-10.69,4.81,15.39,15.39,0,0,0-3.88,10.91q0,40.11,0,80.23v79.4c0,.69,0,1.39,0,2.08A14.72,14.72,0,0,0,96.5,345.85a43.88,43.88,0,0,0,4.58.14c2.25.06,1.92-.45,2.64,2q4.17,13.83,8.35,27.67a14.66,14.66,0,0,0,9.75,10.28,10.22,10.22,0,0,0,6.73.18c2.11-.7,4.26-1.24,6.39-1.87Q198.06,365.64,261,346.6a14.75,14.75,0,0,1,4.29-.63q36,0,71.9,0a10.14,10.14,0,0,0,2.69-.19,4.91,4.91,0,0,0-.74-9.68Zm-113,10.75q-44.35,13.41-88.72,26.77c-3,.9-6,1.83-8.95,2.72-3.63,1.08-5.92-.11-7-3.71q-3.85-12.61-7.66-25.26a2,2,0,0,1-.1-1.31h114C227.37,346.74,226.69,346.71,226.19,346.86Z"/><path class="cls-3" d="M251,227.47a11.06,11.06,0,0,0-4.85-9.21,11.48,11.48,0,0,0-6.23-2.07c-1.7-.09-1.71-.1-1.69-1.86a55.25,55.25,0,0,0-.77-10c-.83-4.71-2.34-9.14-5.45-12.88-6-7.15-14.94-8.3-22.48-2.87a26.33,26.33,0,0,0-6.47,6.72,2.31,2.31,0,0,1-2.19,1.15q-6.57-.06-13.13,0a2.31,2.31,0,0,1-2.21-1.13,26.44,26.44,0,0,0-7.14-7.2,15.58,15.58,0,0,0-19.62,1.08,22.14,22.14,0,0,0-6.72,11,47,47,0,0,0-1.68,14.21c0,1.6,0,1.6-1.66,1.7-6.36.38-11,4.89-11.19,11.21q-.23,6.76,0,13.54a11.17,11.17,0,0,0,7.09,10.38,6.54,6.54,0,0,0,1.78.54c.78.12,1.08.49,1,1.25,0,.49,0,1,0,1.46,0,13.06.1,26.11,0,39.17A15,15,0,0,0,162.71,309c10.55-.14,21.11,0,31.66,0,10.77,0,21.53,0,32.3,0a14.63,14.63,0,0,0,14.25-12,20.32,20.32,0,0,0,.29-3.73V253.84c0-1.61,0-1.61,1.53-2.06A11.29,11.29,0,0,0,251,241C251.11,236.5,251.08,232,251,227.47Zm-41-23.66a2.81,2.81,0,0,1,.33-1.6,18.27,18.27,0,0,1,5.44-5.93,6.07,6.07,0,0,1,8.12.91,13.14,13.14,0,0,1,3.16,5.78,39.78,39.78,0,0,1,1.31,12.15c0,.82-.32,1.09-1.1,1.08-2.71,0-5.42,0-8.12,0s-5.14,0-7.7,0c-1,0-1.49-.19-1.46-1.37C210.06,211.16,210,207.49,210,203.81Zm-48.36-1.12a11.56,11.56,0,0,1,4.79-6.83,4.53,4.53,0,0,1,4.53-.36,16.06,16.06,0,0,1,7.29,6.59,3,3,0,0,1,.39,1.59c0,3.75,0,7.5,0,11.25,0,1-.39,1.29-1.34,1.28-2.64,0-5.28,0-7.92,0s-5.27,0-7.91,0c-.88,0-1.19-.25-1.21-1.17A38.11,38.11,0,0,1,161.65,202.69Zm25.59,96.39c-8.12,0-16.24-.09-24.36,0a5.29,5.29,0,0,1-5.6-5.69c.13-13.12.05-26.23.05-39.35a7.66,7.66,0,0,0,0-.83c-.1-.86.36-1.08,1.11-1,.28,0,.56,0,.83,0H187c2.17,0,2-.22,2,2q0,10.72,0,21.44v21.65C188.92,299.07,189.08,299.08,187.24,299.08Zm1.68-62.81v6.06H150.38c-.42,0-.84,0-1.25,0-1.15-.1-1.68-.54-1.69-1.68q-.08-6.45,0-12.91c0-1.11.57-1.58,1.7-1.7a14.2,14.2,0,0,1,1.46,0h36.24a9,9,0,0,0,1,0c.87-.11,1.06.34,1.05,1.09C188.91,230.16,188.92,233.21,188.92,236.27Zm.62-20.06c-.91,0-1.2-.34-1.18-1.23q.06-3.73,0-7.48c0-.92.35-1.19,1.22-1.17,1.66,0,3.32,0,5,0,1.52,0,3,0,4.57,0,.84,0,1.07.32,1.06,1.1q0,3.84,0,7.68c0,.8-.3,1.1-1.1,1.09C195.91,216.18,192.72,216.17,189.54,216.21Zm36.36,82.9c-8.46-.11-16.93,0-25.4,0-2,0-1.74,0-1.74-1.86V275.57q0-10.83,0-21.66c0-1.65,0-1.67,1.72-1.67h29.15c1.66,0,1.68,0,1.68,1.68,0,13.25-.06,26.51.05,39.76A5.24,5.24,0,0,1,225.9,299.11Zm15.34-59.23c0,2.06-.39,2.45-2.43,2.45H200.27c-1.48,0-1.5,0-1.51-1.45q0-6.66,0-13.33c0-1.51,0-1.53,1.64-1.53h37.91c2.64,0,2.93.28,2.93,2.82C241.25,232.52,241.26,236.2,241.24,239.88Z"/><path class="cls-4" d="M332.09,251.24V285a7.38,7.38,0,0,1-.37,2.87,4.9,4.9,0,0,1-9.18-.09,8,8,0,0,1-.35-2.87V217.2a11,11,0,0,1,.11-2.07,4.89,4.89,0,0,1,5.21-4.1,4.94,4.94,0,0,1,4.56,4.6c.05.55,0,1.11,0,1.67Z"/><path class="cls-5" d="M355.5,251c0,6.17-.07,12.35,0,18.53a5.12,5.12,0,0,1-4.05,5,4.84,4.84,0,0,1-5.71-4.36c0-.48,0-1,0-1.45v-35.4c0-.41,0-.83,0-1.24a4.86,4.86,0,0,1,9.72.13C355.53,238.46,355.5,244.7,355.5,251Z"/><path class="cls-6" d="M296.61,293.91c0,1.66.09,3.33,0,5a4.92,4.92,0,0,1-7,4.41,4.72,4.72,0,0,1-2.89-4.44c-.06-3.26-.07-6.51,0-9.77a4.93,4.93,0,0,1,9.85-.17C296.69,290.58,296.61,292.25,296.61,293.91Z"/><path class="cls-7" d="M286.72,323.3c0-1.59,0-3.19,0-4.78a4.85,4.85,0,0,1,5-5,4.8,4.8,0,0,1,4.89,4.87q.15,4.89,0,9.77a4.94,4.94,0,1,1-9.87-.08C286.68,326.49,286.72,324.89,286.72,323.3Z"/><path class="cls-8" d="M286.72,176.43c0-1.52,0-3,0-4.57a4.94,4.94,0,1,1,9.87,0c.08,3.18.09,6.37,0,9.56a4.94,4.94,0,1,1-9.87-.17C286.69,179.62,286.72,178,286.72,176.43Z"/><path class="cls-9" d="M296.62,205.93c0,1.45,0,2.91,0,4.36-.06,3.3-2.05,5.43-5,5.4s-4.84-2.14-4.87-5.32-.09-6.24,0-9.36a4.94,4.94,0,1,1,9.87.14C296.66,202.74,296.62,204.33,296.62,205.93Z"/><path class="cls-10" d="M286.72,235.15c0-1.53,0-3.05,0-4.58a4.94,4.94,0,1,1,9.87-.08q.12,4.78,0,9.56a4.94,4.94,0,1,1-9.87-.12C286.69,238.34,286.72,236.74,286.72,235.15Z"/><path class="cls-11" d="M286.72,264.58c0-1.52,0-3.05,0-4.57.07-3.12,2.13-5.24,5-5.2a4.91,4.91,0,0,1,4.88,5.13q.09,4.68,0,9.35a4.89,4.89,0,0,1-4.9,5.1c-2.86,0-4.91-2.12-5-5.23C286.69,267.63,286.72,266.11,286.72,264.58Z"/></svg>