<svg width="1280" height="722" viewBox="0 0 1280 722" fill="none" xmlns="http://www.w3.org/2000/svg">
<mask id="mask0_40_3" style="mask-type:luminance" maskUnits="userSpaceOnUse" x="0" y="0" width="1280" height="722">
<path d="M0 0H1280V722H0V0Z" fill="white"/>
</mask>
<g mask="url(#mask0_40_3)">
<path d="M489.605 1821.34C1013.88 1704.63 1108.86 1418.77 1289.05 1270.89C1487.32 1108.14 1765.53 1113.66 1928.47 900.186C2209.76 531.627 2109.92 286.665 2164.19 102.7C2234.06 -134.131 2395.99 -255.447 2436.64 -459.595C2480.02 -677.328 2396.83 -850.141 2270.17 -950.209C2168.17 -939.54 2066.94 -916.721 1977.59 -890.486C1787.27 -834.592 1616.05 -692.607 1506.15 -527.584C1363.34 -313.151 1484.02 31.572 1307.41 219.19C1137.8 399.392 810.416 318.759 602.697 453.348C527.199 502.274 491.838 597.617 420.42 652.327C320.522 728.827 139.606 712.592 85.228 826.02C7.20001 988.733 275.55 1196.61 192.137 1356.62C125.35 1484.76 -114.651 1477.02 -196.448 1596.16C-224.823 1637.53 -242.471 1685.35 -250.23 1735.3C-122.467 1812.02 41.147 1869.66 276.051 1853.34C341.448 1848.8 412.386 1838.53 489.605 1821.34Z" fill="url(#paint0_radial_40_3)"/>
<path opacity="0.6" d="M1094.1 1568C1601.1 1390.69 1661.94 1095.67 1823.56 927.705C2001.4 742.851 2278.35 715.738 2415.16 484.65C2651.34 85.678 2523.49 -145.902 2555.83 -334.958C2597.48 -578.342 2744.09 -717.791 2760.55 -925.297C2778.13 -1146.61 2675.26 -1308.49 2537.75 -1393.03C2437.7 -1370.49 2339.84 -1335.97 2254.18 -1299.45C2071.73 -1221.65 1918.31 -1060.58 1828.49 -883.822C1711.79 -654.138 1872.02 -325.924 1718.61 -118.91C1571.26 79.9199 1236.69 38.1899 1046.17 196.184C976.922 253.616 952.972 352.445 888.455 415.145C798.206 502.819 616.633 507.888 575.917 626.905C517.486 797.638 808.338 972.652 744.242 1141.33C692.925 1276.41 453.669 1296.83 386.391 1424.74C363.056 1469.14 351.132 1518.7 349.277 1569.22C485.147 1630.44 654.388 1668.52 885.762 1624.8C950.177 1612.63 1019.42 1594.13 1094.1 1568Z" fill="url(#paint1_radial_40_3)"/>
</g>
<defs>
<radialGradient id="paint0_radial_40_3" cx="0" cy="0" r="1" gradientUnits="userSpaceOnUse" gradientTransform="translate(1742.89 455.839) rotate(-154.807) scale(1155.49 1235.89)">
<stop offset="0.0336538" stop-color="#5685CB"/>
<stop offset="0.495192" stop-color="#C64B9C"/>
<stop offset="1" stop-color="#E2712F"/>
</radialGradient>
<radialGradient id="paint1_radial_40_3" cx="0" cy="0" r="1" gradientUnits="userSpaceOnUse" gradientTransform="translate(1366 548.001) rotate(-155.872) scale(841.522 900.074)">
<stop stop-color="#C64B9C"/>
<stop offset="1" stop-color="#C64B9C" stop-opacity="0"/>
</radialGradient>
</defs>
</svg>
