<svg id="Layer_1" data-name="Layer 1" xmlns="http://www.w3.org/2000/svg" xmlns:xlink="http://www.w3.org/1999/xlink" viewBox="0 0 500 500"><defs><style>.cls-1{fill:url(#linear-gradient);}.cls-2{fill:url(#linear-gradient-2);}.cls-3{fill:url(#linear-gradient-3);}.cls-4{fill:url(#linear-gradient-4);}.cls-5{fill:url(#linear-gradient-5);}.cls-6{fill:url(#linear-gradient-6);}.cls-7{fill:url(#linear-gradient-7);}.cls-8{fill:#fff;}.cls-9{fill:url(#linear-gradient-14);}.cls-10{fill:url(#linear-gradient-15);}.cls-11{fill:url(#linear-gradient-16);}</style><linearGradient id="linear-gradient" x1="177.69" y1="194.03" x2="245.83" y2="194.03" gradientUnits="userSpaceOnUse"><stop offset="0" stop-color="#5882ca"/><stop offset="0.48" stop-color="#bf4da5"/><stop offset="1" stop-color="#e17032"/></linearGradient><linearGradient id="linear-gradient-2" x1="171.36" y1="243.66" x2="255.4" y2="243.66" xlink:href="#linear-gradient"/><linearGradient id="linear-gradient-3" x1="155.07" y1="312.11" x2="268.41" y2="312.11" xlink:href="#linear-gradient"/><linearGradient id="linear-gradient-4" x1="304.56" y1="288.07" x2="315.15" y2="288.07" xlink:href="#linear-gradient"/><linearGradient id="linear-gradient-5" x1="304.57" y1="241.17" x2="315.13" y2="241.17" xlink:href="#linear-gradient"/><linearGradient id="linear-gradient-6" x1="341.52" y1="212.07" x2="387.72" y2="212.07" xlink:href="#linear-gradient"/><linearGradient id="linear-gradient-7" x1="83.78" y1="250" x2="416.22" y2="250" xlink:href="#linear-gradient"/><linearGradient id="linear-gradient-14" x1="302.93" y1="96.17" x2="339.49" y2="96.17" xlink:href="#linear-gradient"/><linearGradient id="linear-gradient-15" x1="280.19" y1="144.14" x2="304.97" y2="144.14" xlink:href="#linear-gradient"/><linearGradient id="linear-gradient-16" x1="312.51" y1="374.31" x2="379.57" y2="374.31" xlink:href="#linear-gradient"/></defs><path class="cls-1" d="M177.69,194.15c-.13-3.21,2.35-5.38,6.32-5.38q27.75,0,55.49,0a8.5,8.5,0,0,1,3,.41,5.22,5.22,0,0,1-1.24,10,19.24,19.24,0,0,1-2.28.05h-27.5c-9.16,0-18.33-.12-27.49.06C179.78,199.39,177.79,196.66,177.69,194.15Z"/><path class="cls-2" d="M255.32,236c-.81-7.54-6.14-12.2-13.75-12.24-3,0-5.95.07-8.92.06-2.6,0-3-.33-3.85-2.8-1-2.89-1.87-5.81-2.83-8.7a13,13,0,0,0-5.85-7.44,13.22,13.22,0,0,0-19.27,6.94c-1.09,3-1.95,6.14-2.94,9.21-.83,2.56-1.49,3-4.25,3.07h-4.84v0c-1.7,0-3.4-.06-5.1,0a12.18,12.18,0,0,0-9.1,4.45,13.22,13.22,0,0,0,1.94,19.21c2.55,2,5.23,3.77,7.85,5.66,2.17,1.57,2.37,2.17,1.57,4.73-1,3.08-2,6.14-2.92,9.22a12.62,12.62,0,0,0-.07,7.28,13.27,13.27,0,0,0,20.11,7.38c2.61-1.74,5.07-3.7,7.61-5.55s3-2,5.8,0c2.42,1.74,4.81,3.5,7.24,5.21a12.42,12.42,0,0,0,8.9,2.33c8.73-1.13,13.82-9.17,11.17-17.58-.9-2.83-1.89-5.62-2.82-8.44s-.74-3.2,1.59-4.93c2.53-1.87,5.11-3.67,7.59-5.59A12.28,12.28,0,0,0,255.32,236Zm-11.91,3.57c-2.55,1.83-5.09,3.69-7.62,5.55-5.11,3.79-6.94,9.27-5,15.3,1,3.16,2.14,6.26,3.12,9.42a2.77,2.77,0,0,1-2.71,3.82,4.22,4.22,0,0,1-2.25-1.09c-2.42-1.73-4.81-3.49-7.24-5.21-5.36-3.79-11-3.77-16.29.06-2.55,1.84-5,3.76-7.6,5.57-1.84,1.31-3.65.93-4.53-.79a3,3,0,0,1,0-2.45q1.47-4.47,2.86-9c2-6.29.21-11.61-5.07-15.48-2.47-1.8-5-3.57-7.45-5.34-1.18-.83-2.09-1.78-1.62-3.38s1.36-2.07,3.35-2.11c1.78,0,3.57,0,5.35,0v0c1.53,0,3.06,0,4.59,0A12.68,12.68,0,0,0,207.2,226c1.09-2.93,2-5.95,2.94-8.94.15-.48.28-1,.47-1.44.61-1.51,1.53-2.22,2.8-2.14a2.73,2.73,0,0,1,2.57,2.11c.92,2.82,2,5.58,2.78,8.45A13.57,13.57,0,0,0,233,234.37c2.88-.12,5.78-.08,8.66-.05,1.79,0,2.83.69,3.16,2A2.91,2.91,0,0,1,243.41,239.58Z"/><path class="cls-3" d="M268.39,306.32a9.32,9.32,0,0,0-.37-2.76A10.37,10.37,0,0,0,257.73,296q-22.92,0-45.86,0c-15.37,0-30.74.08-46.11,0-5.95,0-10.87,5.09-10.68,10.62.14,3.73,0,7.47,0,11.21a10.31,10.31,0,0,0,10.52,10.45q46.11,0,92.23,0a10.31,10.31,0,0,0,10.52-10.46C268.43,314,268.4,310.14,268.39,306.32ZM257.9,316.37c0,.93-.27,1.46-1.29,1.38-.42,0-.85,0-1.27,0l-86.87.11c-.51,0-1,0-1.53,0-1,.07-1.35-.41-1.34-1.36,0-2.89,0-5.78,0-8.66,0-1.16.52-1.49,1.55-1.41.51,0,1,0,1.53,0h43.06v-.07h43c.59,0,1.19,0,1.78,0,1-.08,1.34.4,1.33,1.35C257.88,310.6,257.88,313.48,257.9,316.37Z"/><path class="cls-4" d="M304.64,298c-.12-6.62-.1-13.25,0-19.87a5.09,5.09,0,0,1,5.17-4.94,5.14,5.14,0,0,1,5.27,5.1c.13,3.31,0,6.62,0,9.94,0,3.14.07,6.29,0,9.43a5.23,5.23,0,0,1-10.46.34Z"/><path class="cls-5" d="M304.6,246.34V241c0-4.57-.06-9.15,0-13.73a5.14,5.14,0,0,1,6.27-5.22,5.07,5.07,0,0,1,4.17,4.51,17.51,17.51,0,0,1,.05,2.29q0,12.33,0,24.66c0,.68,0,1.36,0,2a5.22,5.22,0,0,1-5.26,4.84,5.17,5.17,0,0,1-5.21-5.15C304.53,252.28,304.6,249.31,304.6,246.34Z"/><path class="cls-6" d="M364.67,189a23.1,23.1,0,1,0,23.05,23.2A23,23,0,0,0,364.67,189Zm.12,35.72a12.65,12.65,0,1,1,12.43-12.79A12.73,12.73,0,0,1,364.79,224.69Z"/><path class="cls-7" d="M303.81,153.11,290.44,130a11.2,11.2,0,0,0-.94-1.51,5.24,5.24,0,0,0-9,1.59c-.7,1.88-.07,3.47.85,5.06l13.49,23.34a9.49,9.49,0,0,0,1,1.48,5.33,5.33,0,0,0,5.82,1.44A5.52,5.52,0,0,0,305,156,7.92,7.92,0,0,0,303.81,153.11Zm17.54-75.25A18.15,18.15,0,0,0,302.94,96.2c-.29,9.71,7.82,18.25,18.49,18.27a18.31,18.31,0,0,0-.08-36.61Zm-.22,26.08A7.8,7.8,0,1,1,329,96.28,7.82,7.82,0,0,1,321.13,103.94Zm.22-26.08A18.15,18.15,0,0,0,302.94,96.2c-.29,9.71,7.82,18.25,18.49,18.27a18.31,18.31,0,0,0-.08-36.61Zm-.22,26.08A7.8,7.8,0,1,1,329,96.28,7.82,7.82,0,0,1,321.13,103.94Zm-17.32,49.17L290.44,130a11.2,11.2,0,0,0-.94-1.51,5.24,5.24,0,0,0-9,1.59c-.7,1.88-.07,3.47.85,5.06l13.49,23.34a9.49,9.49,0,0,0,1,1.48,5.33,5.33,0,0,0,5.82,1.44A5.52,5.52,0,0,0,305,156,7.92,7.92,0,0,0,303.81,153.11Zm0,0L290.44,130a11.2,11.2,0,0,0-.94-1.51,5.24,5.24,0,0,0-9,1.59c-.7,1.88-.07,3.47.85,5.06l13.49,23.34a9.49,9.49,0,0,0,1,1.48,5.33,5.33,0,0,0,5.82,1.44A5.52,5.52,0,0,0,305,156,7.92,7.92,0,0,0,303.81,153.11Zm17.54-75.25A18.15,18.15,0,0,0,302.94,96.2c-.29,9.71,7.82,18.25,18.49,18.27a18.31,18.31,0,0,0-.08-36.61Zm-.22,26.08A7.8,7.8,0,1,1,329,96.28,7.82,7.82,0,0,1,321.13,103.94Zm.22-26.08A18.15,18.15,0,0,0,302.94,96.2c-.29,9.71,7.82,18.25,18.49,18.27a18.31,18.31,0,0,0-.08-36.61Zm-.22,26.08A7.8,7.8,0,1,1,329,96.28,7.82,7.82,0,0,1,321.13,103.94ZM290.44,130a11.2,11.2,0,0,0-.94-1.51,5.24,5.24,0,0,0-9,1.59c-.7,1.88-.07,3.47.85,5.06l13.49,23.34a9.49,9.49,0,0,0,1,1.48,5.33,5.33,0,0,0,5.82,1.44A5.52,5.52,0,0,0,305,156a7.92,7.92,0,0,0-1.16-2.91ZM413,353.21c-.23-.81-.69-1.59-.32-2.46,1.93-4.62,1.57-9.49,1.57-14.32q0-16.95,0-33.91c0-4-1.81-5.82-5.9-6a35.08,35.08,0,0,1-3.54-.36c-21.13-3-32.34-26.82-21.07-44.93,5.55-8.93,13.8-13.53,24.27-14.22.25,0,.51,0,.76,0,3.56-.15,5.47-2.05,5.47-5.62,0-13.17-.13-26.34.06-39.51a24.22,24.22,0,0,0-16.85-23.28,3.65,3.65,0,0,1-2.48-2.26c-1.34-3-2.77-6-4.17-9-2-4.31-4-8.62-6-12.91-1.81-3.84-4.18-4.77-8-3.22-.39.16-.78.33-1.18.46-8,2.73-15.35,1.36-21.65-4.16s-8.33-12.84-6.63-21c1.39-6.67,5.42-11.36,11.43-14.47,3.35-1.74,4.28-4.25,2.74-7.59-4.3-9.32-8.6-18.63-13-27.9a18.85,18.85,0,0,0-12.1-10.18c-5.14-1.57-10-.83-14.83,1.42q-73.8,34.44-147.63,68.81-23.54,11-47.06,21.92a19.72,19.72,0,0,0-11.16,12.82,15.08,15.08,0,0,0-.74,4.76c0,1.09-.38,1.49-1.48,1.45-1.78-.07-3.57,0-5.35,0a24,24,0,0,0-24.22,24.3q0,19.38,0,38.75c0,4.54,1.71,6.3,6.24,6.47a29.77,29.77,0,0,1-.17,59.52c-4.21.13-6.06,2-6.07,6.13,0,13.17-.18,26.35.06,39.52C84.09,352.26,89,359.57,98.1,364a25,25,0,0,0,11.16,2.12q40.28,0,80.56,0h83.63c2.76,0,2.75,0,2.6,2.64a74.74,74.74,0,0,0,1.72,22A70.13,70.13,0,0,0,353.68,444c16.77-1.87,31.26-8.71,42.75-21C415.14,403,420.4,379.55,413,353.21ZM125.74,164a9.52,9.52,0,0,1,5.49-6q10.28-4.74,20.53-9.55l105.17-49c3-1.39,3-1.39,4.66,1.51q5.42,9.36,10.82,18.74a19.2,19.2,0,0,0,1,1.75,5.18,5.18,0,0,0,6.78,1.64,5.24,5.24,0,0,0,2.27-6.8,19.53,19.53,0,0,0-1.11-2q-5.47-9.48-10.95-19c-1-1.69-1-1.73.79-2.55C289.61,84.2,308,75.7,326.35,67.07a9.55,9.55,0,0,1,13,4.71c3.2,7.21,6.6,14.33,10,21.44.67,1.39.32,2-.78,2.87-8.47,6.75-12.57,15.61-12.39,26.41.24,14.51,11.32,27.58,25.58,30.31a32.54,32.54,0,0,0,13.65-.16,1.52,1.52,0,0,1,2.1,1c1.89,4.17,3.84,8.31,5.78,12.46.18.39.4.76.14,1.23a7.23,7.23,0,0,1-2.46.12H128.35C125.19,167.51,124.82,167,125.74,164ZM276.18,355.65q-83.86,0-167.73,0a13.87,13.87,0,0,1-14.09-14c.11-11.05,0-22.09,0-33.14,0-1.85,0-1.85,1.92-2.2,17.34-3.26,30.56-16.91,32.7-34.26a40,40,0,0,0-32.76-44.89c-1.84-.31-1.86-.33-1.86-2.25,0-11.05.09-22.09,0-33.14a13.83,13.83,0,0,1,13.4-13.91c.84,0,1.69,0,2.54,0H301.48c3.56,0,3.1-.53,3.11,3.07,0,7.48,0,14.95,0,22.43,0,3.53,2.23,5.79,5.44,5.69a5.12,5.12,0,0,0,5-4.8c.11-1.18,0-2.38,0-3.57,0-7,0-13.93,0-20.9,0-1.9,0-1.92,2-1.92q36.19,0,72.4,0c8.46,0,14.28,5.86,14.32,14.28.06,10.87,0,21.75,0,32.62,0,2.06,0,2.06-2,2.42a40.22,40.22,0,0,0,.06,79.15c1,.16,2,.16,2,1.7-.06,8.48,0,17,0,25.82a7.35,7.35,0,0,1-2.15-2.33c-11.72-14.89-26.91-24-45.66-26.67A70,70,0,0,0,279,353.66C278.36,355.65,278.33,355.65,276.18,355.65ZM346,434a59.53,59.53,0,0,1-59.61-59.68c0-33.12,26.46-59.42,59.62-59.72A59.7,59.7,0,1,1,346,434Zm30.88-83.07a17.54,17.54,0,0,0,1.58-1.65,5.21,5.21,0,0,0-4.4-8.42,6,6,0,0,0-4.15,2.18q-11,11-22,22c-.58.58-1,1.33-1.86,1.62a7.29,7.29,0,0,1-1.92-1.7q-10.74-10.71-21.46-21.44a13.69,13.69,0,0,0-1.86-1.72,5.05,5.05,0,0,0-5.54-.3,4.94,4.94,0,0,0-2.67,4.6,6,6,0,0,0,2.2,4.41q10.94,10.88,21.81,21.81a5.9,5.9,0,0,1,1.94,2.55,16.9,16.9,0,0,0-1.87,1.44Q325.89,387,315.18,397.74a12.7,12.7,0,0,0-1.72,1.88,5.09,5.09,0,0,0-.24,5.54,4.94,4.94,0,0,0,4.61,2.64c1.88,0,3.16-1,4.39-2.24,7.26-7.29,14.55-14.54,21.8-21.83a29.27,29.27,0,0,0,1.91-2.48c1,1.16,1.47,1.85,2.07,2.45q10.71,10.76,21.44,21.46a17.64,17.64,0,0,0,1.67,1.57,5.22,5.22,0,0,0,7.37-7.27,15.45,15.45,0,0,0-1.57-1.67Q366.2,387,355.47,376.33a7.5,7.5,0,0,1-2-2.47,22.33,22.33,0,0,0,2.1-1.66Q366.21,361.58,376.84,350.93ZM321.43,114.47A18.31,18.31,0,1,0,302.94,96.2C302.65,105.91,310.76,114.45,321.43,114.47Zm-.05-26.13a7.8,7.8,0,1,1-8.06,7.82A8,8,0,0,1,321.38,88.34Zm-26.55,70.14a9.49,9.49,0,0,0,1,1.48,5.33,5.33,0,0,0,5.82,1.44A5.52,5.52,0,0,0,305,156a7.92,7.92,0,0,0-1.16-2.91L290.44,130a11.2,11.2,0,0,0-.94-1.51,5.24,5.24,0,0,0-9,1.59c-.7,1.88-.07,3.47.85,5.06Zm9-5.37L290.44,130a11.2,11.2,0,0,0-.94-1.51,5.24,5.24,0,0,0-9,1.59c-.7,1.88-.07,3.47.85,5.06l13.49,23.34a9.49,9.49,0,0,0,1,1.48,5.33,5.33,0,0,0,5.82,1.44A5.52,5.52,0,0,0,305,156,7.92,7.92,0,0,0,303.81,153.11Zm17.54-75.25A18.15,18.15,0,0,0,302.94,96.2c-.29,9.71,7.82,18.25,18.49,18.27a18.31,18.31,0,0,0-.08-36.61Zm-.22,26.08A7.8,7.8,0,1,1,329,96.28,7.82,7.82,0,0,1,321.13,103.94Zm.22-26.08A18.15,18.15,0,0,0,302.94,96.2c-.29,9.71,7.82,18.25,18.49,18.27a18.31,18.31,0,0,0-.08-36.61Zm-.22,26.08A7.8,7.8,0,1,1,329,96.28,7.82,7.82,0,0,1,321.13,103.94Zm-17.32,49.17L290.44,130a11.2,11.2,0,0,0-.94-1.51,5.24,5.24,0,0,0-9,1.59c-.7,1.88-.07,3.47.85,5.06l13.49,23.34a9.49,9.49,0,0,0,1,1.48,5.33,5.33,0,0,0,5.82,1.44A5.52,5.52,0,0,0,305,156,7.92,7.92,0,0,0,303.81,153.11Z"/><path class="cls-8" d="M177.69,194.15c-.13-3.21,2.35-5.38,6.32-5.38q27.75,0,55.49,0a8.5,8.5,0,0,1,3,.41,5.22,5.22,0,0,1-1.24,10,19.24,19.24,0,0,1-2.28.05h-27.5c-9.16,0-18.33-.12-27.49.06C179.78,199.39,177.79,196.66,177.69,194.15Z"/><path class="cls-8" d="M255.32,236c-.81-7.54-6.14-12.2-13.75-12.24-3,0-5.95.07-8.92.06-2.6,0-3-.33-3.85-2.8-1-2.89-1.87-5.81-2.83-8.7a13,13,0,0,0-5.85-7.44,13.22,13.22,0,0,0-19.27,6.94c-1.09,3-1.95,6.14-2.94,9.21-.83,2.56-1.49,3-4.25,3.07h-4.84v0c-1.7,0-3.4-.06-5.1,0a12.18,12.18,0,0,0-9.1,4.45,13.22,13.22,0,0,0,1.94,19.21c2.55,2,5.23,3.77,7.85,5.66,2.17,1.57,2.37,2.17,1.57,4.73-1,3.08-2,6.14-2.92,9.22a12.62,12.62,0,0,0-.07,7.28,13.27,13.27,0,0,0,20.11,7.38c2.61-1.74,5.07-3.7,7.61-5.55s3-2,5.8,0c2.42,1.74,4.81,3.5,7.24,5.21a12.42,12.42,0,0,0,8.9,2.33c8.73-1.13,13.82-9.17,11.17-17.58-.9-2.83-1.89-5.62-2.82-8.44s-.74-3.2,1.59-4.93c2.53-1.87,5.11-3.67,7.59-5.59A12.28,12.28,0,0,0,255.32,236Zm-11.91,3.57c-2.55,1.83-5.09,3.69-7.62,5.55-5.11,3.79-6.94,9.27-5,15.3,1,3.16,2.14,6.26,3.12,9.42a2.77,2.77,0,0,1-2.71,3.82,4.22,4.22,0,0,1-2.25-1.09c-2.42-1.73-4.81-3.49-7.24-5.21-5.36-3.79-11-3.77-16.29.06-2.55,1.84-5,3.76-7.6,5.57-1.84,1.31-3.65.93-4.53-.79a3,3,0,0,1,0-2.45q1.47-4.47,2.86-9c2-6.29.21-11.61-5.07-15.48-2.47-1.8-5-3.57-7.45-5.34-1.18-.83-2.09-1.78-1.62-3.38s1.36-2.07,3.35-2.11c1.78,0,3.57,0,5.35,0v0c1.53,0,3.06,0,4.59,0A12.68,12.68,0,0,0,207.2,226c1.09-2.93,2-5.95,2.94-8.94.15-.48.28-1,.47-1.44.61-1.51,1.53-2.22,2.8-2.14a2.73,2.73,0,0,1,2.57,2.11c.92,2.82,2,5.58,2.78,8.45A13.57,13.57,0,0,0,233,234.37c2.88-.12,5.78-.08,8.66-.05,1.79,0,2.83.69,3.16,2A2.91,2.91,0,0,1,243.41,239.58Z"/><path class="cls-8" d="M268.39,306.32a9.32,9.32,0,0,0-.37-2.76A10.37,10.37,0,0,0,257.73,296q-22.92,0-45.86,0c-15.37,0-30.74.08-46.11,0-5.95,0-10.87,5.09-10.68,10.62.14,3.73,0,7.47,0,11.21a10.31,10.31,0,0,0,10.52,10.45q46.11,0,92.23,0a10.31,10.31,0,0,0,10.52-10.46C268.43,314,268.4,310.14,268.39,306.32ZM257.9,316.37c0,.93-.27,1.46-1.29,1.38-.42,0-.85,0-1.27,0l-86.87.11c-.51,0-1,0-1.53,0-1,.07-1.35-.41-1.34-1.36,0-2.89,0-5.78,0-8.66,0-1.16.52-1.49,1.55-1.41.51,0,1,0,1.53,0h43.06v-.07h43c.59,0,1.19,0,1.78,0,1-.08,1.34.4,1.33,1.35C257.88,310.6,257.88,313.48,257.9,316.37Z"/><path class="cls-8" d="M315.11,288.23c0,3.14.07,6.29,0,9.43a5.23,5.23,0,0,1-10.46.34c-.12-6.62-.1-13.25,0-19.87a5.09,5.09,0,0,1,5.17-4.94,5.14,5.14,0,0,1,5.27,5.1C315.21,281.6,315.11,284.91,315.11,288.23Z"/><path class="cls-8" d="M304.6,246.34V241c0-4.57-.06-9.15,0-13.73a5.14,5.14,0,0,1,6.27-5.22,5.07,5.07,0,0,1,4.17,4.51,17.51,17.51,0,0,1,.05,2.29q0,12.33,0,24.66c0,.68,0,1.36,0,2a5.22,5.22,0,0,1-5.26,4.84,5.17,5.17,0,0,1-5.21-5.15C304.53,252.28,304.6,249.31,304.6,246.34Z"/><path class="cls-8" d="M364.67,189a23.1,23.1,0,1,0,23.05,23.2A23,23,0,0,0,364.67,189Zm.12,35.72a12.65,12.65,0,1,1,12.43-12.79A12.73,12.73,0,0,1,364.79,224.69Z"/><path class="cls-8" d="M303.81,153.11A7.92,7.92,0,0,1,305,156a5.52,5.52,0,0,1-3.34,5.38,5.33,5.33,0,0,1-5.82-1.44,9.49,9.49,0,0,1-1-1.48l-13.49-23.34c-.92-1.59-1.55-3.18-.85-5.06a5.24,5.24,0,0,1,9-1.59,11.2,11.2,0,0,1,.94,1.51Z"/><path class="cls-8" d="M321.35,77.86A18.15,18.15,0,0,0,302.94,96.2c-.29,9.71,7.82,18.25,18.49,18.27a18.31,18.31,0,0,0-.08-36.61Zm-.22,26.08A7.8,7.8,0,1,1,329,96.28,7.82,7.82,0,0,1,321.13,103.94Z"/><path class="cls-8" d="M378.48,399.46a5.22,5.22,0,0,1-7.37,7.27,17.64,17.64,0,0,1-1.67-1.57Q358.72,394.43,348,383.7c-.6-.6-1.1-1.29-2.07-2.45a29.27,29.27,0,0,1-1.91,2.48c-7.25,7.29-14.54,14.54-21.8,21.83-1.23,1.24-2.51,2.25-4.39,2.24a4.94,4.94,0,0,1-4.61-2.64,5.09,5.09,0,0,1,.24-5.54,12.7,12.7,0,0,1,1.72-1.88Q325.9,387,336.64,376.3a16.9,16.9,0,0,1,1.87-1.44,5.9,5.9,0,0,0-1.94-2.55q-10.89-10.92-21.81-21.81a6,6,0,0,1-2.2-4.41,4.94,4.94,0,0,1,2.67-4.6,5.05,5.05,0,0,1,5.54.3,13.69,13.69,0,0,1,1.86,1.72q10.74,10.73,21.46,21.44a7.29,7.29,0,0,0,1.92,1.7c.82-.29,1.28-1,1.86-1.62q11-11,22-22a6,6,0,0,1,4.15-2.18,5.21,5.21,0,0,1,4.4,8.42,17.54,17.54,0,0,1-1.58,1.65q-10.63,10.65-21.28,21.27a22.33,22.33,0,0,1-2.1,1.66,7.5,7.5,0,0,0,2,2.47q10.71,10.74,21.44,21.46A15.45,15.45,0,0,1,378.48,399.46Z"/><path class="cls-2" d="M255.32,236c-.81-7.54-6.14-12.2-13.75-12.24-3,0-5.95.07-8.92.06-2.6,0-3-.33-3.85-2.8-1-2.89-1.87-5.81-2.83-8.7a13,13,0,0,0-5.85-7.44,13.22,13.22,0,0,0-19.27,6.94c-1.09,3-1.95,6.14-2.94,9.21-.83,2.56-1.49,3-4.25,3.07h-4.84v0c-1.7,0-3.4-.06-5.1,0a12.18,12.18,0,0,0-9.1,4.45,13.22,13.22,0,0,0,1.94,19.21c2.55,2,5.23,3.77,7.85,5.66,2.17,1.57,2.37,2.17,1.57,4.73-1,3.08-2,6.14-2.92,9.22a12.62,12.62,0,0,0-.07,7.28,13.27,13.27,0,0,0,20.11,7.38c2.61-1.74,5.07-3.7,7.61-5.55s3-2,5.8,0c2.42,1.74,4.81,3.5,7.24,5.21a12.42,12.42,0,0,0,8.9,2.33c8.73-1.13,13.82-9.17,11.17-17.58-.9-2.83-1.89-5.62-2.82-8.44s-.74-3.2,1.59-4.93c2.53-1.87,5.11-3.67,7.59-5.59A12.28,12.28,0,0,0,255.32,236Zm-11.91,3.57c-2.55,1.83-5.09,3.69-7.62,5.55-5.11,3.79-6.94,9.27-5,15.3,1,3.16,2.14,6.26,3.12,9.42a2.77,2.77,0,0,1-2.71,3.82,4.22,4.22,0,0,1-2.25-1.09c-2.42-1.73-4.81-3.49-7.24-5.21-5.36-3.79-11-3.77-16.29.06-2.55,1.84-5,3.76-7.6,5.57-1.84,1.31-3.65.93-4.53-.79a3,3,0,0,1,0-2.45q1.47-4.47,2.86-9c2-6.29.21-11.61-5.07-15.48-2.47-1.8-5-3.57-7.45-5.34-1.18-.83-2.09-1.78-1.62-3.38s1.36-2.07,3.35-2.11c1.78,0,3.57,0,5.35,0v0c1.53,0,3.06,0,4.59,0A12.68,12.68,0,0,0,207.2,226c1.09-2.93,2-5.95,2.94-8.94.15-.48.28-1,.47-1.44.61-1.51,1.53-2.22,2.8-2.14a2.73,2.73,0,0,1,2.57,2.11c.92,2.82,2,5.58,2.78,8.45A13.57,13.57,0,0,0,233,234.37c2.88-.12,5.78-.08,8.66-.05,1.79,0,2.83.69,3.16,2A2.91,2.91,0,0,1,243.41,239.58Z"/><path class="cls-3" d="M268.39,306.32a9.32,9.32,0,0,0-.37-2.76A10.37,10.37,0,0,0,257.73,296q-22.92,0-45.86,0c-15.37,0-30.74.08-46.11,0-5.95,0-10.87,5.09-10.68,10.62.14,3.73,0,7.47,0,11.21a10.31,10.31,0,0,0,10.52,10.45q46.11,0,92.23,0a10.31,10.31,0,0,0,10.52-10.46C268.43,314,268.4,310.14,268.39,306.32ZM257.9,316.37c0,.93-.27,1.46-1.29,1.38-.42,0-.85,0-1.27,0l-86.87.11c-.51,0-1,0-1.53,0-1,.07-1.35-.41-1.34-1.36,0-2.89,0-5.78,0-8.66,0-1.16.52-1.49,1.55-1.41.51,0,1,0,1.53,0h43.06v-.07h43c.59,0,1.19,0,1.78,0,1-.08,1.34.4,1.33,1.35C257.88,310.6,257.88,313.48,257.9,316.37Z"/><path class="cls-6" d="M364.67,189a23.1,23.1,0,1,0,23.05,23.2A23,23,0,0,0,364.67,189Zm.12,35.72a12.65,12.65,0,1,1,12.43-12.79A12.73,12.73,0,0,1,364.79,224.69Z"/><path class="cls-1" d="M245.78,194.67a5.3,5.3,0,0,1-4.51,4.53,19.24,19.24,0,0,1-2.28.05h-27.5c-9.16,0-18.33-.12-27.49.06-4.22.08-6.21-2.65-6.31-5.16-.13-3.21,2.35-5.38,6.32-5.38q27.75,0,55.49,0a8.5,8.5,0,0,1,3,.41A5.33,5.33,0,0,1,245.78,194.67Z"/><path class="cls-5" d="M315.09,255.55a5.22,5.22,0,0,1-5.26,4.84,5.17,5.17,0,0,1-5.21-5.15c-.09-3,0-5.93,0-8.9V241c0-4.57-.06-9.15,0-13.73a5.14,5.14,0,0,1,6.27-5.22,5.07,5.07,0,0,1,4.17,4.51,17.51,17.51,0,0,1,.05,2.29q0,12.33,0,24.66C315.11,254.19,315.16,254.87,315.09,255.55Z"/><path class="cls-4" d="M315.11,288.23c0,3.14.07,6.29,0,9.43a5.23,5.23,0,0,1-10.46.34c-.12-6.62-.1-13.25,0-19.87a5.09,5.09,0,0,1,5.17-4.94,5.14,5.14,0,0,1,5.27,5.1C315.21,281.6,315.11,284.91,315.11,288.23Z"/><path class="cls-9" d="M321.35,77.86A18.15,18.15,0,0,0,302.94,96.2c-.29,9.71,7.82,18.25,18.49,18.27a18.31,18.31,0,0,0-.08-36.61Zm-.22,26.08A7.8,7.8,0,1,1,329,96.28,7.82,7.82,0,0,1,321.13,103.94Z"/><path class="cls-10" d="M305,156a5.52,5.52,0,0,1-3.34,5.38,5.33,5.33,0,0,1-5.82-1.44,9.49,9.49,0,0,1-1-1.48l-13.49-23.34c-.92-1.59-1.55-3.18-.85-5.06a5.24,5.24,0,0,1,9-1.59,11.2,11.2,0,0,1,.94,1.51l13.37,23.11A7.92,7.92,0,0,1,305,156Z"/><path class="cls-11" d="M378.48,399.46a5.22,5.22,0,0,1-7.37,7.27,17.64,17.64,0,0,1-1.67-1.57Q358.72,394.43,348,383.7c-.6-.6-1.1-1.29-2.07-2.45a29.27,29.27,0,0,1-1.91,2.48c-7.25,7.29-14.54,14.54-21.8,21.83-1.23,1.24-2.51,2.25-4.39,2.24a4.94,4.94,0,0,1-4.61-2.64,5.09,5.09,0,0,1,.24-5.54,12.7,12.7,0,0,1,1.72-1.88Q325.9,387,336.64,376.3a16.9,16.9,0,0,1,1.87-1.44,5.9,5.9,0,0,0-1.94-2.55q-10.89-10.92-21.81-21.81a6,6,0,0,1-2.2-4.41,4.94,4.94,0,0,1,2.67-4.6,5.05,5.05,0,0,1,5.54.3,13.69,13.69,0,0,1,1.86,1.72q10.74,10.73,21.46,21.44a7.29,7.29,0,0,0,1.92,1.7c.82-.29,1.28-1,1.86-1.62q11-11,22-22a6,6,0,0,1,4.15-2.18,5.21,5.21,0,0,1,4.4,8.42,17.54,17.54,0,0,1-1.58,1.65q-10.63,10.65-21.28,21.27a22.33,22.33,0,0,1-2.1,1.66,7.5,7.5,0,0,0,2,2.47q10.71,10.74,21.44,21.46A15.45,15.45,0,0,1,378.48,399.46Z"/></svg>