<svg id="Layer_1" data-name="Layer 1" xmlns="http://www.w3.org/2000/svg" xmlns:xlink="http://www.w3.org/1999/xlink" viewBox="0 0 500 500"><defs><style>.cls-1{fill:url(#linear-gradient);}.cls-2{fill:url(#linear-gradient-2);}.cls-3{fill:url(#linear-gradient-3);}.cls-4{fill:url(#linear-gradient-4);}.cls-5{fill:url(#linear-gradient-5);}.cls-6{fill:#fff;}.cls-7{fill:url(#linear-gradient-6);}.cls-8{fill:url(#linear-gradient-7);}.cls-9{fill:url(#linear-gradient-8);}.cls-10{fill:url(#linear-gradient-9);}.cls-11{fill:url(#linear-gradient-10);}</style><linearGradient id="linear-gradient" x1="175.69" y1="328.67" x2="175.69" y2="354.49" gradientUnits="userSpaceOnUse"><stop offset="0" stop-color="#5882ca"/><stop offset="0.38" stop-color="#bf4da5"/><stop offset="0.88" stop-color="#e17032"/></linearGradient><linearGradient id="linear-gradient-2" x1="175.69" y1="249.49" x2="175.69" y2="275.31" xlink:href="#linear-gradient"/><linearGradient id="linear-gradient-3" x1="175.68" y1="289.12" x2="175.68" y2="314.97" xlink:href="#linear-gradient"/><linearGradient id="linear-gradient-4" x1="210.03" y1="118.28" x2="210.03" y2="261.08" xlink:href="#linear-gradient"/><linearGradient id="linear-gradient-5" x1="250" y1="72.4" x2="250" y2="511.24" xlink:href="#linear-gradient"/><linearGradient id="linear-gradient-6" x1="210.03" y1="121.09" x2="210.03" y2="231.05" gradientUnits="userSpaceOnUse"><stop offset="0" stop-color="#5882ca"/><stop offset="0.48" stop-color="#bf4da5"/><stop offset="0.97" stop-color="#e17032"/></linearGradient><linearGradient id="linear-gradient-7" x1="175.69" y1="329.17" x2="175.69" y2="349.06" xlink:href="#linear-gradient-6"/><linearGradient id="linear-gradient-8" x1="175.68" y1="289.63" x2="175.68" y2="309.53" xlink:href="#linear-gradient-6"/><linearGradient id="linear-gradient-9" x1="175.69" y1="250" x2="175.69" y2="269.89" xlink:href="#linear-gradient-6"/><linearGradient id="linear-gradient-10" x1="297.94" y1="292.39" x2="297.94" y2="342.44" xlink:href="#linear-gradient-6"/></defs><path class="cls-1" d="M210.19,341.19A9.65,9.65,0,0,1,201.1,349q-25.38.15-50.75,0c-5.29,0-9.37-4.66-9.36-9.93a9.68,9.68,0,0,1,9.45-9.8c8.41-.14,16.82,0,25.24,0v0h24.14a10.84,10.84,0,0,1,5.05,1A10,10,0,0,1,210.19,341.19Z"/><path class="cls-2" d="M141.05,259.31a9.8,9.8,0,0,1,9.75-9.26c8.33-.09,16.66,0,25,0h23.89a11.54,11.54,0,0,1,4.31.59,10,10,0,0,1-2.78,19.22c-.72.07-1.46,0-2.19,0H152.34a16.74,16.74,0,0,1-3-.2A9.9,9.9,0,0,1,141.05,259.31Z"/><path class="cls-3" d="M141.06,298.51a9.71,9.71,0,0,1,9.31-8.79c6.12-.16,12.25-.06,18.38-.07h30.44a14,14,0,0,1,4.08.37,10,10,0,0,1-1.8,19.44,22.5,22.5,0,0,1-2.47.07H152.38a14.37,14.37,0,0,1-4.07-.41A9.93,9.93,0,0,1,141.06,298.51Z"/><path class="cls-4" d="M221.94,218.09c-1.7.63-2.49,1.42-2.5,3.47,0,4.14-2.28,7.11-6.06,8.68a9.49,9.49,0,0,1-10.47-1.88,8.67,8.67,0,0,1-3.13-6.48c0-1.55-.45-2.17-2-2.56a36.34,36.34,0,0,1-12-5.16,9.75,9.75,0,0,1-4.35-10.2,9.91,9.91,0,0,1,8.1-7.94,10.18,10.18,0,0,1,7.32,1.62,22.49,22.49,0,0,0,13.66,3.17,9.09,9.09,0,0,0,7.93-5.49,6,6,0,0,0-1.06-7.12,16.37,16.37,0,0,0-4.89-3.47c-2.86-1.45-5.88-2.49-8.83-3.71a48.22,48.22,0,0,1-9.91-5.25c-16.58-12-12.1-34.55,3.69-42.3,1.48-.73,2.38-1.33,2.45-3.3a9.58,9.58,0,0,1,9.56-9.08,9.68,9.68,0,0,1,10,8.61,2.69,2.69,0,0,0,2.24,2.8,23.82,23.82,0,0,1,8.94,5.19,9.61,9.61,0,0,1,3.32,7.55,9.91,9.91,0,0,1-16.1,7.64,11.79,11.79,0,0,0-10.35-2.08,5.53,5.53,0,0,0-3.16,2c-1.84,2.33-1.61,4.58.67,6.49a21.12,21.12,0,0,0,5.52,3c3.45,1.44,7,2.71,10.34,4.36a36.18,36.18,0,0,1,10.51,7.36c11.42,11.87,9.7,30.58-3.74,40.71A22.73,22.73,0,0,1,221.94,218.09Z"/><path class="cls-5" d="M322.82,317.57h0c0-5.21.14-10.42,0-15.63A9.81,9.81,0,0,0,309.54,293a9.7,9.7,0,0,0-6.57,9.46c-.05,6,0,12.07,0,18.1,0,1.92,0,2-2,2-4.48,0-9,0-13.44,0a57.48,57.48,0,0,0-6,.15,9.73,9.73,0,0,0-8.4,10.93c.76,5.31,4.69,8.74,10.21,8.76,9.5,0,19-.16,28.51.07,6.24.14,11.26-4.4,11-10.88C322.68,326.9,322.82,322.24,322.82,317.57Zm0,0h0c0-5.21.14-10.42,0-15.63A9.81,9.81,0,0,0,309.54,293a9.7,9.7,0,0,0-6.57,9.46c-.05,6,0,12.07,0,18.1,0,1.92,0,2-2,2-4.48,0-9,0-13.44,0a57.48,57.48,0,0,0-6,.15,9.73,9.73,0,0,0-8.4,10.93c.76,5.31,4.69,8.74,10.21,8.76,9.5,0,19-.16,28.51.07,6.24.14,11.26-4.4,11-10.88C322.68,326.9,322.82,322.24,322.82,317.57Zm-1.68-76.14c-1.87-.24-1.92-.24-1.92-2.17,0-5.22,0-10.43,0-15.65,0-3.1,0-3.11,3-3.11,21.87,0,43.74-.1,65.61.06,7.16.06,11.37-5.11,11.33-11.2-.19-26-.09-52-.08-78a53.51,53.51,0,0,0-.39-6.57A49.76,49.76,0,0,0,349.35,81H150a45.75,45.75,0,0,0-22.87,5.77c-17.31,9.8-26.26,24.75-26.27,44.68q-.11,137.83,0,275.67c0,.73,0,1.47,0,2.2a9.75,9.75,0,0,0,7,8.9,9.54,9.54,0,0,0,10.26-2.76c3.75-3.88,7.51-7.76,11.2-11.7,1-1,1.54-1.14,2.59-.06,3.69,3.82,7.61,7.41,11.2,11.31a10.32,10.32,0,0,0,15.69.06c3.37-3.62,7-7,10.46-10.51,1.38-1.36,1.41-1.36,2.74-.05,3.51,3.47,7.12,6.86,10.49,10.47,4.79,5.14,11.55,4.59,15.7.13,3.86-4.14,8-8,12.4-12.31,4.19,4.28,8.21,8.28,12.1,12.4a10.25,10.25,0,0,0,15.29.06c4.48-4.71,9.2-9.18,13.83-13.74,2.16-2.12,2.16-2.07,4.52-.36,22,15.91,46.26,21.31,72.74,15.48a89.08,89.08,0,0,0-7.92-175.25Zm-1.9-110.19c.21-13.06,6.32-22.61,18.23-27.91,18-8,38.88,4,41.43,23.48a41.64,41.64,0,0,1,.36,5.47q0,32.4,0,64.8v.83c0,2.64.41,2.69-2.66,2.69H322c-2.93,0-2.74.15-2.74-2.91V163.37C319.21,152.66,319.07,142,319.24,131.24ZM238.5,386.77c-2.66,2.63-5.33,5.25-8.32,8.19L218,382.55a10.42,10.42,0,0,0-5.86-3.3,9.92,9.92,0,0,0-9,2.9q-5.34,5.34-10.71,10.64c-.64.64-1.32,1.23-2.1,1.94-4.18-4.15-8.27-8.19-12.34-12.25a10.14,10.14,0,0,0-6.49-3.2,9.92,9.92,0,0,0-8.18,3.08L152.66,393c-.51.51-1,1-1.71,1.64L147.22,391c-3.11-3.11-6.18-6.25-9.33-9.31-4.7-4.56-10.46-4.47-15,.17-.56.56-1.14,1.09-2.12,2v-253a29.65,29.65,0,0,1,29.68-29.95q78.39-.06,156.79,0h1.6c.31,1-.45,1.41-.82,2a50.17,50.17,0,0,0-8.65,28.7q0,53.55,0,107.1c0,2.54,0,2.55-2.55,2.94-16.65,2.51-31.62,8.87-44.45,19.86A88.16,88.16,0,0,0,221.7,316c-4,24.93,1.84,47.54,17,67.75C239.94,385.4,240.2,385.08,238.5,386.77Zm71,12.28a69.23,69.23,0,1,1,.09-138.45c37.76-.21,69.38,31,69.2,69.65C378.65,368,347.52,399.07,309.54,399.05Zm13.28-81.48h0c0-5.21.14-10.42,0-15.63A9.81,9.81,0,0,0,309.54,293a9.7,9.7,0,0,0-6.57,9.46c-.05,6,0,12.07,0,18.1,0,1.92,0,2-2,2-4.48,0-9,0-13.44,0a57.48,57.48,0,0,0-6,.15,9.73,9.73,0,0,0-8.4,10.93c.76,5.31,4.69,8.74,10.21,8.76,9.5,0,19-.16,28.51.07,6.24.14,11.26-4.4,11-10.88C322.68,326.9,322.82,322.24,322.82,317.57Zm0,0h0c0-5.21.14-10.42,0-15.63A9.81,9.81,0,0,0,309.54,293a9.7,9.7,0,0,0-6.57,9.46c-.05,6,0,12.07,0,18.1,0,1.92,0,2-2,2-4.48,0-9,0-13.44,0a57.48,57.48,0,0,0-6,.15,9.73,9.73,0,0,0-8.4,10.93c.76,5.31,4.69,8.74,10.21,8.76,9.5,0,19-.16,28.51.07,6.24.14,11.26-4.4,11-10.88C322.68,326.9,322.82,322.24,322.82,317.57Zm0,0h0c0-5.21.14-10.42,0-15.63A9.81,9.81,0,0,0,309.54,293a9.7,9.7,0,0,0-6.57,9.46c-.05,6,0,12.07,0,18.1,0,1.92,0,2-2,2-4.48,0-9,0-13.44,0a57.48,57.48,0,0,0-6,.15,9.73,9.73,0,0,0-8.4,10.93c.76,5.31,4.69,8.74,10.21,8.76,9.5,0,19-.16,28.51.07,6.24.14,11.26-4.4,11-10.88C322.68,326.9,322.82,322.24,322.82,317.57Z"/><path class="cls-6" d="M210.19,341.19A9.65,9.65,0,0,1,201.1,349q-25.38.15-50.75,0c-5.29,0-9.37-4.66-9.36-9.93a9.68,9.68,0,0,1,9.45-9.8c8.41-.14,16.82,0,25.24,0v0h24.14a10.84,10.84,0,0,1,5.05,1A10,10,0,0,1,210.19,341.19Z"/><path class="cls-6" d="M141.05,259.31a9.8,9.8,0,0,1,9.75-9.26c8.33-.09,16.66,0,25,0h23.89a11.54,11.54,0,0,1,4.31.59,10,10,0,0,1-2.78,19.22c-.72.07-1.46,0-2.19,0H152.34a16.74,16.74,0,0,1-3-.2A9.9,9.9,0,0,1,141.05,259.31Z"/><path class="cls-6" d="M141.06,298.51a9.71,9.71,0,0,1,9.31-8.79c6.12-.16,12.25-.06,18.38-.07h30.44a14,14,0,0,1,4.08.37,10,10,0,0,1-1.8,19.44,22.5,22.5,0,0,1-2.47.07H152.38a14.37,14.37,0,0,1-4.07-.41A9.93,9.93,0,0,1,141.06,298.51Z"/><path class="cls-6" d="M227.6,214.77a22.73,22.73,0,0,1-5.66,3.32c-1.7.63-2.49,1.42-2.5,3.47,0,4.14-2.28,7.11-6.06,8.68a9.49,9.49,0,0,1-10.47-1.88,8.67,8.67,0,0,1-3.13-6.48c0-1.55-.45-2.17-2-2.56a36.34,36.34,0,0,1-12-5.16,9.75,9.75,0,0,1-4.35-10.2,9.91,9.91,0,0,1,8.1-7.94,10.18,10.18,0,0,1,7.32,1.62,22.49,22.49,0,0,0,13.66,3.17,9.09,9.09,0,0,0,7.93-5.49,6,6,0,0,0-1.06-7.12,16.37,16.37,0,0,0-4.89-3.47c-2.86-1.45-5.88-2.49-8.83-3.71a48.22,48.22,0,0,1-9.91-5.25c-16.58-12-12.1-34.55,3.69-42.3,1.48-.73,2.38-1.33,2.45-3.3a9.58,9.58,0,0,1,9.56-9.08,9.68,9.68,0,0,1,10,8.61,2.69,2.69,0,0,0,2.24,2.8,23.82,23.82,0,0,1,8.94,5.19,9.61,9.61,0,0,1,3.32,7.55,9.91,9.91,0,0,1-16.1,7.64,11.79,11.79,0,0,0-10.35-2.08,5.53,5.53,0,0,0-3.16,2c-1.84,2.33-1.61,4.58.67,6.49a21.12,21.12,0,0,0,5.52,3c3.45,1.44,7,2.71,10.34,4.36a36.18,36.18,0,0,1,10.51,7.36C242.76,185.93,241,204.64,227.6,214.77Z"/><path class="cls-6" d="M322.85,331.56c.24,6.48-4.78,11-11,10.88-9.5-.23-19,0-28.51-.07-5.52,0-9.45-3.45-10.21-8.76a9.73,9.73,0,0,1,8.4-10.93,57.48,57.48,0,0,1,6-.15c4.48,0,9,0,13.44,0,1.94,0,2,0,2-2,0-6,0-12.06,0-18.1a9.7,9.7,0,0,1,6.57-9.46,9.81,9.81,0,0,1,13.22,8.95c.17,5.21,0,10.42,0,15.63h0C322.82,322.24,322.68,326.9,322.85,331.56Z"/><path class="cls-7" d="M227.6,214.77a22.73,22.73,0,0,1-5.66,3.32c-1.7.63-2.49,1.42-2.5,3.47,0,4.14-2.28,7.11-6.06,8.68a9.49,9.49,0,0,1-10.47-1.88,8.67,8.67,0,0,1-3.13-6.48c0-1.55-.45-2.17-2-2.56a36.34,36.34,0,0,1-12-5.16,9.75,9.75,0,0,1-4.35-10.2,9.91,9.91,0,0,1,8.1-7.94,10.18,10.18,0,0,1,7.32,1.62,22.49,22.49,0,0,0,13.66,3.17,9.09,9.09,0,0,0,7.93-5.49,6,6,0,0,0-1.06-7.12,16.37,16.37,0,0,0-4.89-3.47c-2.86-1.45-5.88-2.49-8.83-3.71a48.22,48.22,0,0,1-9.91-5.25c-16.58-12-12.1-34.55,3.69-42.3,1.48-.73,2.38-1.33,2.45-3.3a9.58,9.58,0,0,1,9.56-9.08,9.68,9.68,0,0,1,10,8.61,2.69,2.69,0,0,0,2.24,2.8,23.82,23.82,0,0,1,8.94,5.19,9.61,9.61,0,0,1,3.32,7.55,9.91,9.91,0,0,1-16.1,7.64,11.79,11.79,0,0,0-10.35-2.08,5.53,5.53,0,0,0-3.16,2c-1.84,2.33-1.61,4.58.67,6.49a21.12,21.12,0,0,0,5.52,3c3.45,1.44,7,2.71,10.34,4.36a36.18,36.18,0,0,1,10.51,7.36C242.76,185.93,241,204.64,227.6,214.77Z"/><path class="cls-8" d="M210.19,341.19A9.65,9.65,0,0,1,201.1,349q-25.38.15-50.75,0c-5.29,0-9.37-4.66-9.36-9.93a9.68,9.68,0,0,1,9.45-9.8c8.41-.14,16.82,0,25.24,0v0h24.14a10.84,10.84,0,0,1,5.05,1A10,10,0,0,1,210.19,341.19Z"/><path class="cls-9" d="M210.3,300.75a9.85,9.85,0,0,1-8.83,8.71,22.5,22.5,0,0,1-2.47.07H152.38a14.37,14.37,0,0,1-4.07-.41,9.93,9.93,0,0,1-7.25-10.61,9.71,9.71,0,0,1,9.31-8.79c6.12-.16,12.25-.06,18.38-.07h30.44a14,14,0,0,1,4.08.37A9.85,9.85,0,0,1,210.3,300.75Z"/><path class="cls-10" d="M210.27,261.33a9.89,9.89,0,0,1-9.06,8.51c-.72.07-1.46,0-2.19,0H152.34a16.74,16.74,0,0,1-3-.2,9.9,9.9,0,0,1-8.28-10.36,9.8,9.8,0,0,1,9.75-9.26c8.33-.09,16.66,0,25,0h23.89a11.54,11.54,0,0,1,4.31.59A9.81,9.81,0,0,1,210.27,261.33Z"/><path class="cls-11" d="M322.85,331.56c.24,6.48-4.78,11-11,10.88-9.5-.23-19,0-28.51-.07-5.52,0-9.45-3.45-10.21-8.76a9.73,9.73,0,0,1,8.4-10.93,57.48,57.48,0,0,1,6-.15c4.48,0,9,0,13.44,0,1.94,0,2,0,2-2,0-6,0-12.06,0-18.1a9.7,9.7,0,0,1,6.57-9.46,9.81,9.81,0,0,1,13.22,8.95c.17,5.21,0,10.42,0,15.63h0C322.82,322.24,322.68,326.9,322.85,331.56Z"/></svg>