<svg id="Layer_1" data-name="Layer 1" xmlns="http://www.w3.org/2000/svg" xmlns:xlink="http://www.w3.org/1999/xlink" viewBox="0 0 500 500"><defs><style>.cls-1{fill:url(#linear-gradient);}.cls-2{fill:url(#linear-gradient-2);}.cls-3{fill:url(#linear-gradient-3);}.cls-4{fill:url(#linear-gradient-4);}.cls-5{fill:url(#linear-gradient-5);}</style><linearGradient id="linear-gradient" x1="183.37" y1="91.32" x2="346.78" y2="374.36" gradientUnits="userSpaceOnUse"><stop offset="0" stop-color="#5882ca"/><stop offset="0.48" stop-color="#bf4da5"/><stop offset="1" stop-color="#e17032"/></linearGradient><linearGradient id="linear-gradient-2" x1="188.99" y1="163.14" x2="258.17" y2="282.98" xlink:href="#linear-gradient"/><linearGradient id="linear-gradient-3" x1="364.88" y1="335.28" x2="380.65" y2="362.59" xlink:href="#linear-gradient"/><linearGradient id="linear-gradient-4" x1="393.57" y1="274.37" x2="411.69" y2="305.76" xlink:href="#linear-gradient"/><linearGradient id="linear-gradient-5" x1="314.31" y1="378.57" x2="328.04" y2="402.36" xlink:href="#linear-gradient"/></defs><path class="cls-1" d="M393.54,157.56a6.51,6.51,0,0,0,.34-3.16q0-16.23,0-32.45a13.23,13.23,0,0,1,3.91-10,12.71,12.71,0,0,1,14.13-3.09c5.3,1.94,8.14,5.93,8.64,11.57a8.46,8.46,0,0,1,.05.87c0,13.91.25,27.82-.14,41.72-.56,20-16.47,37.12-36.32,39.85a50.34,50.34,0,0,1-6.93.48c-13.23,0-26.47,0-39.7,0-5.9,0-10.22-2.8-12.56-8.17a13.21,13.21,0,0,1,12-18.49c10.92-.14,21.83,0,32.75,0h3.56c.23-1.24-.64-2-1.16-2.83A144.23,144.23,0,0,0,260,106.46c-71.61-5.16-135,43.75-150.41,111.75C92.4,294.4,139.18,370.48,215.14,389.59a140.1,140.1,0,0,0,43.07,4.07c1.64-.1,3.28-.12,4.92-.25a13.36,13.36,0,0,1,1.73,26.66,169.59,169.59,0,0,1-29.81-.05,172.52,172.52,0,0,1-51.19-12.6c-50.15-20.83-88.35-66.3-100.27-119.29a171.79,171.79,0,0,1-3.82-50.63c4.66-63.43,42.53-113.37,91.35-138.95a168.11,168.11,0,0,1,57.4-17.91,171.14,171.14,0,0,1,163.22,74.27Z"/><path class="cls-2" d="M263.37,196.78c0,17.19-.06,34.37.05,51.56a16,16,0,0,1-5,12.15Q232.74,286,207.23,311.67c-4,4-8.66,5.41-14,3.81a13.28,13.28,0,0,1-6.76-20.66,24.6,24.6,0,0,1,2.54-2.77q22.82-22.85,45.69-45.65a6.09,6.09,0,0,0,2-4.77q-.09-48.66-.07-97.31a14.41,14.41,0,0,1,2.65-9,13.36,13.36,0,0,1,24,7c.06,1,0,1.93,0,2.9Q263.39,171,263.37,196.78Z"/><path class="cls-3" d="M367.13,367.43a13.37,13.37,0,0,1-9.34-21.17c2.86-3.87,5.94-7.59,9.08-11.24A13.34,13.34,0,0,1,388,351.29a104.73,104.73,0,0,1-9.83,12.12C375.51,366.21,372.16,367.54,367.13,367.43Z"/><path class="cls-4" d="M417.66,284.14a15.07,15.07,0,0,1-.23,2.3,137.32,137.32,0,0,1-3.8,14.22,12.84,12.84,0,0,1-10.67,9,13.26,13.26,0,0,1-15.19-15c.3-1.8.92-3.54,1.37-5.31.78-3.08,1.5-6.17,2.33-9.24a13.36,13.36,0,0,1,14.2-9.84C412.74,271.17,417.65,276.61,417.66,284.14Z"/><path class="cls-5" d="M340.57,388.68a12.23,12.23,0,0,1-6.25,10,92.16,92.16,0,0,1-14.18,7.12,13.33,13.33,0,0,1-10.77-24.36c4-2,7.9-4,11.86-6C330.22,371,340.52,377.38,340.57,388.68Z"/></svg>