<svg width="128" height="128" viewBox="0 0 128 128" fill="none" xmlns="http://www.w3.org/2000/svg">
<path d="M111.303 56.3105C113.701 53.3538 115.14 49.5911 115.14 45.4969C115.14 36.0123 107.424 28.2959 97.9394 28.2959C88.455 28.2959 80.7386 36.0123 80.7386 45.4969C80.7386 49.5936 82.1805 53.3583 84.5803 56.316C82.3082 57.0404 80.1512 58.1015 78.1858 59.463C75.0828 54.9457 69.8825 51.9761 64 51.9761C58.1175 51.9761 52.9174 54.9457 49.8142 59.463C47.8488 58.1013 45.6918 57.0404 43.4197 56.316C45.8195 53.3583 47.2614 49.5936 47.2614 45.4969C47.2614 36.0123 39.545 28.2959 30.0606 28.2959C20.576 28.2959 12.8596 36.0123 12.8596 45.4969C12.8596 49.5911 14.2997 53.3536 16.6968 56.3105C7.02474 59.3956 0 68.4662 0 79.1477V100.44C0 102.515 1.68235 104.198 3.75749 104.198H33.9401V124.12C33.9401 126.195 35.6225 127.877 37.6976 127.877H90.3024C92.3775 127.877 94.0599 126.195 94.0599 124.12V104.198H124.243C126.318 104.198 128 102.515 128 100.44V79.1477C128 68.4662 120.975 59.3956 111.303 56.3105ZM97.9396 35.8109C103.281 35.8109 107.626 40.156 107.626 45.4969C107.626 50.8343 103.286 55.1772 97.9494 55.1825H97.9301C92.5937 55.1772 88.2541 50.8343 88.2541 45.4969C88.2538 40.156 92.5987 35.8109 97.9396 35.8109ZM64 59.491C69.3777 59.491 73.7589 63.9021 73.6825 69.3196C73.6044 74.6144 69.2748 78.8629 64 78.8629C58.6418 78.8629 54.314 74.4919 54.314 69.1771C54.314 63.9073 58.5947 59.491 64 59.491ZM30.0606 35.8109C35.4013 35.8109 39.7464 40.156 39.7464 45.4969C39.7464 50.8343 35.4065 55.1772 30.0704 55.1825H30.0511C24.7145 55.1772 20.3748 50.8343 20.3748 45.4969C20.3746 40.156 24.7197 35.8109 30.0606 35.8109ZM7.51497 79.1477C7.51497 70.0769 14.8944 62.6974 23.9652 62.6974H36.157C40.1405 62.6974 43.9899 64.1573 46.9691 66.753C46.2965 71.499 47.6484 76.3093 50.6254 79.9911C42.8388 82.4728 36.8191 88.8145 34.738 96.6826H23.5444V82.6204C23.5444 80.5452 21.8621 78.8629 19.7869 78.8629C17.7118 78.8629 16.0294 80.5452 16.0294 82.6204V96.6826H7.51497V79.1477ZM86.5449 120.362H79.0299V109.257C79.0299 107.182 77.3476 105.499 75.2725 105.499C73.1973 105.499 71.515 107.182 71.515 109.257V120.362H56.485V109.257C56.485 107.182 54.8027 105.499 52.7275 105.499C50.6524 105.499 48.9701 107.182 48.9701 109.257V120.362H41.4551V102.827C41.4551 93.7929 48.8042 86.3779 57.9046 86.3779H70.0954C79.1835 86.3779 86.5449 93.7796 86.5449 102.827V120.362ZM120.485 96.6826H111.971V82.6204C111.971 80.5452 110.288 78.8629 108.213 78.8629C106.138 78.8629 104.456 80.5452 104.456 82.6204V96.6826H93.262C91.1947 88.8663 85.212 82.4891 77.3746 79.9911C80.2476 76.4378 81.7263 71.6605 81.0309 66.753C84.0104 64.1573 87.8595 62.6974 91.843 62.6974H104.035C113.106 62.6974 120.485 70.0769 120.485 79.1477V96.6826Z" fill="url(#paint0_linear_94_8)"/>
<path d="M43.7081 19.1637C44.5665 21.0525 46.794 21.8886 48.6835 21.0294C50.5727 20.1707 51.4082 17.9433 50.5492 16.054L45.5392 5.03204C44.6802 3.14278 42.4523 2.30711 40.5638 3.16633C38.6745 4.02504 37.8391 6.25247 38.6981 8.14174L43.7081 19.1637Z" fill="url(#paint1_linear_94_8)"/>
<path d="M79.3165 21.0293C81.208 21.8888 83.4342 21.0508 84.2919 19.1636L89.3019 8.14163C90.1608 6.25237 89.3254 4.02468 87.4362 3.16622C85.5466 2.30726 83.3192 3.14267 82.4607 5.03193L77.4508 16.0539C76.5918 17.9432 77.4272 20.1706 79.3165 21.0293Z" fill="url(#paint2_linear_94_8)"/>
<path d="M64 18.6179C66.0752 18.6179 67.7575 16.9355 67.7575 14.8604V3.88029C67.7575 1.80515 66.0752 0.122803 64 0.122803C61.9249 0.122803 60.2426 1.80515 60.2426 3.88029V14.8604C60.2426 16.9355 61.9249 18.6179 64 18.6179Z" fill="url(#paint3_linear_94_8)"/>
<defs>
<linearGradient id="paint0_linear_94_8" x1="64" y1="28.2959" x2="64" y2="127.877" gradientUnits="userSpaceOnUse">
<stop stop-color="#344054"/>
<stop offset="0.490385" stop-color="#344054"/>
<stop offset="1" stop-color="#344054"/>
</linearGradient>
<linearGradient id="paint1_linear_94_8" x1="44.6236" y1="2.82837" x2="44.6236" y2="21.3673" gradientUnits="userSpaceOnUse">
<stop stop-color="#344054"/>
<stop offset="0.490385" stop-color="#344054"/>
<stop offset="1" stop-color="#344054"/>
</linearGradient>
<linearGradient id="paint2_linear_94_8" x1="83.3763" y1="2.82837" x2="83.3763" y2="21.3671" gradientUnits="userSpaceOnUse">
<stop stop-color="#344054"/>
<stop offset="0.490385" stop-color="#344054"/>
<stop offset="1" stop-color="#344054"/>
</linearGradient>
<linearGradient id="paint3_linear_94_8" x1="64" y1="0.122803" x2="64" y2="18.6179" gradientUnits="userSpaceOnUse">
<stop stop-color="#344054"/>
<stop offset="0.490385" stop-color="#344054"/>
<stop offset="1" stop-color="#344054"/>
</linearGradient>
</defs>
</svg>
