<svg width="472" height="158" viewBox="0 0 472 158" fill="none" xmlns="http://www.w3.org/2000/svg">
<g clip-path="url(#clip0_69_2)">
<path d="M222.614 41.7014H205.737C204.282 41.7014 203.103 42.8808 203.103 44.3357V59.7812C203.103 61.2361 204.282 62.4155 205.737 62.4155H222.614C224.069 62.4155 225.248 61.2361 225.248 59.7812V44.3357C225.248 42.8808 224.069 41.7014 222.614 41.7014Z" fill="url(#paint0_linear_69_2)" stroke="url(#paint1_linear_69_2)" stroke-width="0.752667"/>
<path d="M266.263 41.7014H249.386C247.931 41.7014 246.752 42.8808 246.752 44.3357V59.7812C246.752 61.2361 247.931 62.4155 249.386 62.4155H266.263C267.718 62.4155 268.897 61.2361 268.897 59.7812V44.3357C268.897 42.8808 267.718 41.7014 266.263 41.7014Z" fill="url(#paint2_linear_69_2)" stroke="url(#paint3_linear_69_2)" stroke-width="0.752667"/>
<path d="M277.712 98.2302H260.835C259.38 98.2302 258.201 99.4097 258.201 100.865V116.31C258.201 117.765 259.38 118.944 260.835 118.944H277.712C279.167 118.944 280.346 117.765 280.346 116.31V100.865C280.346 99.4097 279.167 98.2302 277.712 98.2302Z" fill="url(#paint4_linear_69_2)" stroke="url(#paint5_linear_69_2)" stroke-width="0.752667"/>
<path d="M211.165 98.2302H194.288C192.833 98.2302 191.654 99.4097 191.654 100.865V116.31C191.654 117.765 192.833 118.944 194.288 118.944H211.165C212.62 118.944 213.799 117.765 213.799 116.31V100.865C213.799 99.4097 212.62 98.2302 211.165 98.2302Z" fill="url(#paint6_linear_69_2)" stroke="url(#paint7_linear_69_2)" stroke-width="0.752667"/>
<path d="M262.327 82.8469H210.03C208.575 82.8469 207.396 84.0264 207.396 85.4813V100.927C207.396 102.382 208.575 103.561 210.03 103.561H262.327C263.782 103.561 264.961 102.382 264.961 100.927V85.4813C264.961 84.0264 263.782 82.8469 262.327 82.8469Z" fill="url(#paint8_linear_69_2)" stroke="url(#paint9_linear_69_2)" stroke-width="0.752667"/>
<path d="M291.231 15.167H180.769C165.305 15.167 152.769 27.703 152.769 43.167V117.478C152.769 132.942 165.305 145.478 180.769 145.478H291.231C306.695 145.478 319.231 132.942 319.231 117.478V43.167C319.231 27.703 306.695 15.167 291.231 15.167Z" stroke="url(#paint10_linear_69_2)" stroke-width="24"/>
<path d="M26.4033 0.522461H6.30324C2.84444 0.522461 0.0405273 3.32637 0.0405273 6.78517V71.8555C0.0405273 75.3143 2.84444 78.1182 6.30324 78.1182H26.4033C29.8621 78.1182 32.666 75.3143 32.666 71.8555V6.78517C32.666 3.32637 29.8621 0.522461 26.4033 0.522461Z" fill="url(#paint11_linear_69_2)"/>
<path d="M26.4033 0.522461H6.30324C2.84444 0.522461 0.0405273 3.32637 0.0405273 6.78517V71.8555C0.0405273 75.3143 2.84444 78.1182 6.30324 78.1182H26.4033C29.8621 78.1182 32.666 75.3143 32.666 71.8555V6.78517C32.666 3.32637 29.8621 0.522461 26.4033 0.522461Z" stroke="url(#paint12_linear_69_2)"/>
<path d="M102.235 3.16748H82.1353C78.6765 3.16748 75.8726 5.97139 75.8726 9.43019V151.215C75.8726 154.674 78.6765 157.477 82.1353 157.477H102.235C105.694 157.477 108.498 154.674 108.498 151.215V9.43019C108.498 5.97139 105.694 3.16748 102.235 3.16748Z" fill="url(#paint13_linear_69_2)"/>
<path d="M102.235 3.16748H82.1353C78.6765 3.16748 75.8726 5.97139 75.8726 9.43019V151.215C75.8726 154.674 78.6765 157.477 82.1353 157.477H102.235C105.694 157.477 108.498 154.674 108.498 151.215V9.43019C108.498 5.97139 105.694 3.16748 102.235 3.16748Z" stroke="url(#paint14_linear_69_2)"/>
<path d="M16.7939 64.9814V85.0815C16.7939 88.5403 19.5979 91.3442 23.0567 91.3442H88.1269C91.5857 91.3442 94.3896 88.5403 94.3896 85.0815V64.9814C94.3896 61.5226 91.5857 58.7187 88.1269 58.7187L23.0567 58.7187C19.5979 58.7187 16.7939 61.5226 16.7939 64.9814Z" fill="url(#paint15_linear_69_2)"/>
<path d="M16.7939 64.9814V85.0815C16.7939 88.5403 19.5979 91.3442 23.0567 91.3442H88.1269C91.5857 91.3442 94.3896 88.5403 94.3896 85.0815V64.9814C94.3896 61.5226 91.5857 58.7187 88.1269 58.7187L23.0567 58.7187C19.5979 58.7187 16.7939 61.5226 16.7939 64.9814Z" stroke="url(#paint16_linear_69_2)"/>
<path d="M389.865 0.522461H369.765C366.306 0.522461 363.502 3.32637 363.502 6.78517V71.8555C363.502 75.3143 366.306 78.1182 369.765 78.1182H389.865C393.324 78.1182 396.127 75.3143 396.127 71.8555V6.78517C396.127 3.32637 393.324 0.522461 389.865 0.522461Z" fill="url(#paint17_linear_69_2)"/>
<path d="M389.865 0.522461H369.765C366.306 0.522461 363.502 3.32637 363.502 6.78517V71.8555C363.502 75.3143 366.306 78.1182 369.765 78.1182H389.865C393.324 78.1182 396.127 75.3143 396.127 71.8555V6.78517C396.127 3.32637 393.324 0.522461 389.865 0.522461Z" stroke="url(#paint18_linear_69_2)"/>
<path d="M465.697 3.16748H445.597C442.138 3.16748 439.334 5.97139 439.334 9.43019V151.215C439.334 154.674 442.138 157.477 445.597 157.477H465.697C469.156 157.477 471.959 154.674 471.959 151.215V9.43019C471.959 5.97139 469.156 3.16748 465.697 3.16748Z" fill="url(#paint19_linear_69_2)"/>
<path d="M465.697 3.16748H445.597C442.138 3.16748 439.334 5.97139 439.334 9.43019V151.215C439.334 154.674 442.138 157.477 445.597 157.477H465.697C469.156 157.477 471.959 154.674 471.959 151.215V9.43019C471.959 5.97139 469.156 3.16748 465.697 3.16748Z" stroke="url(#paint20_linear_69_2)"/>
<path d="M380.255 64.9814V85.0815C380.255 88.5403 383.059 91.3442 386.518 91.3442H451.588C455.047 91.3442 457.851 88.5403 457.851 85.0815V64.9814C457.851 61.5226 455.047 58.7188 451.588 58.7188L386.518 58.7188C383.059 58.7188 380.255 61.5226 380.255 64.9814Z" fill="url(#paint21_linear_69_2)"/>
<path d="M380.255 64.9814V85.0815C380.255 88.5403 383.059 91.3442 386.518 91.3442H451.588C455.047 91.3442 457.851 88.5403 457.851 85.0815V64.9814C457.851 61.5226 455.047 58.7188 451.588 58.7188L386.518 58.7188C383.059 58.7188 380.255 61.5226 380.255 64.9814Z" stroke="url(#paint22_linear_69_2)"/>
</g>
<defs>
<linearGradient id="paint0_linear_69_2" x1="214.176" y1="41.7014" x2="214.176" y2="62.4155" gradientUnits="userSpaceOnUse">
<stop stop-color="#5685CB"/>
<stop offset="0.490385" stop-color="#C64B9C"/>
<stop offset="1" stop-color="#E2712F"/>
</linearGradient>
<linearGradient id="paint1_linear_69_2" x1="214.176" y1="41.7014" x2="214.176" y2="62.4155" gradientUnits="userSpaceOnUse">
<stop stop-color="#5685CB"/>
<stop offset="0.490385" stop-color="#C64B9C"/>
<stop offset="1" stop-color="#E2712F"/>
</linearGradient>
<linearGradient id="paint2_linear_69_2" x1="257.825" y1="41.7014" x2="257.825" y2="62.4155" gradientUnits="userSpaceOnUse">
<stop stop-color="#5685CB"/>
<stop offset="0.490385" stop-color="#C64B9C"/>
<stop offset="1" stop-color="#E2712F"/>
</linearGradient>
<linearGradient id="paint3_linear_69_2" x1="257.825" y1="41.7014" x2="257.825" y2="62.4155" gradientUnits="userSpaceOnUse">
<stop stop-color="#5685CB"/>
<stop offset="0.490385" stop-color="#C64B9C"/>
<stop offset="1" stop-color="#E2712F"/>
</linearGradient>
<linearGradient id="paint4_linear_69_2" x1="269.274" y1="98.2302" x2="269.274" y2="118.944" gradientUnits="userSpaceOnUse">
<stop stop-color="#5685CB"/>
<stop offset="0.490385" stop-color="#C64B9C"/>
<stop offset="1" stop-color="#E2712F"/>
</linearGradient>
<linearGradient id="paint5_linear_69_2" x1="269.274" y1="98.2302" x2="269.274" y2="118.944" gradientUnits="userSpaceOnUse">
<stop stop-color="#5685CB"/>
<stop offset="0.490385" stop-color="#C64B9C"/>
<stop offset="1" stop-color="#E2712F"/>
</linearGradient>
<linearGradient id="paint6_linear_69_2" x1="202.727" y1="98.2302" x2="202.727" y2="118.944" gradientUnits="userSpaceOnUse">
<stop stop-color="#5685CB"/>
<stop offset="0.490385" stop-color="#C64B9C"/>
<stop offset="1" stop-color="#E2712F"/>
</linearGradient>
<linearGradient id="paint7_linear_69_2" x1="202.727" y1="98.2302" x2="202.727" y2="118.944" gradientUnits="userSpaceOnUse">
<stop stop-color="#5685CB"/>
<stop offset="0.490385" stop-color="#C64B9C"/>
<stop offset="1" stop-color="#E2712F"/>
</linearGradient>
<linearGradient id="paint8_linear_69_2" x1="236.179" y1="82.8469" x2="236.179" y2="103.561" gradientUnits="userSpaceOnUse">
<stop stop-color="#5685CB"/>
<stop offset="0.490385" stop-color="#C64B9C"/>
<stop offset="1" stop-color="#E2712F"/>
</linearGradient>
<linearGradient id="paint9_linear_69_2" x1="236.179" y1="82.8469" x2="236.179" y2="103.561" gradientUnits="userSpaceOnUse">
<stop stop-color="#5685CB"/>
<stop offset="0.490385" stop-color="#C64B9C"/>
<stop offset="1" stop-color="#E2712F"/>
</linearGradient>
<linearGradient id="paint10_linear_69_2" x1="236" y1="15.167" x2="236" y2="145.478" gradientUnits="userSpaceOnUse">
<stop stop-color="#5685CB"/>
<stop offset="0.490385" stop-color="#C64B9C"/>
<stop offset="1" stop-color="#E2712F"/>
</linearGradient>
<linearGradient id="paint11_linear_69_2" x1="16.3533" y1="0.522461" x2="16.3533" y2="78.1182" gradientUnits="userSpaceOnUse">
<stop stop-color="#5685CB"/>
<stop offset="0.490385" stop-color="#C64B9C"/>
<stop offset="1" stop-color="#E2712F"/>
</linearGradient>
<linearGradient id="paint12_linear_69_2" x1="16.3533" y1="0.522461" x2="16.3533" y2="78.1182" gradientUnits="userSpaceOnUse">
<stop stop-color="#5685CB"/>
<stop offset="0.490385" stop-color="#C64B9C"/>
<stop offset="1" stop-color="#E2712F"/>
</linearGradient>
<linearGradient id="paint13_linear_69_2" x1="92.1853" y1="3.16748" x2="92.1853" y2="157.477" gradientUnits="userSpaceOnUse">
<stop stop-color="#5685CB"/>
<stop offset="0.490385" stop-color="#C64B9C"/>
<stop offset="1" stop-color="#E2712F"/>
</linearGradient>
<linearGradient id="paint14_linear_69_2" x1="92.1853" y1="3.16748" x2="92.1853" y2="157.477" gradientUnits="userSpaceOnUse">
<stop stop-color="#5685CB"/>
<stop offset="0.490385" stop-color="#C64B9C"/>
<stop offset="1" stop-color="#E2712F"/>
</linearGradient>
<linearGradient id="paint15_linear_69_2" x1="16.7939" y1="75.0315" x2="94.3896" y2="75.0315" gradientUnits="userSpaceOnUse">
<stop stop-color="#5685CB"/>
<stop offset="0.490385" stop-color="#C64B9C"/>
<stop offset="1" stop-color="#E2712F"/>
</linearGradient>
<linearGradient id="paint16_linear_69_2" x1="16.7939" y1="75.0315" x2="94.3896" y2="75.0315" gradientUnits="userSpaceOnUse">
<stop stop-color="#5685CB"/>
<stop offset="0.490385" stop-color="#C64B9C"/>
<stop offset="1" stop-color="#E2712F"/>
</linearGradient>
<linearGradient id="paint17_linear_69_2" x1="379.815" y1="0.522461" x2="379.815" y2="78.1182" gradientUnits="userSpaceOnUse">
<stop stop-color="#5685CB"/>
<stop offset="0.490385" stop-color="#C64B9C"/>
<stop offset="1" stop-color="#E2712F"/>
</linearGradient>
<linearGradient id="paint18_linear_69_2" x1="379.815" y1="0.522461" x2="379.815" y2="78.1182" gradientUnits="userSpaceOnUse">
<stop stop-color="#5685CB"/>
<stop offset="0.490385" stop-color="#C64B9C"/>
<stop offset="1" stop-color="#E2712F"/>
</linearGradient>
<linearGradient id="paint19_linear_69_2" x1="455.647" y1="3.16748" x2="455.647" y2="157.477" gradientUnits="userSpaceOnUse">
<stop stop-color="#5685CB"/>
<stop offset="0.490385" stop-color="#C64B9C"/>
<stop offset="1" stop-color="#E2712F"/>
</linearGradient>
<linearGradient id="paint20_linear_69_2" x1="455.647" y1="3.16748" x2="455.647" y2="157.477" gradientUnits="userSpaceOnUse">
<stop stop-color="#5685CB"/>
<stop offset="0.490385" stop-color="#C64B9C"/>
<stop offset="1" stop-color="#E2712F"/>
</linearGradient>
<linearGradient id="paint21_linear_69_2" x1="380.255" y1="75.0315" x2="457.851" y2="75.0315" gradientUnits="userSpaceOnUse">
<stop stop-color="#5685CB"/>
<stop offset="0.490385" stop-color="#C64B9C"/>
<stop offset="1" stop-color="#E2712F"/>
</linearGradient>
<linearGradient id="paint22_linear_69_2" x1="380.255" y1="75.0315" x2="457.851" y2="75.0315" gradientUnits="userSpaceOnUse">
<stop stop-color="#5685CB"/>
<stop offset="0.490385" stop-color="#C64B9C"/>
<stop offset="1" stop-color="#E2712F"/>
</linearGradient>
<clipPath id="clip0_69_2">
<rect width="472" height="158" fill="white"/>
</clipPath>
</defs>
</svg>
