<?xml version="1.0" encoding="utf-8"?>
<!-- Generator: Adobe Illustrator 28.4.1, SVG Export Plug-In . SVG Version: 6.00 Build 0)  -->
<svg version="1.1" id="Layer_1" xmlns="http://www.w3.org/2000/svg" xmlns:xlink="http://www.w3.org/1999/xlink" x="0px" y="0px"
	 viewBox="0 0 24 24" style="enable-background:new 0 0 24 24;" xml:space="preserve">
<style type="text/css">
	.st0{fill:url(#SVGID_1_);}
	.st1{fill:url(#SVGID_00000018227474156363026570000015936521793937110710_);}
	.st2{fill:url(#SVGID_00000168809297294998358760000014882973631027270320_);}
	.st3{fill:url(#SVGID_00000094596545543562476880000017429360276649536666_);}
	.st4{fill:url(#SVGID_00000108270212720633069960000015279895801259018894_);}
	.st5{fill:url(#SVGID_00000167393379990325028070000015732429590850394248_);}
	.st6{fill:url(#SVGID_00000158726730326477823850000002068160342492050594_);}
	.st7{fill:url(#SVGID_00000111185073421942122340000001721439661983657373_);}
</style>
<linearGradient id="SVGID_1_" gradientUnits="userSpaceOnUse" x1="1" y1="-760.1055" x2="23.05" y2="-760.1055" gradientTransform="matrix(1 0 0 -1 0 -748)">
	<stop  offset="0" style="stop-color:#5882CA"/>
	<stop  offset="0.48" style="stop-color:#BF4DA5"/>
	<stop  offset="1" style="stop-color:#E17032"/>
</linearGradient>
<path class="st0" d="M8.7,4.2C8.8,4,8.8,4,8.8,3.9S8.7,3.6,8.5,3.6c-0.1,0-0.3,0-0.4,0.1l0,0L4.3,9L4.2,9.2C4,9.3,4.2,9.6,4.3,9.7
	c0.1,0.1,0.4,0.1,0.5,0l0.1-0.1l2.2-3.1L8.7,4.2z M22.9,10.2c-0.1-1-0.4-2.1-0.5-3C22.3,6.6,22.2,6,22,5.3c-0.1-0.4-0.3-0.9-0.6-1.2
	c-0.5-0.5-1.2-0.8-1.9-0.6c-0.1,0-0.3,0-0.3-0.1l-1.7-1.9C17.2,1.1,16.7,1,16.3,1H2.2C2,0.9,1.6,1.1,1.3,1.3C1.1,1.5,1,1.8,1,2.2V11
	c0,0.4,0.1,0.8,0.4,1c0.3,0.3,0.6,0.4,1,0.4h5.1l-0.6,0.8l-1.8,2.4c-0.1,0.3-0.3,0.5-0.3,0.8c0,0.5,0.1,0.9,0.5,1.2l4.8,3.6l2.2,1.7
	c0.4,0.3,0.9,0.4,1.3,0.3c0.3-0.1,0.5-0.3,0.8-0.6l5-6.4l3.5-4.5C23.1,11.1,23.1,10.7,22.9,10.2L22.9,10.2z M2.8,11.3H2.6
	c-0.3,0-0.5-0.3-0.5-0.5c0-0.1,0-0.1,0-0.3V2.8c0-0.1,0-0.1,0-0.3c0-0.3,0.3-0.5,0.5-0.5h13.3c0.3,0,0.5,0.1,0.8,0.3
	c0.4,0.5,0.9,0.9,1.2,1.4L18,3.8L17,3.9l-2.7,0.3c-0.4,0-0.8,0.3-0.9,0.5c-1.2,1.5-2.4,3-3.6,4.4l-1.6,2.1c0,0.1-0.1,0.1-0.3,0.1
	H2.8z M21.7,11.1c-0.4,0.5-0.8,0.9-1.1,1.4l-6.9,8.9v0.1c-0.3,0.3-0.6,0.4-0.8,0.1l0,0l-1.7-1.1l-4.8-3.8l0,0
	c-0.3-0.3-0.4-0.6-0.1-0.8l0,0l1.3-1.7c2.2-2.9,4.5-5.8,6.7-8.8l0.1-0.1c0.1-0.1,0.3-0.3,0.4-0.3L17,5l2.3-0.3c0.3,0,0.4,0,0.6,0
	c0.5,0.1,0.8,0.4,0.9,0.8C20.8,5.9,20.8,6,21,6.3c0.3,1.2,0.5,2.4,0.8,3.7c0,0.3,0.1,0.5,0.1,0.8C22,10.9,22,10.9,21.7,11.1
	L21.7,11.1z"/>
<linearGradient id="SVGID_00000151545589727316304300000017424573485867929005_" gradientUnits="userSpaceOnUse" x1="11.338" y1="16.1068" x2="15.2033" y2="11.7138" gradientTransform="matrix(1.1898 -0.3078 0.2505 0.9681 -5.6862 4.489)">
	<stop  offset="0" style="stop-color:#5882CA"/>
	<stop  offset="0.48" style="stop-color:#BF4DA5"/>
	<stop  offset="1" style="stop-color:#E17032"/>
</linearGradient>
<path style="fill:url(#SVGID_00000151545589727316304300000017424573485867929005_);" d="M14.5,17.9L14.5,17.9
	c-0.3,0.1-0.4,0-0.5-0.2l-1.8-7c0-0.2,0.1-0.4,0.2-0.4l0.1,0c0.2,0,0.4,0.1,0.4,0.2l1.8,7C14.8,17.6,14.7,17.8,14.5,17.9z"/>
<linearGradient id="SVGID_00000034771291315977474880000005360531776442891674_" gradientUnits="userSpaceOnUse" x1="3.9063" y1="7.4882" x2="3.9623" y2="7.4246">
	<stop  offset="0" style="stop-color:#5882CA"/>
	<stop  offset="0.48" style="stop-color:#BF4DA5"/>
	<stop  offset="1" style="stop-color:#E17032"/>
</linearGradient>
<path style="fill:url(#SVGID_00000034771291315977474880000005360531776442891674_);" d="M3.9,7.5C3.9,7.5,3.9,7.5,3.9,7.5
	C3.9,7.5,3.9,7.5,3.9,7.5S3.9,7.4,3.9,7.5C3.9,7.4,3.9,7.4,3.9,7.5z"/>
<linearGradient id="SVGID_00000130624266254130445140000000121498447964918407_" gradientUnits="userSpaceOnUse" x1="14.7873" y1="14.8589" x2="16.9615" y2="12.3878">
	<stop  offset="0" style="stop-color:#5882CA"/>
	<stop  offset="0.48" style="stop-color:#BF4DA5"/>
	<stop  offset="1" style="stop-color:#E17032"/>
</linearGradient>
<path style="fill:url(#SVGID_00000130624266254130445140000000121498447964918407_);" d="M15.8,12c-0.9,0-1.7,0.8-1.7,1.7
	c0,0.9,0.8,1.7,1.7,1.7s1.7-0.8,1.7-1.7C17.5,12.8,16.7,12,15.8,12z M15.8,14.5c-0.5,0-0.8-0.4-0.8-0.8c0-0.5,0.4-0.8,0.8-0.8
	c0.5,0,0.8,0.4,0.8,0.8C16.6,14.2,16.3,14.5,15.8,14.5z"/>
<linearGradient id="SVGID_00000137102376562807295510000001198599820610951080_" gradientUnits="userSpaceOnUse" x1="9.79" y1="15.6989" x2="11.9642" y2="13.2278">
	<stop  offset="0" style="stop-color:#5882CA"/>
	<stop  offset="0.48" style="stop-color:#BF4DA5"/>
	<stop  offset="1" style="stop-color:#E17032"/>
</linearGradient>
<path style="fill:url(#SVGID_00000137102376562807295510000001198599820610951080_);" d="M10.8,12.8c-0.9,0-1.7,0.8-1.7,1.7
	c0,0.9,0.8,1.7,1.7,1.7s1.7-0.8,1.7-1.7C12.5,13.6,11.7,12.8,10.8,12.8z M10.8,15.4c-0.5,0-0.8-0.4-0.8-0.8c0-0.5,0.4-0.8,0.8-0.8
	c0.5,0,0.8,0.4,0.8,0.8C11.6,15,11.3,15.4,10.8,15.4z"/>
<linearGradient id="SVGID_00000176039615597476004310000002591110670910365077_" gradientUnits="userSpaceOnUse" x1="18.177" y1="7.795" x2="19.9652" y2="5.7626">
	<stop  offset="0" style="stop-color:#5882CA"/>
	<stop  offset="0.48" style="stop-color:#BF4DA5"/>
	<stop  offset="1" style="stop-color:#E17032"/>
</linearGradient>
<path style="fill:url(#SVGID_00000176039615597476004310000002591110670910365077_);" d="M19,5.4c-0.8,0-1.4,0.6-1.4,1.4
	c0,0.8,0.6,1.4,1.4,1.4c0.8,0,1.4-0.6,1.4-1.4C20.4,6.1,19.8,5.4,19,5.4z M19,7.5c-0.4,0-0.7-0.3-0.7-0.7c0-0.4,0.3-0.7,0.7-0.7
	c0.4,0,0.7,0.3,0.7,0.7C19.7,7.2,19.4,7.5,19,7.5z"/>
<linearGradient id="SVGID_00000095303810712853152060000006589760477704925865_" gradientUnits="userSpaceOnUse" x1="3.7154" y1="5.9513" x2="5.5036" y2="3.919">
	<stop  offset="0" style="stop-color:#5882CA"/>
	<stop  offset="0.48" style="stop-color:#BF4DA5"/>
	<stop  offset="1" style="stop-color:#E17032"/>
</linearGradient>
<path style="fill:url(#SVGID_00000095303810712853152060000006589760477704925865_);" d="M4.5,3.6C3.8,3.6,3.1,4.2,3.1,5
	c0,0.8,0.6,1.4,1.4,1.4S6,5.8,6,5C6,4.2,5.3,3.6,4.5,3.6z M4.5,5.7C4.2,5.7,3.9,5.4,3.9,5c0-0.4,0.3-0.7,0.7-0.7
	c0.4,0,0.7,0.3,0.7,0.7C5.2,5.4,4.9,5.7,4.5,5.7z"/>
<linearGradient id="SVGID_00000130617821282645246000000012213524476203401139_" gradientUnits="userSpaceOnUse" x1="7.1701" y1="9.3136" x2="8.9583" y2="7.2812">
	<stop  offset="0" style="stop-color:#5882CA"/>
	<stop  offset="0.48" style="stop-color:#BF4DA5"/>
	<stop  offset="1" style="stop-color:#E17032"/>
</linearGradient>
<path style="fill:url(#SVGID_00000130617821282645246000000012213524476203401139_);" d="M8,7C7.2,7,6.6,7.6,6.6,8.4
	c0,0.8,0.6,1.4,1.4,1.4s1.4-0.6,1.4-1.4C9.4,7.6,8.8,7,8,7z M8,9.1c-0.4,0-0.7-0.3-0.7-0.7C7.3,8,7.6,7.7,8,7.7
	c0.4,0,0.7,0.3,0.7,0.7C8.7,8.7,8.4,9.1,8,9.1z"/>
</svg>
