<?xml version="1.0" encoding="utf-8"?>
<!-- Generator: Adobe Illustrator 28.4.1, SVG Export Plug-In . SVG Version: 6.00 Build 0)  -->
<svg version="1.1" id="Layer_1" xmlns="http://www.w3.org/2000/svg" xmlns:xlink="http://www.w3.org/1999/xlink" x="0px" y="0px"
	 viewBox="0 0 24 24" style="enable-background:new 0 0 24 24;" xml:space="preserve">
<style type="text/css">
	.st0{fill:url(#SVGID_1_);}
	.st1{fill:url(#SVGID_00000044179640302391229880000013375921409514330529_);}
	.st2{fill:url(#SVGID_00000028312259420116653280000005487714819077465514_);}
	.st3{fill:url(#SVGID_00000002342564404272762200000008295279759763005838_);}
	.st4{fill:url(#SVGID_00000041975072958979917870000014790020469978296742_);}
	.st5{fill:url(#SVGID_00000044888940955761678670000000841663307535409855_);}
	.st6{fill:url(#SVGID_00000145739148165095661660000017783284651574853015_);}
	.st7{fill:url(#SVGID_00000085952913998607784480000013896686606829238913_);}
	.st8{fill:url(#SVGID_00000119820785989368936190000001628682345737601717_);}
	.st9{fill:url(#SVGID_00000064350934111887321710000010247718454948889764_);}
	.st10{fill:url(#SVGID_00000056397298558389414090000014071743763876363649_);}
</style>
<linearGradient id="SVGID_1_" gradientUnits="userSpaceOnUse" x1="5.0352" y1="15.4102" x2="23.2818" y2="15.4102" gradientTransform="matrix(1 0 0 -1 0 26)">
	<stop  offset="0" style="stop-color:#5882CA"/>
	<stop  offset="0.48" style="stop-color:#BF4DA5"/>
	<stop  offset="1" style="stop-color:#E17032"/>
</linearGradient>
<path class="st0" d="M13.5,5.5h7.7c0,0,0-0.1,0-0.1l-0.5-1.7c0-0.1-0.1-0.2-0.2-0.3c-0.1,0-0.1,0-0.2,0l-1.1,0.3l-1.2,0.4h-0.1
	c-0.2,0-0.3-0.1-0.4-0.2c0-0.2,0.1-0.3,0.2-0.4l0.4-0.1l2-0.6c0.5-0.2,1.1,0.1,1.3,0.6c0,0,0,0,0,0.1c0.2,0.6,0.4,1.3,0.6,1.9
	c0,0.1,0,0.1,0.2,0.1c0.2,0,0.3,0,0.5,0c0.4,0.1,0.8,0.5,0.8,1v3.4c0,0.2-0.1,0.4-0.3,0.4c0,0-0.1,0-0.1,0c-0.9,0-1.7,0.8-1.7,1.7
	c0,0.9,0.8,1.7,1.7,1.7c0.2,0,0.4,0.1,0.4,0.3c0,0,0,0.1,0,0.1v3.4c0,0.6-0.4,1-1,1c0,0,0,0-0.1,0h-2.8c-0.1,0-0.2,0-0.3-0.1
	c-0.1-0.1-0.2-0.2-0.1-0.3c0-0.1,0.2-0.2,0.3-0.3h2.9c0.2,0,0.3-0.1,0.3-0.3c0,0,0,0,0,0v-3c0-0.1,0-0.1-0.1-0.2
	c-0.7-0.1-1.4-0.6-1.7-1.3c-0.6-1.2-0.1-2.6,1.1-3.2c0.2-0.1,0.4-0.1,0.6-0.2c0.1,0,0.1,0,0.1-0.1v-3c0-0.2-0.1-0.4-0.3-0.4
	c0,0,0,0,0,0h-17C5.1,6.2,5,6,5,5.9c0,0,0,0,0,0c0-0.2,0.1-0.3,0.3-0.3c0,0,0,0,0,0h5.7c0.1,0,0.2,0,0.3,0l5-1.6h0.1
	c0.2-0.1,0.4,0,0.4,0.2c0,0.2-0.1,0.4-0.2,0.4l-0.7,0.2L13.5,5.5L13.5,5.5L13.5,5.5z"/>
<linearGradient id="SVGID_00000120532141743984994520000001085674939124414871_" gradientUnits="userSpaceOnUse" x1="0.6811" y1="12.6292" x2="18.3343" y2="12.6292" gradientTransform="matrix(1 0 0 -1 0 26)">
	<stop  offset="0" style="stop-color:#5882CA"/>
	<stop  offset="0.48" style="stop-color:#BF4DA5"/>
	<stop  offset="1" style="stop-color:#E17032"/>
</linearGradient>
<path style="fill:url(#SVGID_00000120532141743984994520000001085674939124414871_);" d="M18,17.8H1.8c-0.3,0-0.5-0.2-0.5-0.5
	c0-3.6,0-7.2,0-10.8V6.5c0-0.2,0.1-0.4,0.3-0.4c0,0,0,0,0,0H4c0.2,0,0.3-0.1,0.4-0.3c0,0,0-0.1,0-0.1c0-0.2-0.2-0.3-0.4-0.3
	c0,0,0,0,0,0H1.7C1.4,5.5,1.1,5.6,1,5.8C0.8,6,0.7,6.3,0.7,6.6v11c0,0.5,0.4,0.9,0.9,1h0.3c0.2,0,0.1,0,0.2,0.1
	c0.2,0.6,0.4,1.3,0.6,1.9c0.1,0.3,0.3,0.6,0.7,0.7c0.1,0.1,0.3,0.1,0.5,0l0.4-0.1l8.5-2.5c0.1,0,0.2,0,0.3,0H18
	c0.2,0,0.3-0.1,0.3-0.3C18.3,18,18.2,17.9,18,17.8L18,17.8z M10.4,18.6l-6,1.8l-0.6,0.2c-0.2,0.1-0.4,0-0.5-0.2c0,0,0-0.1,0-0.1
	l-0.5-1.7c0,0,0-0.1,0-0.1h7.7C10.5,18.5,10.4,18.6,10.4,18.6z"/>
<linearGradient id="SVGID_00000082370769102257279870000008377215116773860227_" gradientUnits="userSpaceOnUse" x1="5.7752" y1="18.1023" x2="10.51" y2="9.9048" gradientTransform="matrix(1 0 0 -1 0 26)">
	<stop  offset="0" style="stop-color:#5882CA"/>
	<stop  offset="0.48" style="stop-color:#BF4DA5"/>
	<stop  offset="1" style="stop-color:#E17032"/>
</linearGradient>
<path style="fill:url(#SVGID_00000082370769102257279870000008377215116773860227_);" d="M12.1,10.5c0-0.2-0.1-0.5-0.3-0.6
	c-0.1-0.1-0.3-0.1-0.4-0.1c-0.1,0-0.1,0-0.1-0.1c0-0.2,0-0.5,0-0.7c0-0.3-0.2-0.6-0.4-0.9c-0.4-0.5-1-0.6-1.5-0.2c0,0,0,0,0,0
	C9.1,8,9,8.1,8.9,8.3c0,0-0.1,0.1-0.1,0.1h-1c-0.1,0-0.1,0-0.2-0.1C7.5,8.1,7.3,7.9,7.1,7.8c-0.4-0.3-1-0.3-1.3,0.1
	C5.6,8,5.4,8.3,5.4,8.6c-0.1,0.3-0.1,0.6-0.1,1c0,0.1,0,0.1-0.1,0.1c-0.4,0-0.8,0.3-0.8,0.8c0,0.3,0,0.6,0,0.9
	c0,0.3,0.2,0.6,0.5,0.7H5c0,0,0,0,0,0.1s0,0,0,0.1c0,0.9,0,1.8,0,2.7c0,0.6,0.5,1,1,1c0,0,0,0,0,0h4.3c0.5,0,0.9-0.3,1-0.8
	c0-0.1,0-0.2,0-0.3v-2.6c0-0.1,0-0.1,0.1-0.1c0.3-0.1,0.6-0.4,0.6-0.7L12.1,10.5z M9.2,8.9c0,0,0-0.1,0-0.1c0.1-0.2,0.2-0.3,0.4-0.4
	c0.2-0.1,0.4-0.1,0.6,0c0.1,0.1,0.2,0.2,0.2,0.4c0.1,0.3,0.1,0.5,0.1,0.8c0,0,0,0.1-0.1,0.1H9.3c-0.1,0-0.1,0-0.1-0.1
	S9.3,9.2,9.2,8.9L9.2,8.9z M6,8.8c0-0.2,0.2-0.4,0.3-0.5c0.1-0.1,0.2-0.1,0.3,0C6.8,8.4,7,8.6,7.1,8.8c0,0,0,0.1,0,0.1v0.8
	c0,0,0,0.1-0.1,0.1H6c0,0-0.1,0-0.1-0.1C5.9,9.4,5.9,9.1,6,8.8z M7.7,15.3H6.1c-0.2,0-0.4-0.1-0.4-0.3c0,0,0,0,0-0.1v-2.7
	c0-0.1,0-0.1,0.1-0.1h2c0.1,0,0.1,0,0.1,0.1v2.9C7.8,15.3,7.9,15.3,7.7,15.3z M7.9,11.1v0.4H5.2c-0.1,0-0.1,0-0.1-0.1s0-0.6,0-0.9
	c0,0,0-0.1,0.1-0.1h2.6c0.1,0,0.1,0,0.1,0.1L7.9,11.1z M7.9,9.7C7.9,9.7,7.9,9.7,7.9,9.7V9.2V9.1h0.7c0,0,0,0,0,0.1v0.5v0.1L7.9,9.7
	z M10.3,15.3H8.6c-0.1,0-0.1,0-0.1-0.1v-2.9c0-0.1,0-0.1,0.1-0.1h1.9c0.1,0,0.1,0,0.1,0.1c0,0.9,0,1.8,0,2.7
	C10.7,15.2,10.6,15.3,10.3,15.3L10.3,15.3z M11.4,11.3c0,0.1,0,0.2-0.2,0.2H8.6c-0.1,0-0.1,0-0.1-0.1v-0.9c0-0.1,0-0.1,0.1-0.1h2.6
	c0.2,0,0.2,0,0.2,0.2L11.4,11.3z"/>
<linearGradient id="SVGID_00000163764575600950488660000006645010846071300740_" gradientUnits="userSpaceOnUse" x1="16.8792" y1="13.9287" x2="17.5435" y2="13.9287" gradientTransform="matrix(1 0 0 -1 0 26)">
	<stop  offset="0" style="stop-color:#5882CA"/>
	<stop  offset="0.48" style="stop-color:#BF4DA5"/>
	<stop  offset="1" style="stop-color:#E17032"/>
</linearGradient>
<path style="fill:url(#SVGID_00000163764575600950488660000006645010846071300740_);" d="M17.5,12.1v2.3c0,0.1,0,0.1,0,0.2
	c-0.1,0.1-0.2,0.2-0.3,0.2c-0.1,0-0.3-0.1-0.3-0.2c0-0.1,0-0.1,0-0.2V9.6c0-0.2,0.2-0.3,0.4-0.3c0.2,0,0.3,0.1,0.3,0.3L17.5,12.1
	L17.5,12.1z"/>
<linearGradient id="SVGID_00000103974388594552866240000004583099261389132165_" gradientUnits="userSpaceOnUse" x1="18.4763" y1="13.9263" x2="19.1406" y2="13.9263" gradientTransform="matrix(1 0 0 -1 0 26)">
	<stop  offset="0" style="stop-color:#5882CA"/>
	<stop  offset="0.48" style="stop-color:#BF4DA5"/>
	<stop  offset="1" style="stop-color:#E17032"/>
</linearGradient>
<path style="fill:url(#SVGID_00000103974388594552866240000004583099261389132165_);" d="M19.1,12.1c0,0.4,0,0.8,0,1.2
	c0,0.2-0.1,0.3-0.3,0.4c-0.2,0-0.3-0.1-0.4-0.3c0,0,0,0,0,0v-2.6c0-0.2,0.1-0.3,0.3-0.3c0.2,0,0.3,0.1,0.3,0.3c0,0,0,0,0,0
	C19.1,11.2,19.1,11.7,19.1,12.1z"/>
<linearGradient id="SVGID_00000155827385086408398160000010399700633979929785_" gradientUnits="userSpaceOnUse" x1="14.4764" y1="10.988" x2="15.1548" y2="10.988" gradientTransform="matrix(1 0 0 -1 0 26)">
	<stop  offset="0" style="stop-color:#5882CA"/>
	<stop  offset="0.48" style="stop-color:#BF4DA5"/>
	<stop  offset="1" style="stop-color:#E17032"/>
</linearGradient>
<path style="fill:url(#SVGID_00000155827385086408398160000010399700633979929785_);" d="M15.1,15c0,0.1,0,0.2,0,0.3
	c0,0.2-0.1,0.3-0.3,0.3c-0.1,0-0.1,0-0.1,0c-0.1,0-0.2-0.2-0.2-0.3v-0.7c0-0.2,0.2-0.3,0.4-0.3c0.1,0,0.2,0.1,0.3,0.3
	C15.1,14.8,15.1,14.9,15.1,15z"/>
<linearGradient id="SVGID_00000003791984163416372950000002691037296072743070_" gradientUnits="userSpaceOnUse" x1="14.4765" y1="9.0519" x2="15.1549" y2="9.0519" gradientTransform="matrix(1 0 0 -1 0 26)">
	<stop  offset="0" style="stop-color:#5882CA"/>
	<stop  offset="0.48" style="stop-color:#BF4DA5"/>
	<stop  offset="1" style="stop-color:#E17032"/>
</linearGradient>
<path style="fill:url(#SVGID_00000003791984163416372950000002691037296072743070_);" d="M14.5,17v-0.3c0-0.2,0.1-0.4,0.3-0.4
	c0.2,0,0.4,0.1,0.4,0.3c0,0,0,0.1,0,0.1c0,0.2,0,0.4,0,0.7c0,0.2-0.1,0.3-0.3,0.4c0,0,0,0,0,0c-0.2,0-0.3-0.2-0.3-0.3V17z"/>
<linearGradient id="SVGID_00000152228645769757503360000005480662578481494191_" gradientUnits="userSpaceOnUse" x1="14.4765" y1="18.9395" x2="15.1545" y2="18.9395" gradientTransform="matrix(1 0 0 -1 0 26)">
	<stop  offset="0" style="stop-color:#5882CA"/>
	<stop  offset="0.48" style="stop-color:#BF4DA5"/>
	<stop  offset="1" style="stop-color:#E17032"/>
</linearGradient>
<path style="fill:url(#SVGID_00000152228645769757503360000005480662578481494191_);" d="M14.5,7V6.7c0-0.2,0.1-0.3,0.3-0.4
	c0,0,0,0,0.1,0c0.2,0,0.3,0.1,0.3,0.3c0,0,0,0,0,0c0,0.2,0,0.4,0,0.7c0,0.2-0.1,0.4-0.2,0.4c0,0-0.1,0-0.1,0c-0.2,0-0.3-0.1-0.3-0.3
	c0,0,0,0,0,0L14.5,7z"/>
<linearGradient id="SVGID_00000127002800561012432960000005008100210375649166_" gradientUnits="userSpaceOnUse" x1="14.4761" y1="16.9728" x2="15.1404" y2="16.9728" gradientTransform="matrix(1 0 0 -1 0 26)">
	<stop  offset="0" style="stop-color:#5882CA"/>
	<stop  offset="0.48" style="stop-color:#BF4DA5"/>
	<stop  offset="1" style="stop-color:#E17032"/>
</linearGradient>
<path style="fill:url(#SVGID_00000127002800561012432960000005008100210375649166_);" d="M15.1,9v0.3c0,0.2-0.1,0.3-0.3,0.4
	c0,0,0,0-0.1,0c-0.2,0-0.3-0.2-0.3-0.4V8.7c0-0.2,0.2-0.3,0.4-0.3c0,0,0.1,0,0.1,0c0.1,0,0.2,0.2,0.2,0.3C15.1,8.8,15.1,8.9,15.1,9z
	"/>
<linearGradient id="SVGID_00000134944829762978226400000014313195217692515747_" gradientUnits="userSpaceOnUse" x1="14.4765" y1="14.9552" x2="15.1549" y2="14.9552" gradientTransform="matrix(1 0 0 -1 0 26)">
	<stop  offset="0" style="stop-color:#5882CA"/>
	<stop  offset="0.48" style="stop-color:#BF4DA5"/>
	<stop  offset="1" style="stop-color:#E17032"/>
</linearGradient>
<path style="fill:url(#SVGID_00000134944829762978226400000014313195217692515747_);" d="M14.5,11v-0.3c0-0.2,0.1-0.3,0.3-0.3
	c0,0,0,0,0,0c0.2,0,0.3,0.1,0.3,0.3c0,0,0,0,0,0.1c0,0.2,0,0.4,0,0.6c0,0.2-0.1,0.4-0.3,0.4c-0.2,0-0.4-0.1-0.4-0.3c0,0,0-0.1,0-0.1
	L14.5,11z"/>
<linearGradient id="SVGID_00000072247809105994881840000004130393503065865383_" gradientUnits="userSpaceOnUse" x1="14.4765" y1="13.0031" x2="15.1549" y2="13.0031" gradientTransform="matrix(1 0 0 -1 0 26)">
	<stop  offset="0" style="stop-color:#5882CA"/>
	<stop  offset="0.48" style="stop-color:#BF4DA5"/>
	<stop  offset="1" style="stop-color:#E17032"/>
</linearGradient>
<path style="fill:url(#SVGID_00000072247809105994881840000004130393503065865383_);" d="M14.5,13v-0.3c0-0.2,0.1-0.4,0.3-0.4
	c0.2,0,0.4,0.1,0.4,0.3c0,0,0,0.1,0,0.1c0,0.2,0,0.4,0,0.6c0,0.2-0.1,0.4-0.3,0.4c-0.2,0-0.4-0.1-0.4-0.3c0,0,0-0.1,0-0.1V13z"/>
</svg>
