<?xml version="1.0" encoding="utf-8"?>
<!-- Generator: Adobe Illustrator 28.4.1, SVG Export Plug-In . SVG Version: 6.00 Build 0)  -->
<svg version="1.1" id="Layer_1" xmlns="http://www.w3.org/2000/svg" xmlns:xlink="http://www.w3.org/1999/xlink" x="0px" y="0px"
	 viewBox="0 0 24 24" style="enable-background:new 0 0 24 24;" xml:space="preserve">
<style type="text/css">
	.st0{fill:url(#SVGID_1_);}
	.st1{fill:url(#SVGID_00000150787260714344753990000005351916179053342088_);}
	.st2{fill:url(#SVGID_00000056421840342112086120000010445692560635374464_);}
	.st3{fill:url(#SVGID_00000024683708457535449950000012913427315463710871_);}
	.st4{fill:url(#SVGID_00000133529703736708283150000016011983238680167055_);}
	.st5{fill:url(#SVGID_00000060012427568904752390000005059718503404719545_);}
	.st6{fill:url(#SVGID_00000181807453210376173050000004482453791777232821_);}
	.st7{fill:#FFFFFF;}
	.st8{fill:url(#SVGID_00000049206294244298775500000001159647100359407509_);}
	.st9{fill:url(#SVGID_00000110438086122270072280000006843397495734432649_);}
	.st10{fill:url(#SVGID_00000173163249967929525420000005855843127338497679_);}
</style>
<linearGradient id="SVGID_1_" gradientUnits="userSpaceOnUse" x1="7.3297" y1="17.3975" x2="11.4364" y2="17.3975" gradientTransform="matrix(1 0 0 -1 0 26)">
	<stop  offset="0" style="stop-color:#5882CA"/>
	<stop  offset="0.48" style="stop-color:#BF4DA5"/>
	<stop  offset="1" style="stop-color:#E17032"/>
</linearGradient>
<path class="st0" d="M7.3,8.6c0-0.2,0.1-0.3,0.4-0.3h3.5c0.1,0.1,0.2,0.2,0.2,0.3c0,0.1-0.1,0.2-0.3,0.3H7.7
	C7.4,8.9,7.3,8.7,7.3,8.6z"/>
<linearGradient id="SVGID_00000096766713338287137900000007058759502475018134_" gradientUnits="userSpaceOnUse" x1="6.9429" y1="14.4033" x2="12.0163" y2="14.4033" gradientTransform="matrix(1 0 0 -1 0 26)">
	<stop  offset="0" style="stop-color:#5882CA"/>
	<stop  offset="0.48" style="stop-color:#BF4DA5"/>
	<stop  offset="1" style="stop-color:#E17032"/>
</linearGradient>
<path style="fill:url(#SVGID_00000096766713338287137900000007058759502475018134_);" d="M12,11.1c0-0.4-0.4-0.8-0.8-0.7h-0.5
	c-0.2,0-0.2,0-0.2-0.2c0-0.2-0.1-0.4-0.2-0.5c-0.1-0.2-0.2-0.3-0.4-0.4C9.5,9,9,9.1,8.8,9.5c0,0.1-0.1,0.1-0.1,0.2
	c-0.1,0.2-0.1,0.4-0.2,0.6c-0.1,0.2-0.1,0.2-0.3,0.2H7.7c-0.2,0-0.4,0.1-0.5,0.3c-0.3,0.3-0.3,0.8,0.1,1.1c0,0,0,0,0,0l0.5,0.3
	c0.1,0.1,0.1,0.1,0.1,0.3L7.7,13c0,0.1,0,0.3,0,0.4c0.1,0.4,0.6,0.7,1,0.5c0.1,0,0.1-0.1,0.2-0.1l0.5-0.3c0.2-0.1,0.2-0.1,0.3,0
	l0.4,0.3c0.2,0.1,0.3,0.2,0.5,0.1c0.4,0,0.8-0.4,0.7-0.9c0-0.1,0-0.1,0-0.2c0-0.2-0.1-0.3-0.2-0.5c0-0.2,0-0.2,0.1-0.3l0.5-0.3
	C11.9,11.7,12.1,11.4,12,11.1z M11.3,11.4l-0.5,0.3c-0.3,0.2-0.4,0.6-0.3,0.9c0,0.2,0.1,0.4,0.2,0.6c0,0.1,0,0.2-0.1,0.2
	c0,0,0,0-0.1,0c0,0-0.1,0-0.1,0L10,13.1c-0.3-0.2-0.7-0.2-1,0l-0.5,0.3c-0.1,0.1-0.2,0.1-0.2,0c0,0,0,0,0,0c0,0,0-0.1,0-0.1l0.2-0.5
	c0.2-0.4,0.1-0.8-0.3-1l-0.5-0.3c0,0-0.1-0.1-0.1-0.2c0-0.1,0.1-0.1,0.2-0.1h0.6c0.3,0,0.6-0.2,0.7-0.5c0-0.2,0.1-0.4,0.2-0.5
	c0,0,0-0.1,0-0.1c0-0.1,0.1-0.1,0.2-0.1c0,0,0.1,0,0.1,0.1c0.1,0.2,0.1,0.3,0.2,0.5c0.1,0.4,0.5,0.7,0.9,0.6h0.5
	c0.1,0,0.2,0,0.2,0.1C11.3,11.3,11.4,11.3,11.3,11.4z"/>
<linearGradient id="SVGID_00000173877245615409120170000003549394440523959168_" gradientUnits="userSpaceOnUse" x1="5.961" y1="10.258" x2="12.8091" y2="10.258" gradientTransform="matrix(1 0 0 -1 0 26)">
	<stop  offset="0" style="stop-color:#5882CA"/>
	<stop  offset="0.48" style="stop-color:#BF4DA5"/>
	<stop  offset="1" style="stop-color:#E17032"/>
</linearGradient>
<path style="fill:url(#SVGID_00000173877245615409120170000003549394440523959168_);" d="M12.8,15.4c0-0.1,0-0.1,0-0.2
	c-0.1-0.3-0.3-0.5-0.6-0.4H6.6c-0.4,0-0.6,0.3-0.7,0.6c0,0.2,0,0.5,0,0.7c0,0.3,0.3,0.6,0.6,0.6c0,0,0,0,0,0h5.5
	c0.3,0,0.6-0.3,0.6-0.6c0,0,0,0,0,0L12.8,15.4z M12.2,16L12.2,16l-5.5,0.1H6.6v-0.5c0,0,0-0.1,0.1,0h5.4c0,0,0,0,0,0.1L12.2,16z"/>
<linearGradient id="SVGID_00000113325755273859533050000004017423157877697669_" gradientUnits="userSpaceOnUse" x1="14.977" y1="11.7232" x2="15.6167" y2="11.7232" gradientTransform="matrix(1 0 0 -1 0 26)">
	<stop  offset="0" style="stop-color:#5882CA"/>
	<stop  offset="0.48" style="stop-color:#BF4DA5"/>
	<stop  offset="1" style="stop-color:#E17032"/>
</linearGradient>
<path style="fill:url(#SVGID_00000113325755273859533050000004017423157877697669_);" d="M15,14.9c0-0.4,0-0.8,0-1.2
	c0-0.2,0.1-0.3,0.3-0.3c0,0,0,0,0,0c0.2,0,0.3,0.1,0.3,0.3l0,0v1.2c0,0.2-0.1,0.3-0.3,0.3C15.1,15.2,15,15,15,14.9L15,14.9z"/>
<linearGradient id="SVGID_00000159432686751092218240000010218963281124471213_" gradientUnits="userSpaceOnUse" x1="14.9769" y1="14.6064" x2="15.6167" y2="14.6064" gradientTransform="matrix(1 0 0 -1 0 26)">
	<stop  offset="0" style="stop-color:#5882CA"/>
	<stop  offset="0.48" style="stop-color:#BF4DA5"/>
	<stop  offset="1" style="stop-color:#E17032"/>
</linearGradient>
<path style="fill:url(#SVGID_00000159432686751092218240000010218963281124471213_);" d="M15,11.7v-1.1c0-0.2,0.1-0.3,0.3-0.3
	c0,0,0.1,0,0.1,0c0.1,0,0.2,0.1,0.3,0.3v1.8c0,0.2-0.2,0.3-0.3,0.3c-0.2,0-0.3-0.1-0.3-0.3V11.7z"/>
<linearGradient id="SVGID_00000067951083044557112210000013710009982748823221_" gradientUnits="userSpaceOnUse" x1="17.2087" y1="16.2906" x2="19.9908" y2="16.2906" gradientTransform="matrix(1 0 0 -1 0 26)">
	<stop  offset="0" style="stop-color:#5882CA"/>
	<stop  offset="0.48" style="stop-color:#BF4DA5"/>
	<stop  offset="1" style="stop-color:#E17032"/>
</linearGradient>
<path style="fill:url(#SVGID_00000067951083044557112210000013710009982748823221_);" d="M18.6,8.3c-0.8,0-1.4,0.6-1.4,1.4
	s0.6,1.4,1.4,1.4c0.8,0,1.4-0.6,1.4-1.4c0,0,0,0,0,0C20,8.9,19.4,8.3,18.6,8.3C18.6,8.3,18.6,8.3,18.6,8.3z M18.6,10.5
	c-0.4,0.1-0.8-0.2-0.9-0.6C17.6,9.4,17.9,9,18.3,9c0.1,0,0.2,0,0.3,0c0.4,0,0.7,0.3,0.8,0.8C19.3,10.1,19,10.5,18.6,10.5z"/>
<linearGradient id="SVGID_00000034769814013729254660000017403645518246111667_" gradientUnits="userSpaceOnUse" x1="1.6612" y1="14.0101" x2="21.7167" y2="14.0101" gradientTransform="matrix(1 0 0 -1 0 26)">
	<stop  offset="0" style="stop-color:#5882CA"/>
	<stop  offset="0.48" style="stop-color:#BF4DA5"/>
	<stop  offset="1" style="stop-color:#E17032"/>
</linearGradient>
<path style="fill:url(#SVGID_00000034769814013729254660000017403645518246111667_);" d="M14.9,6.1l-0.8-1.4c0,0,0-0.1,0-0.1
	c-0.1-0.1-0.2-0.1-0.3-0.1c-0.1,0-0.2,0.1-0.2,0.2c-0.1,0.1-0.1,0.2,0,0.3l0.8,1.5c0,0,0,0.1,0,0.1c0.1,0.1,0.2,0.1,0.3,0.1
	C14.9,6.7,15,6.5,15,6.4C15,6.3,15,6.2,14.9,6.1z M14.1,4.7c-0.1-0.1-0.2-0.1-0.3-0.1c-0.1,0-0.2,0.1-0.2,0.2
	c-0.1,0.1-0.1,0.2,0,0.3c0,0,0.8,1.5,0.8,1.6c0.1,0.1,0.2,0.1,0.3,0.1C14.9,6.7,15,6.5,15,6.4c0-0.1,0-0.1,0-0.2
	C15,6.2,14.1,4.7,14.1,4.7z M21.6,18c0.1-0.3,0.1-0.6,0.1-0.9v-2c0-0.2-0.1-0.3-0.3-0.4c0,0-0.3,0-0.3,0c-1-0.2-1.6-1.1-1.5-2.1
	c0.1-0.8,0.8-1.4,1.7-1.5l0,0c0.2,0,0.3-0.1,0.3-0.3c0,0,0,0,0-0.1c0-0.8,0-1.6,0-2.4c0-0.6-0.4-1.2-1-1.4c-0.1,0-0.1-0.1-0.1-0.1
	c-0.1-0.2-0.2-0.4-0.3-0.6l-0.4-0.8c-0.1-0.2-0.2-0.3-0.4-0.2c0,0,0,0-0.1,0h-0.1c-0.4,0.2-1,0.1-1.3-0.3c-0.4-0.3-0.5-0.8-0.4-1.3
	c0.1-0.4,0.3-0.7,0.7-0.9c0.2-0.1,0.2-0.3,0.2-0.4c0,0,0,0,0,0c-0.3-0.6-0.5-1.1-0.8-1.7c-0.1-0.3-0.4-0.5-0.7-0.6
	c-0.3-0.1-0.6-0.1-0.9,0.1L7.1,4.5L4.3,5.9C3.9,6,3.7,6.3,3.6,6.6c0,0.1,0,0.2,0,0.3c0,0,0,0.1-0.1,0.1H3.2C2.4,7,1.7,7.7,1.7,8.5
	c0,0.8,0,1.6,0,2.3c0,0.3,0.1,0.4,0.4,0.4c1,0,1.8,0.8,1.8,1.8c0,1-0.8,1.8-1.8,1.8c-0.3,0-0.4,0.1-0.4,0.4c0,0.8,0,1.6,0,2.4
	c0,0.6,0.3,1.1,0.8,1.3C2.8,19,3,19,3.2,19h9.9c0.2,0,0.2,0,0.2,0.1c0,0.4,0,0.9,0.1,1.3c0.5,2.1,2.5,3.4,4.6,3.2
	c1-0.1,1.9-0.6,2.6-1.3c1.1-1.1,1.5-2.7,1-4.2C21.5,18.2,21.6,18,21.6,18z M4.2,6.8c0.1-0.2,0.2-0.3,0.3-0.4l1.2-0.6l6.3-3
	c0.2-0.1,0.2-0.1,0.3,0.1L13,4.1v0.1c0.1,0.1,0.3,0.2,0.4,0.1c0.1-0.1,0.2-0.2,0.2-0.4c0,0,0-0.1,0-0.1C13.4,3.4,13.2,3,13,2.7
	c0-0.1,0-0.1,0-0.1L16.3,1c0.3-0.1,0.6,0,0.7,0.2c0,0,0,0,0,0.1c0.2,0.4,0.4,0.9,0.6,1.3c0,0,0,0.1,0,0.2c-0.8,0.6-1,1.8-0.4,2.7
	c0.3,0.4,0.7,0.6,1.2,0.7c0.3,0.1,0.5,0.1,0.8,0c0,0,0.1,0,0.1,0s0.2,0.5,0.3,0.7l0,0H4.4C4.2,7,4.1,7,4.2,6.8z M13.3,18.4H3.2
	c-0.5,0-0.8-0.4-0.8-0.8c0,0,0,0,0,0c0-0.7,0-1.3,0-2c0-0.1,0-0.1,0.1-0.1c1.3-0.2,2.2-1.4,2-2.8c-0.2-1-1-1.8-2-2
	c-0.1,0-0.1,0-0.1-0.1c0-0.7,0-1.3,0-2c0-0.4,0.4-0.8,0.8-0.8h11.7c0.2,0,0.2,0,0.2,0.2v1.4c0,0.2,0.1,0.4,0.3,0.3
	c0.2,0,0.3-0.1,0.3-0.3V7.7c0-0.1,0-0.1,0.1-0.1h4.4C20.6,7.6,21,8,21,8.4c0,0,0,0,0,0.1v2c0,0.1,0,0.1-0.1,0.1c-1,0.2-1.8,1-2,2.1
	c-0.2,1.3,0.7,2.5,2,2.7c0,0,0.1,0,0.1,0.1V17c-0.1,0-0.1-0.1-0.1-0.1c-0.7-0.9-1.7-1.5-2.8-1.6c-2.1-0.3-4.1,1-4.7,3
	C13.4,18.4,13.4,18.4,13.3,18.4z M17.5,23.1c-2,0-3.6-1.6-3.6-3.6c0-2,1.6-3.6,3.6-3.6c2,0,3.6,1.6,3.6,3.6
	C21.1,21.5,19.5,23.1,17.5,23.1C17.5,23.1,17.5,23.1,17.5,23.1z M19.3,18.1l0.1-0.1c0.1-0.1,0.1-0.2,0-0.3c-0.1-0.1-0.2-0.2-0.3-0.2
	c-0.1,0-0.2,0.1-0.3,0.1C18.5,18,17.6,19,17.5,19l-1.4-1.4L16,17.6c-0.1-0.1-0.2-0.1-0.3,0c-0.1,0.1-0.2,0.2-0.1,0.3
	c0,0.1,0.1,0.2,0.1,0.3l1.4,1.4l-1.4,1.4l-0.1,0.1c-0.1,0.1-0.1,0.3,0.1,0.4c0.1,0,0.1,0.1,0.2,0.1c0.1,0,0.2-0.1,0.3-0.1
	c0,0,1.3-1.4,1.4-1.5l1.4,1.4l0.1,0.1c0.1,0.1,0.3,0.1,0.4,0c0.1-0.1,0.1-0.3,0-0.4c0,0-0.1-0.1-0.1-0.1L18,19.5L19.3,18.1z M16,1.6
	c-0.6,0.1-1.1,0.6-1,1.2c0.1,0.5,0.5,0.9,1,1c0.6-0.1,1.1-0.6,1-1.2C16.9,2.1,16.5,1.7,16,1.6z M16,3.2L16,3.2
	c-0.3,0.1-0.5-0.1-0.5-0.4c0-0.3,0.2-0.5,0.5-0.5h0c0.3,0,0.5,0.2,0.5,0.5C16.4,3,16.2,3.2,16,3.2z M16,3.3c-0.3,0-0.5-0.2-0.5-0.5
	c0,0,0,0.1,0,0.1C15.5,3.1,15.7,3.4,16,3.3L16,3.3z"/>
<path class="st7" d="M15.6,14.3v0.6c0,0.2-0.1,0.3-0.3,0.3c-0.2,0-0.3-0.1-0.3-0.3c0-0.4,0-0.8,0-1.2c0-0.2,0.1-0.3,0.3-0.3
	c0,0,0,0,0,0c0.2,0,0.3,0.1,0.3,0.3l0,0V14.3z"/>
<path class="st7" d="M15,11.7v-1.1c0-0.2,0.1-0.3,0.3-0.3c0,0,0.1,0,0.1,0c0.1,0,0.2,0.1,0.3,0.3v1.8c0,0.2-0.2,0.3-0.3,0.3
	c-0.2,0-0.3-0.1-0.3-0.3V11.7z"/>
<path class="st7" d="M18.6,8.3c-0.8,0-1.4,0.6-1.4,1.4s0.6,1.4,1.4,1.4c0.8,0,1.4-0.6,1.4-1.4c0,0,0,0,0,0C20,8.9,19.4,8.3,18.6,8.3
	C18.6,8.3,18.6,8.3,18.6,8.3z M18.6,10.5c-0.4,0.1-0.8-0.2-0.9-0.6C17.6,9.4,17.9,9,18.3,9c0.1,0,0.2,0,0.3,0c0.4,0,0.7,0.3,0.8,0.8
	C19.3,10.1,19,10.5,18.6,10.5z"/>
<linearGradient id="SVGID_00000155147308632064213430000016954676029533712516_" gradientUnits="userSpaceOnUse" x1="17.2087" y1="16.2906" x2="19.9908" y2="16.2906" gradientTransform="matrix(1 0 0 -1 0 26)">
	<stop  offset="0" style="stop-color:#5882CA"/>
	<stop  offset="0.48" style="stop-color:#BF4DA5"/>
	<stop  offset="1" style="stop-color:#E17032"/>
</linearGradient>
<path style="fill:url(#SVGID_00000155147308632064213430000016954676029533712516_);" d="M18.6,8.3c-0.8,0-1.4,0.6-1.4,1.4
	s0.6,1.4,1.4,1.4c0.8,0,1.4-0.6,1.4-1.4c0,0,0,0,0,0C20,8.9,19.4,8.3,18.6,8.3C18.6,8.3,18.6,8.3,18.6,8.3z M18.6,10.5
	c-0.4,0.1-0.8-0.2-0.9-0.6C17.6,9.4,17.9,9,18.3,9c0.1,0,0.2,0,0.3,0c0.4,0,0.7,0.3,0.8,0.8C19.3,10.1,19,10.5,18.6,10.5z"/>
<linearGradient id="SVGID_00000128477393340424087550000004625038100678973836_" gradientUnits="userSpaceOnUse" x1="14.9769" y1="14.5469" x2="15.6167" y2="14.5469" gradientTransform="matrix(1 0 0 -1 0 26)">
	<stop  offset="0" style="stop-color:#5882CA"/>
	<stop  offset="0.48" style="stop-color:#BF4DA5"/>
	<stop  offset="1" style="stop-color:#E17032"/>
</linearGradient>
<path style="fill:url(#SVGID_00000128477393340424087550000004625038100678973836_);" d="M15.6,12.3c0,0.2-0.2,0.3-0.3,0.3
	c-0.2,0-0.3-0.1-0.3-0.3v-1.7c0-0.2,0.1-0.3,0.3-0.3c0,0,0.1,0,0.1,0c0.1,0,0.2,0.1,0.3,0.3C15.6,10.6,15.6,12.3,15.6,12.3z"/>
<linearGradient id="SVGID_00000070092820889744912700000016130143570065076921_" gradientUnits="userSpaceOnUse" x1="14.977" y1="11.7381" x2="15.6167" y2="11.7381" gradientTransform="matrix(1 0 0 -1 0 26)">
	<stop  offset="0" style="stop-color:#5882CA"/>
	<stop  offset="0.48" style="stop-color:#BF4DA5"/>
	<stop  offset="1" style="stop-color:#E17032"/>
</linearGradient>
<path style="fill:url(#SVGID_00000070092820889744912700000016130143570065076921_);" d="M15.6,14.3v0.6c0,0.2-0.1,0.3-0.3,0.3
	c-0.2,0-0.3-0.1-0.3-0.3c0-0.4,0-0.8,0-1.2c0-0.2,0.1-0.3,0.3-0.3c0,0,0,0,0,0c0.2,0,0.3,0.1,0.3,0.3l0,0V14.3z"/>
</svg>
