<?xml version="1.0" encoding="utf-8"?>
<!-- Generator: Adobe Illustrator 28.4.1, SVG Export Plug-In . SVG Version: 6.00 Build 0)  -->
<svg version="1.1" id="Layer_1" xmlns="http://www.w3.org/2000/svg" xmlns:xlink="http://www.w3.org/1999/xlink" x="0px" y="0px"
	 viewBox="0 0 24 24" style="enable-background:new 0 0 24 24;" xml:space="preserve">
<style type="text/css">
	.st0{fill:url(#SVGID_1_);}
	.st1{fill:url(#SVGID_00000178922877525081123550000017503165767120181940_);}
	.st2{fill:url(#SVGID_00000129169045911925478670000000239559930291136647_);}
	.st3{fill:url(#SVGID_00000113350458119474488680000000612572713908802951_);}
	.st4{fill:url(#SVGID_00000018210286098224567120000009501503786936134581_);}
	.st5{fill:url(#SVGID_00000035501199393021289920000002452647952891040188_);}
	.st6{fill:url(#SVGID_00000011017160052890586150000008758638891195959988_);}
	.st7{fill:url(#SVGID_00000097478885636688824540000007332503479688264334_);}
	.st8{fill:url(#SVGID_00000062153696615432299320000011174793427737571719_);}
</style>
<linearGradient id="SVGID_1_" gradientUnits="userSpaceOnUse" x1="0.6802" y1="14.0591" x2="23.3821" y2="14.0591" gradientTransform="matrix(1 0 0 -1 0 26)">
	<stop  offset="0" style="stop-color:#5882CA"/>
	<stop  offset="0.48" style="stop-color:#BF4DA5"/>
	<stop  offset="1" style="stop-color:#E17032"/>
</linearGradient>
<path class="st0" d="M22.9,6.2c0.8,0.8,0.8,2.1,0,2.9c-0.1,0.1-0.1,0.2-0.2,0.2l-0.1,0.1L9.3,22.5c-0.3,0.3-0.6,0.5-1,0.6
	c-1.5,0.3-2.1-0.3-2.4-0.6l-4.5-4.5c-0.3-0.3-0.5-0.6-0.6-1c0-0.1-0.3-0.8,0-1.4c0.1-0.4,0.3-0.7,0.6-1L14.7,1.4
	c0,0,0.1-0.1,0.2-0.2c0.8-0.8,2.2-0.8,3,0c0,0,0.1,0.1,0.1,0.1l1.8,1.9C19.9,3.3,20,3.5,20,3.6c0,0.1-0.2,0.3-0.3,0.3
	c-0.1,0-0.2,0-0.3-0.1c0,0-0.1,0-0.1-0.1c-0.6-0.6-1.1-1.1-1.7-1.7c-0.6-0.6-1.6-0.6-2.2,0l0,0l-0.1,0.1L2,15.3
	c-0.6,0.6-0.7,1.6-0.1,2.2c0,0,0.1,0.1,0.1,0.1l4.3,4.3c0.2,0.2,0.5,0.4,0.8,0.5c0.5,0.2,1.1,0,1.5-0.3L8.8,22L21.9,8.8
	c0.2-0.2,0.4-0.5,0.5-0.8c0.1-0.5,0-1.1-0.4-1.5l-1.6-1.6c-0.1-0.1-0.1-0.2-0.1-0.3c0-0.2,0.1-0.3,0.2-0.4c0.1-0.1,0.3-0.1,0.4,0.1
	H21l1.6,1.6C22.6,5.9,22.7,6,22.9,6.2z"/>
<linearGradient id="SVGID_00000000202240642087561400000006113937977015644577_" gradientUnits="userSpaceOnUse" x1="2.089" y1="13.9816" x2="21.925" y2="13.9816" gradientTransform="matrix(1 0 0 -1 0 26)">
	<stop  offset="0" style="stop-color:#5882CA"/>
	<stop  offset="0.48" style="stop-color:#BF4DA5"/>
	<stop  offset="1" style="stop-color:#E17032"/>
</linearGradient>
<path style="fill:url(#SVGID_00000000202240642087561400000006113937977015644577_);" d="M21.9,7.5c0,0.3-0.1,0.5-0.3,0.8
	c0,0-4.1,4.1-6.2,6.1c-0.1,0.1-0.1,0.1-0.2,0.2c-0.2,0-0.3,0-0.4-0.2c-0.1-0.1-0.1-0.3,0-0.5l0.1-0.1L21,7.9c0.2-0.2,0.2-0.3,0-0.5
	L16.6,3L16.5,3c-0.1-0.1-0.2-0.1-0.3,0L16.2,3L4.4,14.8L3,16.2c0,0-0.2,0.2,0,0.4l0.1,0.1L7.4,21L7.4,21c0.1,0.1,0.2,0.1,0.3,0
	L7.8,21l5.9-5.9c0.1-0.1,0.1-0.1,0.2-0.2c0.2,0,0.3,0,0.4,0.2c0.1,0.1,0.1,0.3,0,0.5c0,0-0.1,0.1-0.1,0.1c-2,2-3.9,3.9-5.9,5.9
	C8,22,7.3,22,6.8,21.6l-4.4-4.4c-0.4-0.4-0.4-1.1,0-1.6c0,0,0,0,0,0L14.8,3.3l0.9-0.9c0.3-0.3,0.7-0.4,1.1-0.2
	c0.1,0.1,0.2,0.1,0.3,0.2l4.2,4.2c0.1,0.1,0.2,0.2,0.2,0.2C21.8,7.1,21.9,7.3,21.9,7.5z"/>
<linearGradient id="SVGID_00000101809740412669596000000002537238520809632395_" gradientUnits="userSpaceOnUse" x1="11.4305" y1="15.2576" x2="15.3828" y2="15.2576" gradientTransform="matrix(1 0 0 -1 0 26)">
	<stop  offset="0" style="stop-color:#5882CA"/>
	<stop  offset="0.48" style="stop-color:#BF4DA5"/>
	<stop  offset="1" style="stop-color:#E17032"/>
</linearGradient>
<path style="fill:url(#SVGID_00000101809740412669596000000002537238520809632395_);" d="M15,10.7h-0.2L14,10.6
	c0.1-0.1,0.1-0.3,0.1-0.4c0-0.5-0.2-0.9-0.6-1.1c-0.4-0.2-0.9-0.1-1.3,0.2l-0.6,0.6c-0.1,0.1-0.1,0.2-0.1,0.3c0,0.1,0.1,0.2,0.1,0.3
	l2,2h0.1c0.1,0.1,0.3,0.1,0.4,0.1c0.1-0.1,0.2-0.2,0.2-0.4c0-0.1-0.1-0.2-0.1-0.3l-0.5-0.5c0,0-0.1,0-0.1-0.1l0.8,0.1
	c0.2,0,0.4,0.1,0.6,0.1c0.2,0,0.4-0.1,0.4-0.3C15.4,10.9,15.2,10.7,15,10.7z M13.2,10.2c-0.1,0.1-0.2,0.2-0.3,0.3c0,0,0,0-0.1,0
	c-0.1,0-0.3-0.2-0.4-0.4c-0.1-0.1,0,0,0-0.1l0.3-0.3c0.1,0,0.1-0.1,0.2-0.1c0.1,0,0.2,0.1,0.3,0.2C13.3,10,13.3,10.1,13.2,10.2z"/>
<linearGradient id="SVGID_00000106144394956227513370000005216194428145024669_" gradientUnits="userSpaceOnUse" x1="14.8679" y1="18.652" x2="18.4172" y2="18.652" gradientTransform="matrix(1 0 0 -1 0 26)">
	<stop  offset="0" style="stop-color:#5882CA"/>
	<stop  offset="0.48" style="stop-color:#BF4DA5"/>
	<stop  offset="1" style="stop-color:#E17032"/>
</linearGradient>
<path style="fill:url(#SVGID_00000106144394956227513370000005216194428145024669_);" d="M18.4,7.2c-0.1-0.9-0.9-1.6-1.9-1.7
	c-0.4,0-0.9,0.2-1.2,0.5L15,6.4c-0.1,0.1-0.1,0.2-0.1,0.3c0,0.1,0.1,0.2,0.1,0.3l2,2l0,0c0.2,0.2,0.4,0.2,0.6,0l0.3-0.3
	C18.3,8.3,18.5,7.8,18.4,7.2z M17.6,7.6c0,0.2-0.1,0.4-0.3,0.5l-1.5-1.5c0.2-0.2,0.6-0.3,0.9-0.3C17.3,6.6,17.6,7.1,17.6,7.6z"/>
<linearGradient id="SVGID_00000091734542646239794250000017243576097473599678_" gradientUnits="userSpaceOnUse" x1="6.6065" y1="10.663" x2="10.738" y2="10.663" gradientTransform="matrix(1 0 0 -1 0 26)">
	<stop  offset="0" style="stop-color:#5882CA"/>
	<stop  offset="0.48" style="stop-color:#BF4DA5"/>
	<stop  offset="1" style="stop-color:#E17032"/>
</linearGradient>
<path style="fill:url(#SVGID_00000091734542646239794250000017243576097473599678_);" d="M9.2,15.9c0.1,0.3,0.1,0.6,0.2,0.9
	c0,0.1,0,0.2,0,0.3c0,0.2-0.2,0.3-0.4,0.3c-0.2,0-0.4-0.1-0.4-0.3c0-0.2-0.1-0.4-0.2-0.7c0-0.2-0.1-0.4-0.2-0.7c0-0.1,0-0.1-0.1-0.1
	l-1.3-0.3c-0.2,0-0.4-0.3-0.3-0.5c0,0,0-0.1,0-0.1c0.1-0.2,0.3-0.3,0.5-0.2L8,14.8c0,0,0.1,0,0.1,0C8.1,14.5,8,14.2,7.9,14
	c0-0.1,0-0.1,0-0.2c0-0.2,0.1-0.4,0.3-0.5c0.2-0.1,0.4,0.1,0.5,0.3c0,0.2,0.1,0.4,0.1,0.5c0,0.2,0.1,0.5,0.2,0.8C9,15,9.1,15,9.1,15
	l1.3,0.3c0.2,0,0.3,0.2,0.3,0.4c0,0.2-0.1,0.4-0.4,0.4c0,0,0,0-0.1,0c-0.1,0-0.2,0-0.3-0.1L9.2,15.9C9.3,15.9,9.3,15.9,9.2,15.9z"/>
<linearGradient id="SVGID_00000160905571893823751780000017412522045054344078_" gradientUnits="userSpaceOnUse" x1="8.6441" y1="12.4503" x2="11.4992" y2="12.4503" gradientTransform="matrix(1 0 0 -1 0 26)">
	<stop  offset="0" style="stop-color:#5882CA"/>
	<stop  offset="0.48" style="stop-color:#BF4DA5"/>
	<stop  offset="1" style="stop-color:#E17032"/>
</linearGradient>
<path style="fill:url(#SVGID_00000160905571893823751780000017412522045054344078_);" d="M11.4,14.7L11,14.2l-0.3-0.3l0.3-0.3
	c0.3-0.3,0.4-0.6,0.3-1c-0.1-0.6-0.7-1-1.3-0.9c-0.2,0-0.4,0.1-0.6,0.3c-0.2,0.2-0.4,0.4-0.7,0.7c-0.1,0.1-0.1,0.2-0.1,0.3
	c0,0.1,0.1,0.2,0.2,0.3l2,2c0,0,0.1,0.1,0.1,0.1c0.1,0.1,0.2,0.1,0.3,0.1c0.2,0,0.4-0.2,0.3-0.5C11.5,14.8,11.5,14.7,11.4,14.7z
	 M10.4,13c-0.1,0.1-0.2,0.2-0.3,0.3l-0.5-0.4l0.3-0.3c0.1-0.1,0.3-0.1,0.4,0C10.5,12.7,10.5,12.9,10.4,13C10.4,13,10.4,13,10.4,13z"
	/>
<linearGradient id="SVGID_00000018195280676988256600000001754876866421226895_" gradientUnits="userSpaceOnUse" x1="4.973" y1="8.7837" x2="8.6566" y2="8.7837" gradientTransform="matrix(1 0 0 -1 0 26)">
	<stop  offset="0" style="stop-color:#5882CA"/>
	<stop  offset="0.48" style="stop-color:#BF4DA5"/>
	<stop  offset="1" style="stop-color:#E17032"/>
</linearGradient>
<path style="fill:url(#SVGID_00000018195280676988256600000001754876866421226895_);" d="M6,16.5L6.4,17l0.4-0.4
	c0.2-0.2,0.4-0.2,0.6,0c0,0,0.1,0.1,0.1,0.2c0.1,0.1,0,0.3-0.1,0.4l-0.4,0.4c0,0-0.1,0.1-0.1,0.1L7.4,18c0,0,0.1,0,0.1,0L8,17.5
	c0.1-0.1,0.2-0.1,0.4-0.1c0.2,0,0.4,0.2,0.3,0.5c0,0.1,0,0.1-0.1,0.2c-0.3,0.3-0.6,0.6-0.9,0.9c-0.1,0.1-0.4,0.1-0.5,0l0,0l-2-2
	C5,16.8,5,16.5,5.1,16.4c0,0,0,0,0.1-0.1l0.8-0.8c0.2-0.2,0.4-0.2,0.6,0c0,0,0,0,0,0c0.2,0.2,0.2,0.4,0,0.6L6,16.5
	C6,16.5,6,16.5,6,16.5z"/>
<linearGradient id="SVGID_00000121970876948217648860000010174191736010489005_" gradientUnits="userSpaceOnUse" x1="13.3128" y1="17.1395" x2="16.9741" y2="17.1395" gradientTransform="matrix(1 0 0 -1 0 26)">
	<stop  offset="0" style="stop-color:#5882CA"/>
	<stop  offset="0.48" style="stop-color:#BF4DA5"/>
	<stop  offset="1" style="stop-color:#E17032"/>
</linearGradient>
<path style="fill:url(#SVGID_00000121970876948217648860000010174191736010489005_);" d="M14.3,8.2l0.5,0.5c0.1-0.1,0.3-0.3,0.4-0.4
	c0.2-0.2,0.4-0.2,0.6,0c0,0,0.1,0.1,0.1,0.1c0.1,0.1,0,0.3-0.1,0.4l-0.4,0.4c0,0-0.1,0.1-0.1,0.1l0.5,0.5l0.4-0.4l0.2-0.1
	c0.2-0.1,0.4-0.1,0.6,0.1c0.1,0.1,0.1,0.3,0,0.5c0,0,0,0.1-0.1,0.1l-0.8,0.8c-0.1,0.1-0.3,0.2-0.4,0.1c-0.1,0-0.1-0.1-0.2-0.1l-2-2
	c-0.2-0.1-0.2-0.4,0-0.6c0,0,0,0,0,0c0.3-0.3,0.5-0.5,0.8-0.8c0.2-0.2,0.4-0.2,0.6,0c0,0,0,0,0,0c0.2,0.1,0.2,0.4,0,0.6c0,0,0,0,0,0
	C14.6,7.9,14.5,8.1,14.3,8.2z"/>
<linearGradient id="SVGID_00000093167746468076972990000014013652925982461863_" gradientUnits="userSpaceOnUse" x1="10.5839" y1="14.0208" x2="13.4502" y2="14.0208" gradientTransform="matrix(1 0 0 -1 0 26)">
	<stop  offset="0" style="stop-color:#5882CA"/>
	<stop  offset="0.48" style="stop-color:#BF4DA5"/>
	<stop  offset="1" style="stop-color:#E17032"/>
</linearGradient>
<path style="fill:url(#SVGID_00000093167746468076972990000014013652925982461863_);" d="M11,10.6c0.1,0,0.2,0.1,0.3,0.1
	c0.2,0.2,0.4,0.4,0.6,0.6c0.5,0.5,0.9,0.9,1.4,1.4c0.1,0.1,0.2,0.3,0.1,0.4c-0.1,0.2-0.3,0.3-0.5,0.3c0,0-0.1,0-0.1-0.1l-0.1-0.1
	l-2-2c0,0-0.1-0.1-0.1-0.2c-0.1-0.2,0-0.4,0.2-0.5C10.9,10.6,10.9,10.5,11,10.6z"/>
</svg>
