<?xml version="1.0" encoding="utf-8"?>
<!-- Generator: Adobe Illustrator 28.4.1, SVG Export Plug-In . SVG Version: 6.00 Build 0)  -->
<svg version="1.1" id="Layer_1" xmlns="http://www.w3.org/2000/svg" xmlns:xlink="http://www.w3.org/1999/xlink" x="0px" y="0px"
	 viewBox="0 0 24 24" style="enable-background:new 0 0 24 24;" xml:space="preserve">
<style type="text/css">
	.st0{fill:url(#SVGID_1_);}
	.st1{fill:url(#SVGID_00000172415047096694167420000011937387288818934442_);}
	.st2{fill:url(#SVGID_00000004516466068449608880000016667417745125390229_);}
	.st3{fill:url(#SVGID_00000155856014230021132240000015219057768947182522_);}
	.st4{fill:url(#SVGID_00000107553162992559828500000009516575787477005444_);}
</style>
<g>
	
		<linearGradient id="SVGID_1_" gradientUnits="userSpaceOnUse" x1="7.496" y1="24.7422" x2="18.5426" y2="5.6046" gradientTransform="matrix(1 0 0 -1 0 26)">
		<stop  offset="0" style="stop-color:#5882CA"/>
		<stop  offset="0.48" style="stop-color:#BF4DA5"/>
		<stop  offset="1" style="stop-color:#E17032"/>
	</linearGradient>
	<path class="st0" d="M21.7,5.7c0-0.1,0-0.1,0-0.2V3.3c0-0.3,0.1-0.5,0.3-0.7c0.2-0.3,0.6-0.3,1-0.2c0.4,0.1,0.6,0.4,0.6,0.8l0,0
		c0,0.9,0,1.9,0,2.8c-0.1,1.4-1.1,2.5-2.5,2.7c-0.2,0-0.3,0-0.5,0h-2.7c-0.4,0-0.7-0.2-0.8-0.5c-0.2-0.5,0.1-1,0.6-1.1
		c0.1,0,0.2,0,0.2,0h2.5c0-0.1,0-0.1-0.1-0.2c-1.7-2.6-4.5-4.3-7.6-4.6c-5.4-0.4-10,3.7-10.4,9C2,16,5.1,20.3,9.6,21.4
		c1,0.3,1.9,0.3,2.9,0.3h0.3c0.5,0,1,0.4,1,0.9s-0.4,1-0.9,1c-0.7,0.1-1.3,0.1-2,0c-1.2-0.1-2.4-0.4-3.5-0.9
		c-3.4-1.4-5.9-4.4-6.8-8.1c-0.3-1.1-0.4-2.3-0.3-3.5c0.3-4,2.7-7.6,6.2-9.4c1.2-0.6,2.5-1,3.9-1.2c4.3-0.6,8.6,1.4,11,5L21.7,5.7z"
		/>
	
		<linearGradient id="SVGID_00000080179715256845510510000006870529698696254358_" gradientUnits="userSpaceOnUse" x1="7.9056" y1="19.9088" x2="12.5786" y2="11.8013" gradientTransform="matrix(1 0 0 -1 0 26)">
		<stop  offset="0" style="stop-color:#5882CA"/>
		<stop  offset="0.48" style="stop-color:#BF4DA5"/>
		<stop  offset="1" style="stop-color:#E17032"/>
	</linearGradient>
	<path style="fill:url(#SVGID_00000080179715256845510510000006870529698696254358_);" d="M12.9,8.4c0,1.2,0,2.3,0,3.5
		c0,0.3-0.1,0.6-0.3,0.8c-1.2,1.1-2.3,2.3-3.5,3.5c-0.2,0.3-0.6,0.4-0.9,0.3c-0.5-0.1-0.7-0.7-0.6-1.1c0-0.1,0.1-0.2,0.1-0.3
		l0.2-0.2l3.1-3.1c0.1-0.1,0.2-0.2,0.1-0.3c0-2.2,0-4.4,0-6.6c0-0.2,0.1-0.4,0.2-0.6c0.3-0.4,0.9-0.5,1.3-0.2
		c0.2,0.2,0.4,0.4,0.4,0.7L12.9,8.4L12.9,8.4z"/>
	
		<linearGradient id="SVGID_00000097467847689146154560000001479996699287108262_" gradientUnits="userSpaceOnUse" x1="19.7423" y1="8.2376" x2="20.8156" y2="6.3882" gradientTransform="matrix(1 0 0 -1 0 26)">
		<stop  offset="0" style="stop-color:#5882CA"/>
		<stop  offset="0.48" style="stop-color:#BF4DA5"/>
		<stop  offset="1" style="stop-color:#E17032"/>
	</linearGradient>
	<path style="fill:url(#SVGID_00000097467847689146154560000001479996699287108262_);" d="M19.9,19.9c-0.3,0-0.6-0.2-0.7-0.5
		c-0.2-0.3-0.2-0.7,0-0.9c0.2-0.3,0.4-0.5,0.6-0.8c0.3-0.4,0.9-0.4,1.3-0.1c0.3,0.3,0.4,0.8,0.2,1.2c-0.2,0.3-0.4,0.6-0.7,0.8
		C20.4,19.8,20.2,19.9,19.9,19.9z"/>
	
		<linearGradient id="SVGID_00000034808386439988895510000001768898420380762022_" gradientUnits="userSpaceOnUse" x1="21.748" y1="12.3822" x2="22.9699" y2="10.2687" gradientTransform="matrix(1 0 0 -1 0 26)">
		<stop  offset="0" style="stop-color:#5882CA"/>
		<stop  offset="0.48" style="stop-color:#BF4DA5"/>
		<stop  offset="1" style="stop-color:#E17032"/>
	</linearGradient>
	<path style="fill:url(#SVGID_00000034808386439988895510000001768898420380762022_);" d="M23.3,14.3c0,0,0,0.1,0,0.1
		c-0.1,0.3-0.1,0.6-0.2,1C23,15.7,22.7,16,22.4,16c-0.5,0.1-0.9-0.3-1-0.7c0-0.1,0-0.2,0-0.3c0-0.1,0.1-0.2,0.1-0.4l0.1-0.6
		c0.1-0.5,0.5-0.8,1-0.7C23.1,13.4,23.4,13.8,23.3,14.3L23.3,14.3L23.3,14.3z"/>
	
		<linearGradient id="SVGID_00000086659554575159879270000008318914121769172413_" gradientUnits="userSpaceOnUse" x1="16.3831" y1="5.3487" x2="17.3078" y2="3.7305" gradientTransform="matrix(1 0 0 -1 0 26)">
		<stop  offset="0" style="stop-color:#5882CA"/>
		<stop  offset="0.48" style="stop-color:#BF4DA5"/>
		<stop  offset="1" style="stop-color:#E17032"/>
	</linearGradient>
	<path style="fill:url(#SVGID_00000086659554575159879270000008318914121769172413_);" d="M18.1,21.4c0,0.3-0.2,0.5-0.4,0.7
		c-0.3,0.2-0.6,0.3-1,0.5c-0.5,0.1-1-0.1-1.1-0.6c-0.1-0.4,0-0.8,0.4-1l0.8-0.4c0.5-0.2,1,0,1.2,0.4C18.1,21,18.1,21.2,18.1,21.4z"
		/>
</g>
</svg>
