<?xml version="1.0" encoding="utf-8"?>
<!-- Generator: Adobe Illustrator 28.4.1, SVG Export Plug-In . SVG Version: 6.00 Build 0)  -->
<svg version="1.1" id="Layer_1" xmlns="http://www.w3.org/2000/svg" xmlns:xlink="http://www.w3.org/1999/xlink" x="0px" y="0px"
	 viewBox="0 0 24 24" style="enable-background:new 0 0 24 24;" xml:space="preserve">
<style type="text/css">
	.st0{fill:url(#SVGID_1_);}
	.st1{fill:url(#SVGID_00000063608011204655169760000015131020444614910898_);}
	.st2{fill:url(#SVGID_00000064353010042753698170000002489762843529546153_);}
	.st3{fill:url(#SVGID_00000028312405571647011480000011129561684971810462_);}
	.st4{fill:url(#SVGID_00000007386478613154924450000011823548980220180386_);}
	.st5{fill:#FFFFFF;}
	.st6{fill:url(#SVGID_00000039818411797037406110000014183909002146914960_);}
	.st7{fill:url(#SVGID_00000057146802452572948320000010006091061537511593_);}
	.st8{fill:url(#SVGID_00000065761992025493179640000017376927746608901291_);}
	.st9{fill:url(#SVGID_00000065780434088194064570000006761003378068378517_);}
</style>
<linearGradient id="SVGID_1_" gradientUnits="userSpaceOnUse" x1="6.8803" y1="8.5309" x2="6.8803" y2="6.7454" gradientTransform="matrix(1 0 0 -1 0 26)">
	<stop  offset="0" style="stop-color:#5882CA"/>
	<stop  offset="0.38" style="stop-color:#BF4DA5"/>
	<stop  offset="0.88" style="stop-color:#E17032"/>
</linearGradient>
<path class="st0" d="M9.3,18.3c-0.1,0.3-0.3,0.5-0.6,0.5c-1.2,0-2.4,0-3.5,0c-0.4,0-0.7-0.3-0.7-0.7c0,0,0,0,0,0
	c0-0.4,0.3-0.7,0.7-0.7h3.4c0.1,0,0.2,0,0.4,0.1C9.2,17.7,9.3,18,9.3,18.3z"/>
<linearGradient id="SVGID_00000057125633136097116900000018441286667349757328_" gradientUnits="userSpaceOnUse" x1="6.8483" y1="14.0374" x2="6.8483" y2="12.2382" gradientTransform="matrix(1 0 0 -1 0 26)">
	<stop  offset="0" style="stop-color:#5882CA"/>
	<stop  offset="0.38" style="stop-color:#BF4DA5"/>
	<stop  offset="0.88" style="stop-color:#E17032"/>
</linearGradient>
<path style="fill:url(#SVGID_00000057125633136097116900000018441286667349757328_);" d="M4.4,12.6c0-0.4,0.3-0.6,0.7-0.6h3.4
	c0.1,0,0.2,0,0.3,0c0.3,0.1,0.5,0.4,0.4,0.7c0,0.3-0.3,0.6-0.6,0.6H5C4.7,13.3,4.4,13,4.4,12.6z"/>
<linearGradient id="SVGID_00000096780779448602582050000012961408669631247275_" gradientUnits="userSpaceOnUse" x1="6.854" y1="11.2842" x2="6.854" y2="9.485" gradientTransform="matrix(1 0 0 -1 0 26)">
	<stop  offset="0" style="stop-color:#5882CA"/>
	<stop  offset="0.38" style="stop-color:#BF4DA5"/>
	<stop  offset="0.88" style="stop-color:#E17032"/>
</linearGradient>
<path style="fill:url(#SVGID_00000096780779448602582050000012961408669631247275_);" d="M4.4,15.4c0-0.3,0.3-0.6,0.6-0.6h3.4
	c0.1,0,0.2,0,0.3,0c0.4,0.1,0.6,0.5,0.5,0.9c-0.1,0.3-0.3,0.5-0.6,0.5H5.2c-0.1,0-0.2,0-0.3,0C4.6,16,4.4,15.7,4.4,15.4z"/>
<linearGradient id="SVGID_00000034803036721605090960000015077628080808657589_" gradientUnits="userSpaceOnUse" x1="9.1973" y1="23.1421" x2="9.1973" y2="13.2332" gradientTransform="matrix(1 0 0 -1 0 26)">
	<stop  offset="0" style="stop-color:#5882CA"/>
	<stop  offset="0.38" style="stop-color:#BF4DA5"/>
	<stop  offset="0.88" style="stop-color:#E17032"/>
</linearGradient>
<path style="fill:url(#SVGID_00000034803036721605090960000015077628080808657589_);" d="M10.1,9.8c-0.1,0-0.2,0.1-0.2,0.2
	c0,0.3-0.2,0.5-0.4,0.6c-0.2,0.1-0.5,0.1-0.7-0.1c-0.1-0.1-0.2-0.3-0.2-0.4c0-0.1,0-0.1-0.1-0.2C8.1,9.8,7.8,9.7,7.5,9.5
	C7.3,9.4,7.2,9.1,7.2,8.8c0.1-0.3,0.3-0.5,0.6-0.5c0.2,0,0.4,0,0.5,0.1c0.3,0.2,0.6,0.2,0.9,0.2c0.2,0,0.5-0.2,0.6-0.4
	c0.1-0.2,0-0.4-0.1-0.5C9.6,7.6,9.5,7.5,9.4,7.5L8.8,7.2C8.5,7.1,8.3,7,8.1,6.9c-0.8-0.5-1-1.6-0.4-2.4C7.8,4.2,8.1,4,8.4,3.9
	c0.1,0,0.2-0.1,0.2-0.2C8.5,3.3,8.8,3,9.2,3s0.7,0.3,0.7,0.7c0,0.1,0.1,0.2,0.2,0.2c0,0,0,0,0,0c0.2,0.1,0.4,0.2,0.6,0.4
	c0.1,0.1,0.2,0.3,0.2,0.5c0,0.4-0.3,0.7-0.7,0.7c-0.2,0-0.3-0.1-0.4-0.2C9.6,5.1,9.3,5.1,9,5.1C9,5.2,8.9,5.2,8.8,5.3
	c-0.1,0.1-0.1,0.3,0,0.4c0,0,0,0,0,0c0.1,0.1,0.2,0.2,0.4,0.2l0.7,0.3c0.3,0.1,0.5,0.3,0.7,0.5c0.7,0.8,0.7,1.9-0.1,2.7
	c-0.1,0.1-0.1,0.1-0.2,0.2C10.3,9.7,10.2,9.7,10.1,9.8z"/>
<linearGradient id="SVGID_00000183210514515406560860000014005071749157994398_" gradientUnits="userSpaceOnUse" x1="11.9881" y1="26.3315" x2="11.9881" y2="-4.1448" gradientTransform="matrix(1 0 0 -1 0 26)">
	<stop  offset="0" style="stop-color:#5882CA"/>
	<stop  offset="0.38" style="stop-color:#BF4DA5"/>
	<stop  offset="0.88" style="stop-color:#E17032"/>
</linearGradient>
<path style="fill:url(#SVGID_00000183210514515406560860000014005071749157994398_);" d="M17.1,16.7L17.1,16.7c0-0.4,0-0.7,0-1.1
	c0-0.4-0.3-0.7-0.7-0.7c-0.1,0-0.1,0-0.2,0c-0.3,0.1-0.5,0.4-0.4,0.7v1.3c0,0.1,0,0.1-0.1,0.1h-1.4c-0.4,0-0.6,0.4-0.6,0.8
	c0,0.4,0.3,0.6,0.7,0.6c0.7,0,1.4,0,2,0c0.4,0,0.7-0.3,0.8-0.7c0,0,0-0.1,0-0.1C17,17.3,17.1,17,17.1,16.7z M17.1,16.7L17.1,16.7
	c0-0.4,0-0.7,0-1.1c0-0.4-0.3-0.7-0.7-0.7c-0.1,0-0.1,0-0.2,0c-0.3,0.1-0.5,0.4-0.4,0.7v1.3c0,0.1,0,0.1-0.1,0.1h-1.4
	c-0.4,0-0.6,0.4-0.6,0.8c0,0.4,0.3,0.6,0.7,0.6c0.7,0,1.4,0,2,0c0.4,0,0.7-0.3,0.8-0.7c0,0,0-0.1,0-0.1C17,17.3,17.1,17,17.1,16.7z
	 M17,11.4c-0.1,0-0.1,0-0.1-0.1v-1.1c0-0.2,0-0.2,0.2-0.2h4.5c0.4,0,0.8-0.3,0.8-0.7c0,0,0,0,0-0.1c0-1.8,0-3.6,0-5.5
	c0-0.2,0-0.3,0-0.5c-0.2-1.7-1.7-3-3.4-3H5.1C4.5,0.2,4,0.4,3.5,0.6C2.3,1.2,1.6,2.5,1.6,3.8v19.2c0,0.3,0.2,0.5,0.5,0.6
	c0.3,0.1,0.5,0,0.7-0.2l0.8-0.8c0.1-0.1,0.1-0.1,0.2,0c0.3,0.3,0.5,0.5,0.8,0.8c0.3,0.3,0.7,0.3,1,0.1c0,0,0,0,0.1-0.1
	c0.2-0.2,0.5-0.5,0.7-0.7c0.2-0.2,0.1-0.1,0.2,0c0.1,0.1,0.5,0.5,0.7,0.7c0.3,0.3,0.7,0.3,1,0.1c0,0,0,0,0.1-0.1
	c0.3-0.3,0.6-0.6,0.9-0.9l0.8,0.9c0.3,0.3,0.7,0.3,1,0.1c0,0,0,0,0.1-0.1c0.3-0.3,0.6-0.6,1-1c0.3-0.3,0.1-0.1,0.3,0
	c1.4,1.1,3.3,1.5,5.1,1.1c3.3-0.7,5.4-4.1,4.7-7.4C21.6,13.7,19.5,11.8,17,11.4L17,11.4z M16.8,3.8c0-0.8,0.5-1.6,1.3-1.9
	c1.1-0.5,2.3,0,2.7,1.1c0.1,0.2,0.1,0.4,0.2,0.5c0,0.1,0,0.3,0,0.4v4.5c0,0.2,0,0.2-0.2,0.2H17c-0.2,0-0.2,0-0.2-0.2V6
	C16.8,5.2,16.8,4.5,16.8,3.8z M11.2,21.5l-0.6,0.6l-0.8-0.9c-0.1-0.1-0.3-0.2-0.4-0.2c-0.2,0-0.5,0-0.6,0.2L8,22l-0.1,0.1L7,21.2
	c-0.3-0.3-0.7-0.3-1,0c0,0,0,0,0,0l-0.8,0.7V22l-0.3-0.3c-0.2-0.2-0.4-0.4-0.6-0.6c-0.3-0.3-0.7-0.3-1-0.1c0,0,0,0-0.1,0.1l-0.1,0.1
	V3.7c0-1.1,0.9-2,2-2.1h11c0,0,0,0.1-0.1,0.1c-0.4,0.6-0.6,1.3-0.6,2v7.4c0,0.2,0,0.2-0.2,0.2c-1.1,0.2-2.2,0.6-3.1,1.4
	c-1.1,1-1.9,2.3-2.1,3.8c-0.3,1.7,0.1,3.4,1.2,4.7C11.3,21.4,11.3,21.4,11.2,21.5z M16.1,22.4c-2.7,0-4.8-2.2-4.8-4.8
	c0-2.7,2.2-4.8,4.8-4.8c2.7,0,4.8,2.2,4.8,4.8c0,0,0,0,0,0C20.9,20.2,18.7,22.4,16.1,22.4z M17,16.7L17,16.7c0-0.4,0-0.7,0-1.1
	c0-0.4-0.3-0.7-0.7-0.7c-0.1,0-0.1,0-0.2,0c-0.3,0.1-0.5,0.4-0.4,0.7v1.3c0,0.1,0,0.1-0.1,0.1h-1.4c-0.4,0-0.6,0.4-0.6,0.8
	c0,0.4,0.3,0.6,0.7,0.6c0.7,0,1.4,0,2,0c0.4,0,0.7-0.3,0.8-0.7c0,0,0-0.1,0-0.1C17,17.3,17.1,17,17,16.7L17,16.7z M17,16.7L17,16.7
	c0-0.4,0-0.7,0-1.1c0-0.4-0.3-0.7-0.7-0.7c-0.1,0-0.1,0-0.2,0c-0.3,0.1-0.5,0.4-0.4,0.7v1.3c0,0.1,0,0.1-0.1,0.1h-1.4
	c-0.4,0-0.6,0.4-0.6,0.8c0,0.4,0.3,0.6,0.7,0.6c0.7,0,1.4,0,2,0c0.4,0,0.7-0.3,0.8-0.7c0,0,0-0.1,0-0.1C17,17.3,17.1,17,17,16.7
	L17,16.7z M17,16.7L17,16.7c0-0.4,0-0.7,0-1.1c0-0.4-0.3-0.7-0.7-0.7c-0.1,0-0.1,0-0.2,0c-0.3,0.1-0.5,0.4-0.4,0.7v1.3
	c0,0.1,0,0.1-0.1,0.1h-1.4c-0.4,0-0.6,0.4-0.6,0.8c0,0.4,0.3,0.6,0.7,0.6c0.7,0,1.4,0,2,0c0.4,0,0.7-0.3,0.8-0.7c0,0,0-0.1,0-0.1
	C17,17.3,17.1,17,17,16.7L17,16.7z"/>
<path class="st5" d="M9.3,18.3c-0.1,0.3-0.3,0.5-0.6,0.5c-1.2,0-2.4,0-3.5,0c-0.4,0-0.7-0.3-0.7-0.7c0,0,0,0,0,0
	c0-0.4,0.3-0.7,0.7-0.7h3.4c0.1,0,0.2,0,0.4,0.1C9.2,17.7,9.3,18,9.3,18.3z"/>
<path class="st5" d="M4.4,12.6c0-0.4,0.3-0.6,0.7-0.6h3.4c0.1,0,0.2,0,0.3,0c0.3,0.1,0.5,0.4,0.4,0.7c0,0.3-0.3,0.6-0.6,0.6H5
	C4.7,13.3,4.4,13,4.4,12.6z"/>
<path class="st5" d="M4.4,15.4c0-0.3,0.3-0.6,0.6-0.6h3.4c0.1,0,0.2,0,0.3,0c0.4,0.1,0.6,0.5,0.5,0.9c-0.1,0.3-0.3,0.5-0.6,0.5H5.2
	c-0.1,0-0.2,0-0.3,0C4.6,16,4.4,15.7,4.4,15.4z"/>
<path class="st5" d="M10.5,9.6c-0.1,0.1-0.3,0.2-0.4,0.2c-0.1,0-0.2,0.1-0.2,0.2c0,0.3-0.2,0.5-0.4,0.6c-0.2,0.1-0.5,0.1-0.7-0.1
	c-0.1-0.1-0.2-0.3-0.2-0.4c0-0.1,0-0.1-0.1-0.2C8.1,9.8,7.8,9.7,7.5,9.5C7.3,9.4,7.2,9.1,7.2,8.8c0.1-0.3,0.3-0.5,0.6-0.5
	c0.2,0,0.4,0,0.5,0.1c0.3,0.2,0.6,0.2,0.9,0.2c0.2,0,0.5-0.2,0.6-0.4c0.1-0.2,0-0.4-0.1-0.5C9.6,7.6,9.5,7.5,9.4,7.5L8.8,7.2
	C8.5,7.1,8.3,7,8.1,6.9c-0.8-0.5-1-1.6-0.4-2.4C7.8,4.2,8.1,4,8.4,3.9c0.1,0,0.2-0.1,0.2-0.2C8.5,3.3,8.8,3,9.2,3s0.7,0.3,0.7,0.7
	c0,0.1,0.1,0.2,0.2,0.2c0,0,0,0,0,0c0.2,0.1,0.4,0.2,0.6,0.4c0.1,0.1,0.2,0.3,0.2,0.5c0,0.4-0.3,0.7-0.7,0.7c-0.2,0-0.3-0.1-0.4-0.2
	C9.6,5.1,9.3,5.1,9,5.1C9,5.2,8.9,5.2,8.8,5.3c-0.1,0.1-0.1,0.3,0,0.4c0,0,0,0,0,0c0.1,0.1,0.2,0.2,0.4,0.2l0.7,0.3
	c0.3,0.1,0.5,0.3,0.7,0.5c0.7,0.7,0.7,1.9,0,2.7C10.6,9.5,10.5,9.5,10.5,9.6z"/>
<linearGradient id="SVGID_00000055700164875560889230000014293955752388054677_" gradientUnits="userSpaceOnUse" x1="9.2011" y1="22.9513" x2="9.2011" y2="15.3186" gradientTransform="matrix(1 0 0 -1 0 26)">
	<stop  offset="0" style="stop-color:#5882CA"/>
	<stop  offset="0.48" style="stop-color:#BF4DA5"/>
	<stop  offset="0.97" style="stop-color:#E17032"/>
</linearGradient>
<path style="fill:url(#SVGID_00000055700164875560889230000014293955752388054677_);" d="M10.5,9.6c-0.1,0.1-0.3,0.2-0.4,0.2
	c-0.1,0-0.2,0.1-0.2,0.2c0,0.3-0.2,0.5-0.4,0.6c-0.2,0.1-0.5,0.1-0.7-0.1c-0.1-0.1-0.2-0.3-0.2-0.4c0-0.1,0-0.1-0.1-0.2
	C8.1,9.8,7.8,9.7,7.5,9.5C7.3,9.4,7.2,9.1,7.2,8.8c0.1-0.3,0.3-0.5,0.6-0.5c0.2,0,0.4,0,0.5,0.1c0.3,0.2,0.6,0.2,0.9,0.2
	c0.2,0,0.5-0.2,0.6-0.4c0.1-0.2,0-0.4-0.1-0.5C9.6,7.6,9.5,7.5,9.4,7.5L8.8,7.2C8.5,7.1,8.3,7,8.1,6.9c-0.8-0.5-1-1.6-0.4-2.4
	C7.8,4.2,8.1,4,8.4,3.9c0.1,0,0.2-0.1,0.2-0.2C8.5,3.3,8.8,3,9.2,3s0.7,0.3,0.7,0.7c0,0.1,0.1,0.2,0.2,0.2c0,0,0,0,0,0
	c0.2,0.1,0.4,0.2,0.6,0.4c0.1,0.1,0.2,0.3,0.2,0.5c0,0.4-0.3,0.7-0.7,0.7c-0.2,0-0.3-0.1-0.4-0.2C9.6,5.1,9.3,5.1,9,5.1
	C9,5.2,8.9,5.2,8.8,5.3c-0.1,0.1-0.1,0.3,0,0.4c0,0,0,0,0,0c0.1,0.1,0.2,0.2,0.4,0.2l0.7,0.3c0.3,0.1,0.5,0.3,0.7,0.5
	c0.7,0.7,0.7,1.9,0,2.7C10.6,9.5,10.5,9.5,10.5,9.6z"/>
<linearGradient id="SVGID_00000154404367170177560330000013892318652081287595_" gradientUnits="userSpaceOnUse" x1="6.8803" y1="8.5037" x2="6.8803" y2="7.1134" gradientTransform="matrix(1 0 0 -1 0 26)">
	<stop  offset="0" style="stop-color:#5882CA"/>
	<stop  offset="0.48" style="stop-color:#BF4DA5"/>
	<stop  offset="0.97" style="stop-color:#E17032"/>
</linearGradient>
<path style="fill:url(#SVGID_00000154404367170177560330000013892318652081287595_);" d="M9.3,18.3c-0.1,0.3-0.3,0.5-0.6,0.5
	c-1.2,0-2.4,0-3.5,0c-0.4,0-0.7-0.3-0.7-0.7c0,0,0,0,0,0c0-0.4,0.3-0.7,0.7-0.7h3.4c0.1,0,0.2,0,0.4,0.1C9.2,17.7,9.3,18,9.3,18.3z"
	/>
<linearGradient id="SVGID_00000162345045386000358770000007093928826356544951_" gradientUnits="userSpaceOnUse" x1="6.8425" y1="11.2433" x2="6.8425" y2="9.8667" gradientTransform="matrix(1 0 0 -1 0 26)">
	<stop  offset="0" style="stop-color:#5882CA"/>
	<stop  offset="0.48" style="stop-color:#BF4DA5"/>
	<stop  offset="0.97" style="stop-color:#E17032"/>
</linearGradient>
<path style="fill:url(#SVGID_00000162345045386000358770000007093928826356544951_);" d="M9.3,15.5c0,0.3-0.3,0.6-0.6,0.6H5.2
	c-0.1,0-0.2,0-0.3,0c-0.3-0.1-0.5-0.4-0.5-0.7c0-0.4,0.3-0.7,0.7-0.7c0,0,0,0,0,0h3.4c0.1,0,0.2,0,0.3,0C9.1,14.8,9.3,15.2,9.3,15.5
	z"/>
<linearGradient id="SVGID_00000122684581061520203070000007053159921244361406_" gradientUnits="userSpaceOnUse" x1="6.8635" y1="13.9965" x2="6.8635" y2="12.6199" gradientTransform="matrix(1 0 0 -1 0 26)">
	<stop  offset="0" style="stop-color:#5882CA"/>
	<stop  offset="0.48" style="stop-color:#BF4DA5"/>
	<stop  offset="0.97" style="stop-color:#E17032"/>
</linearGradient>
<path style="fill:url(#SVGID_00000122684581061520203070000007053159921244361406_);" d="M9.3,12.8c0,0.3-0.3,0.6-0.6,0.6H5
	c-0.3-0.1-0.6-0.4-0.6-0.7c0-0.4,0.3-0.7,0.7-0.7h3.4c0.1,0,0.2,0,0.3,0C9.1,12.1,9.3,12.5,9.3,12.8z"/>
</svg>
